<svg width="1486" height="1245" xmlns="http://www.w3.org/2000/svg" xmlns:xlink="http://www.w3.org/1999/xlink" xml:space="preserve" overflow="hidden"><g transform="translate(-1596 -596)"><path d="M1898.5 683.5 1900.5 1646.5" stroke="#292934" stroke-width="3.4375" stroke-linejoin="round" stroke-miterlimit="10" fill="none" fill-rule="evenodd"/><path d="M1900.5 1646.5 3080.5 1646.5" stroke="#292934" stroke-width="3.4375" stroke-linejoin="round" stroke-miterlimit="10" fill="none" fill-rule="evenodd"/><text fill="#292934" font-family="Arial,Arial_MSFontService,sans-serif" font-weight="700" font-size="83" transform="matrix(1 0 0 1 1646.17 799)">P</text><text fill="#292934" font-family="Arial,Arial_MSFontService,sans-serif" font-weight="700" font-size="83" transform="matrix(1 0 0 1 2785.64 1770)">Q</text><text fill="#292934" font-family="Arial,Arial_MSFontService,sans-serif" font-weight="700" font-size="83" text-decoration="underline" transform="matrix(1 0 0 1 2355.14 702)">Monopoly</text><path d="M1906.5 764.5 3025.5 1637.5" stroke="#292934" stroke-width="3.4375" stroke-linejoin="round" stroke-miterlimit="10" fill="none" fill-rule="evenodd"/><path d="M0 0 976 749" stroke="#292934" stroke-width="3.4375" stroke-linejoin="round" stroke-miterlimit="10" fill="none" fill-rule="evenodd" transform="matrix(1 0 0 -1 1902.5 1637.5)"/><path d="M2868.71 789.228 2883.18 789.228 2887.8 828.54 2911.43 789.228 2924.19 789.228 2923.75 791.214C2922.72 791.43 2921.99 791.673 2921.54 791.943 2921.09 792.214 2920.69 792.619 2920.32 793.159 2919.96 793.7 2919.59 794.544 2919.23 795.692 2918.86 796.84 2918.4 798.711 2917.83 801.305L2910.9 832.754C2910.55 834.348 2910.32 835.612 2910.21 836.544 2910.1 837.476 2910.05 838.32 2910.05 839.077 2910.05 840.292 2910.35 841.15 2910.96 841.65 2911.57 842.15 2912.59 842.454 2914.02 842.562L2913.58 844.548 2897.36 844.548 2897.81 842.562C2898.84 842.4 2899.61 842.136 2900.12 841.772 2900.63 841.407 2901.07 840.9 2901.42 840.252 2901.77 839.604 2902.09 838.813 2902.39 837.881 2902.69 836.949 2903.13 835.146 2903.73 832.471L2909.12 808.033C2909.87 804.655 2910.74 801.292 2911.71 797.941L2911.14 797.941C2910.31 799.535 2908.42 802.778 2905.47 807.668L2887.03 838.104 2882.61 838.104 2879.25 812.045C2878.76 808.37 2878.22 803.426 2877.63 797.212L2876.82 797.212C2875.9 803.264 2874.87 808.87 2873.74 814.031L2869.6 832.754C2869.04 835.321 2868.75 837.429 2868.75 839.077 2868.75 840.292 2869.06 841.15 2869.66 841.65 2870.27 842.15 2871.29 842.454 2872.72 842.562L2872.28 844.548 2858.09 844.548 2858.54 842.562C2859.57 842.4 2860.34 842.136 2860.85 841.772 2861.36 841.407 2861.8 840.9 2862.15 840.252 2862.5 839.604 2862.82 838.813 2863.12 837.881 2863.42 836.949 2863.86 835.146 2864.46 832.471L2871.35 801.265C2871.62 800.103 2871.83 798.995 2871.99 797.941 2872.16 796.888 2872.24 795.82 2872.24 794.74 2872.24 793.47 2871.92 792.585 2871.29 792.085 2870.65 791.585 2869.64 791.295 2868.27 791.214ZM2960.35 788.58C2962.81 788.58 2965.09 788.728 2967.18 789.025 2969.28 789.323 2971.61 789.863 2974.17 790.646L2971.74 801.629 2967.85 801.629C2967.64 798.306 2966.91 795.908 2965.68 794.436 2964.45 792.963 2962.47 792.227 2959.75 792.227 2956.02 792.227 2952.55 794.091 2949.35 797.82 2946.15 801.548 2943.62 806.472 2941.75 812.592 2939.89 818.712 2938.96 824.392 2938.96 829.634 2938.96 833.741 2939.68 836.767 2941.14 838.712 2942.6 840.657 2944.85 841.63 2947.87 841.63 2949.9 841.63 2951.67 841.326 2953.18 840.718 2954.69 840.11 2956.11 839.083 2957.44 837.638 2958.76 836.192 2960.07 834.173 2961.37 831.579L2965.26 831.579 2962.79 843.089C2957.73 844.494 2952.44 845.196 2946.9 845.196 2941.82 845.196 2937.96 843.737 2935.31 840.819 2932.66 837.901 2931.34 833.633 2931.34 828.013 2931.34 824.041 2932.05 819.461 2933.46 814.274 2934.88 809.086 2936.89 804.534 2939.48 800.616 2942.08 796.699 2945.14 793.713 2948.68 791.66 2952.22 789.606 2956.11 788.58 2960.35 788.58Z" fill="#292934" fill-rule="evenodd"/><text fill="#000000" fill-opacity="0" font-family="Arial,Arial_MSFontService,sans-serif" font-size="56.6167" x="2858.09" y="838.119">𝑀𝐶</text><text fill="#292934" font-family="Arial,Arial_MSFontService,sans-serif" font-weight="400" font-size="83" transform="matrix(1 0 0 1 1771.29 798)">12</text><text fill="#292934" font-family="Arial,Arial_MSFontService,sans-serif" font-weight="400" font-size="83" transform="matrix(1 0 0 1 1791.15 1667)">0</text><path d="M0 0 0.000360892 579.791" stroke="#93A299" stroke-width="3.4375" stroke-linejoin="round" stroke-miterlimit="10" stroke-dasharray="13.75 10.3125" fill="none" fill-rule="evenodd" transform="matrix(1 0 0 -1 2283.5 1646.29)"/><path d="M0 0 385 0.000360892" stroke="#93A299" stroke-width="3.4375" stroke-linejoin="round" stroke-miterlimit="10" stroke-dasharray="13.75 10.3125" fill="none" fill-rule="evenodd" transform="matrix(-1 0 0 1 2283.5 1066.5)"/><text fill="#292934" font-family="Arial,Arial_MSFontService,sans-serif" font-weight="400" font-size="83" transform="matrix(1 0 0 1 2205.77 1772)">200   300</text><text fill="#292934" font-family="Arial,Arial_MSFontService,sans-serif" font-weight="400" font-size="83" transform="matrix(1 0 0 1 1794.43 1099)">8</text><path d="M1899.5 759.5 2468.5 1637.5" stroke="#292934" stroke-width="3.4375" stroke-linejoin="round" stroke-miterlimit="10" fill="none" fill-rule="evenodd"/><text fill="#292934" font-family="Arial,Arial_MSFontService,sans-serif" font-weight="400" font-size="83" transform="matrix(1 0 0 1 2505.49 1573)">MR</text><path d="M0 0 365.834 0.000360892" stroke="#93A299" stroke-width="3.4375" stroke-linejoin="round" stroke-miterlimit="10" stroke-dasharray="13.75 10.3125" fill="none" fill-rule="evenodd" transform="matrix(-1 0 0 1 2278.33 1349.5)"/><path d="M0 0 561.683 0.000360892" stroke="#93A299" stroke-width="3.4375" stroke-linejoin="round" stroke-miterlimit="10" stroke-dasharray="13.75 10.3125" fill="none" fill-rule="evenodd" transform="matrix(-1 0 0 1 2468.18 1206.5)"/><path d="M0 0 0.000360892 448.219" stroke="#93A299" stroke-width="3.4375" stroke-linejoin="round" stroke-miterlimit="10" stroke-dasharray="13.75 10.3125" fill="none" fill-rule="evenodd" transform="matrix(1 0 0 -1 2468.5 1646.72)"/><text fill="#292934" font-family="Arial,Arial_MSFontService,sans-serif" font-weight="400" font-size="83" transform="matrix(1 0 0 1 1787.97 1232)">6</text><text fill="#292934" font-family="Arial,Arial_MSFontService,sans-serif" font-weight="400" font-size="83" transform="matrix(1 0 0 1 1792.49 1385)">4</text></g></svg>