<svg width="1712" height="1243" xmlns="http://www.w3.org/2000/svg" xmlns:xlink="http://www.w3.org/1999/xlink" xml:space="preserve" overflow="hidden"><g transform="translate(-1585 -734)"><path d="M1887.5 821.5 1889.5 1784.5" stroke="#292934" stroke-width="3.4375" stroke-linejoin="round" stroke-miterlimit="10" fill="none" fill-rule="evenodd"/><path d="M1889.5 1784.5 3069.5 1784.5" stroke="#292934" stroke-width="3.4375" stroke-linejoin="round" stroke-miterlimit="10" fill="none" fill-rule="evenodd"/><text fill="#292934" font-family="Arial,Arial_MSFontService,sans-serif" font-weight="700" font-size="83" transform="matrix(1 0 0 1 1635.16 937)">P</text><text fill="#292934" font-family="Arial,Arial_MSFontService,sans-serif" font-weight="700" font-size="83" transform="matrix(1 0 0 1 2774.63 1908)">Q</text><text fill="#292934" font-family="Arial,Arial_MSFontService,sans-serif" font-weight="700" font-size="83" text-decoration="underline" transform="matrix(1 0 0 1 2344.13 839)">Monopoly</text><path d="M1895.5 901.5 3014.5 1775.5" stroke="#292934" stroke-width="3.4375" stroke-linejoin="round" stroke-miterlimit="10" fill="none" fill-rule="evenodd"/><path d="M0 0 976 750" stroke="#292934" stroke-width="3.4375" stroke-linejoin="round" stroke-miterlimit="10" fill="none" fill-rule="evenodd" transform="matrix(1 0 0 -1 1891.5 1775.5)"/><path d="M2801.5 906.346 2812.66 906.346 2823.62 936.752 2835.69 906.346 2846.25 906.346 2846.25 907.877C2845.33 908.106 2844.67 908.335 2844.27 908.565 2843.86 908.794 2843.54 909.08 2843.3 909.424 2843.06 909.768 2842.88 910.283 2842.77 910.971 2842.65 911.658 2842.59 912.721 2842.59 914.158L2842.59 941.19C2842.59 942.585 2842.64 943.606 2842.73 944.252 2842.83 944.898 2842.98 945.408 2843.2 945.783 2843.42 946.158 2843.74 946.471 2844.17 946.721 2844.6 946.971 2845.29 947.221 2846.25 947.471L2846.25 949.002 2833.22 949.002 2833.22 947.471C2834.41 947.179 2835.23 946.846 2835.69 946.471 2836.15 946.096 2836.46 945.544 2836.62 944.815 2836.79 944.085 2836.87 942.877 2836.87 941.19L2836.87 929.221C2836.87 926.075 2836.92 922.893 2837.02 919.674 2837.11 916.455 2837.22 914.252 2837.34 913.065L2836.81 913.065 2824.44 944.033 2820.84 944.033 2809.34 912.565 2808.81 912.565C2808.92 913.835 2809.02 916.137 2809.11 919.471 2809.2 922.804 2809.25 926.231 2809.25 929.752L2809.25 941.19C2809.25 942.585 2809.3 943.606 2809.39 944.252 2809.48 944.898 2809.64 945.408 2809.86 945.783 2810.08 946.158 2810.4 946.471 2810.83 946.721 2811.25 946.971 2811.95 947.221 2812.91 947.471L2812.91 949.002 2801.5 949.002 2801.5 947.471C2802.79 947.137 2803.66 946.768 2804.09 946.361 2804.53 945.955 2804.82 945.377 2804.95 944.627 2805.09 943.877 2805.16 942.731 2805.16 941.19L2805.16 914.158C2805.16 912.721 2805.1 911.674 2805 911.018 2804.9 910.361 2804.72 909.851 2804.48 909.486 2804.24 909.122 2803.93 908.83 2803.53 908.611 2803.14 908.393 2802.46 908.148 2801.5 907.877ZM2871.66 905.846C2873.55 905.846 2875.3 905.945 2876.91 906.143 2878.51 906.341 2880.34 906.71 2882.41 907.252L2882.41 915.908 2879.31 915.908C2878.81 914.096 2878.18 912.653 2877.41 911.58 2876.64 910.507 2875.74 909.742 2874.72 909.283 2873.7 908.825 2872.47 908.596 2871.03 908.596 2868.89 908.596 2866.97 909.309 2865.3 910.736 2863.62 912.163 2862.3 914.309 2861.34 917.174 2860.39 920.038 2859.91 923.502 2859.91 927.565 2859.91 931.648 2860.3 935.132 2861.09 938.018 2861.89 940.903 2863.05 943.08 2864.59 944.549 2866.14 946.018 2868.03 946.752 2870.28 946.752 2871.99 946.752 2873.39 946.507 2874.47 946.018 2875.55 945.528 2876.46 944.752 2877.2 943.69 2877.94 942.627 2878.65 941.065 2879.31 939.002L2882.41 939.002 2882.41 947.94C2880.45 948.46 2878.44 948.851 2876.39 949.111 2874.34 949.372 2872.08 949.502 2869.62 949.502 2864.33 949.502 2860.33 947.71 2857.62 944.127 2854.92 940.544 2853.56 935.2 2853.56 928.096 2853.56 923.637 2854.27 919.731 2855.67 916.377 2857.08 913.023 2859.15 910.429 2861.87 908.596 2864.6 906.762 2867.86 905.846 2871.66 905.846Z" fill="#292934" fill-rule="evenodd"/><text fill="#000000" fill-opacity="0" font-family="Arial,Arial_MSFontService,sans-serif" font-size="43.6562" x="2801.5" y="944.045">MC</text><path d="M2908.56 935.127 2947.06 935.127 2947.06 939.283 2908.56 939.283ZM2908.56 922.158 2947.06 922.158 2947.06 926.315 2908.56 926.315Z" fill="#292934" fill-rule="evenodd"/><text fill="#000000" fill-opacity="0" font-family="Arial,Arial_MSFontService,sans-serif" font-size="17.125" x="2908.56" y="937.143">=</text><path d="M3007.8 857.285 3009.52 857.285C3009.4 859.285 3009.33 862.056 3009.33 865.598L3009.33 892.285C3009.33 893.494 3009.4 894.405 3009.54 895.02 3009.67 895.634 3009.91 896.134 3010.26 896.52 3010.6 896.905 3011.1 897.207 3011.74 897.426 3012.39 897.645 3013.2 897.811 3014.18 897.926 3015.16 898.041 3016.45 898.119 3018.05 898.16L3018.05 900.442 2994.96 900.442 2994.96 898.16C2997.27 898.056 2998.92 897.916 2999.91 897.738 3000.9 897.561 3001.66 897.296 3002.18 896.942 3002.7 896.587 3003.08 896.087 3003.32 895.442 3003.56 894.796 3003.68 893.744 3003.68 892.285L3003.68 866.942C3003.68 866.108 3003.53 865.499 3003.24 865.113 3002.95 864.728 3002.52 864.535 3001.96 864.535 3001.29 864.535 3000.35 864.879 2999.12 865.567 2997.89 866.254 2996.37 867.202 2994.55 868.41L2993.18 866.004Z" fill="#292934" fill-rule="evenodd"/><text fill="#000000" fill-opacity="0" font-family="Arial,Arial_MSFontService,sans-serif" font-size="43.1562" x="2993.18" y="895.047">1</text><path d="M3023.57 951.425C3022.14 951.425 3020.93 951.852 3019.97 952.706 3019 953.56 3018.22 954.789 3017.62 956.394 3017.03 957.998 3016.61 959.951 3016.36 962.253 3016.11 964.555 3015.98 967.154 3015.98 970.05 3015.98 976.842 3016.61 981.826 3017.87 985.003 3019.13 988.18 3021.09 989.769 3023.73 989.769 3026.25 989.769 3028.12 988.274 3029.34 985.284 3030.56 982.295 3031.17 977.664 3031.17 971.394 3031.17 966.602 3030.86 962.722 3030.23 959.753 3029.61 956.784 3028.74 954.654 3027.62 953.362 3026.51 952.071 3025.16 951.425 3023.57 951.425ZM3023.73 948.769C3028.29 948.769 3031.69 950.529 3033.92 954.05 3036.15 957.571 3037.26 962.894 3037.26 970.019 3037.26 977.394 3036.07 982.972 3033.68 986.753 3031.3 990.534 3027.81 992.425 3023.23 992.425 3018.73 992.425 3015.38 990.654 3013.18 987.112 3010.99 983.571 3009.89 978.196 3009.89 970.987 3009.89 967.154 3010.23 963.842 3010.9 961.05 3011.58 958.258 3012.53 955.951 3013.75 954.128 3014.97 952.305 3016.43 950.956 3018.14 950.081 3019.85 949.206 3021.71 948.769 3023.73 948.769ZM2996.57 947.206 2999.01 947.206 2998.54 954.456 2980.57 954.456 2980.57 968.175C2981.66 967.717 2982.84 967.373 2984.11 967.144 2985.38 966.914 2986.65 966.8 2987.92 966.8 2990.4 966.8 2992.6 967.305 2994.51 968.316 2996.43 969.326 2997.91 970.763 2998.95 972.628 2999.99 974.493 3000.51 976.654 3000.51 979.112 3000.51 981.904 2999.93 984.3 2998.76 986.3 2997.6 988.3 2995.91 989.821 2993.7 990.862 2991.49 991.904 2988.88 992.425 2985.86 992.425 2982.25 992.425 2978.48 991.685 2974.54 990.206L2974.54 983.581 2978.32 983.581C2978.95 985.706 2979.89 987.269 2981.15 988.269 2982.41 989.269 2984.04 989.769 2986.04 989.769 2988.81 989.769 2990.91 988.935 2992.32 987.269 2993.74 985.602 2994.45 983.112 2994.45 979.8 2994.45 977.592 2994.07 975.763 2993.32 974.316 2992.57 972.868 2991.56 971.821 2990.29 971.175 2989.02 970.529 2987.54 970.206 2985.86 970.206 2984.44 970.206 2983.22 970.295 2982.2 970.472 2981.18 970.649 2980.09 970.925 2978.92 971.3L2976.42 969.831 2976.42 949.269 2993.64 949.269C2994.35 949.269 2994.86 949.211 2995.17 949.097 2995.48 948.982 2995.73 948.805 2995.92 948.566 2996.11 948.326 2996.32 947.873 2996.57 947.206Z" fill="#292934" fill-rule="evenodd"/><text fill="#000000" fill-opacity="0" font-family="Arial,Arial_MSFontService,sans-serif" font-size="45.2188" x="2974.54" y="986.773">50</text><path d="M2970.3 929.008 3041.3 929.008 3041.3 933.008 2970.3 933.008Z" fill="#292934" fill-rule="evenodd"/><path d="M3077.76 908.596C3075.51 908.596 3073.41 909.398 3071.46 911.002 3069.51 912.606 3067.8 914.898 3066.33 917.877 3064.87 920.856 3063.72 924.127 3062.91 927.69 3062.1 931.252 3061.69 934.398 3061.69 937.127 3061.69 943.565 3064.04 946.783 3068.72 946.783 3071.62 946.783 3074.28 945.434 3076.69 942.736 3079.11 940.038 3081.06 936.304 3082.54 931.533 3084.02 926.762 3084.76 922.304 3084.76 918.158 3084.76 915.054 3084.18 912.684 3083.04 911.049 3081.89 909.413 3080.13 908.596 3077.76 908.596ZM3078.1 905.846C3082.12 905.846 3085.22 907.012 3087.4 909.346 3089.57 911.679 3090.66 915.054 3090.66 919.471 3090.66 922.387 3090.2 925.648 3089.29 929.252 3088.37 932.856 3087.11 936.038 3085.51 938.799 3083.9 941.559 3082.04 943.783 3079.93 945.471 3077.81 947.158 3075.52 948.325 3073.04 948.971 3073.52 950.492 3073.96 951.747 3074.38 952.736 3074.8 953.726 3075.2 954.528 3075.58 955.143 3075.97 955.757 3076.35 956.216 3076.72 956.518 3077.1 956.82 3077.47 957.023 3077.85 957.127 3078.22 957.231 3078.66 957.283 3079.16 957.283 3079.95 957.283 3080.76 957.054 3081.57 956.596 3082.38 956.137 3083.29 955.346 3084.29 954.221L3085.91 955.971C3084.25 957.783 3082.69 959.065 3081.26 959.815 3079.82 960.565 3078.34 960.94 3076.82 960.94 3075.09 960.94 3073.68 960.554 3072.58 959.783 3071.49 959.012 3070.54 957.783 3069.74 956.096 3068.94 954.408 3068.16 952.2 3067.41 949.471 3063.64 949.262 3060.77 948.012 3058.79 945.721 3056.81 943.429 3055.82 940.2 3055.82 936.033 3055.82 932.908 3056.34 929.377 3057.4 925.44 3058.45 921.502 3059.97 918.028 3061.96 915.018 3063.95 912.007 3066.32 909.726 3069.08 908.174 3071.84 906.622 3074.85 905.846 3078.1 905.846Z" fill="#292934" fill-rule="evenodd"/><text fill="#000000" fill-opacity="0" font-family="Arial,Arial_MSFontService,sans-serif" font-size="55.0938" x="3055.82" y="954.053">𝑄</text><text fill="#292934" font-family="Arial,Arial_MSFontService,sans-serif" font-weight="400" font-size="64" transform="matrix(1 0 0 1 2604.88 1414)">Inverse demand curve:</text><path d="M2738.27 1490.13C2736.2 1490.13 2734.65 1490.17 2733.61 1490.25L2733.61 1509.16 2737.24 1509.16C2739.59 1509.16 2741.53 1508.85 2743.06 1508.24 2744.59 1507.62 2745.77 1506.6 2746.58 1505.17 2747.39 1503.75 2747.8 1501.86 2747.8 1499.5 2747.8 1497.71 2747.56 1496.21 2747.08 1495.02 2746.6 1493.82 2745.94 1492.86 2745.09 1492.13 2744.25 1491.4 2743.25 1490.88 2742.08 1490.58 2740.91 1490.28 2739.64 1490.13 2738.27 1490.13ZM2724.11 1487.38 2739.61 1487.38C2744.49 1487.38 2748.12 1488.31 2750.5 1490.17 2752.89 1492.04 2754.08 1494.88 2754.08 1498.69 2754.08 1500.86 2753.7 1502.8 2752.95 1504.53 2752.2 1506.26 2751.14 1507.68 2749.77 1508.78 2748.39 1509.89 2746.77 1510.68 2744.89 1511.16 2743.02 1511.64 2741.05 1511.88 2738.99 1511.88 2736.67 1511.88 2734.88 1511.83 2733.61 1511.75L2733.61 1522.13C2733.61 1523.36 2733.68 1524.33 2733.81 1525.06 2733.95 1525.79 2734.16 1526.37 2734.44 1526.8 2734.72 1527.22 2735.1 1527.56 2735.58 1527.8 2736.06 1528.04 2736.81 1528.27 2737.83 1528.5L2737.83 1530.03 2724.11 1530.03 2724.11 1528.5C2725.4 1528.17 2726.27 1527.8 2726.7 1527.39 2727.14 1526.99 2727.43 1526.41 2727.56 1525.66 2727.7 1524.91 2727.77 1523.76 2727.77 1522.22L2727.77 1495.19C2727.77 1493.75 2727.71 1492.7 2727.61 1492.05 2727.51 1491.39 2727.33 1490.88 2727.09 1490.52 2726.86 1490.15 2726.54 1489.86 2726.14 1489.64 2725.75 1489.42 2725.07 1489.18 2724.11 1488.91Z" fill="#292934" fill-rule="evenodd"/><text fill="#000000" fill-opacity="0" font-family="Arial,Arial_MSFontService,sans-serif" font-size="42.6562" x="2724.11" y="1524.7">P</text><path d="M2779.48 1516.16 2817.98 1516.16 2817.98 1520.31 2779.48 1520.31ZM2779.48 1503.19 2817.98 1503.19 2817.98 1507.34 2779.48 1507.34Z" fill="#292934" fill-rule="evenodd"/><text fill="#000000" fill-opacity="0" font-family="Arial,Arial_MSFontService,sans-serif" font-size="17.125" x="2779.48" y="1518.17">=</text><path d="M2894.75 1486.88C2898.62 1486.88 2901.55 1487.72 2903.53 1489.42 2905.51 1491.12 2906.5 1493.58 2906.5 1496.81 2906.5 1497.92 2906.39 1498.93 2906.17 1499.86 2905.95 1500.79 2905.61 1501.7 2905.14 1502.61 2904.67 1503.52 2904.04 1504.49 2903.25 1505.53 2902.46 1506.57 2901.58 1507.63 2900.62 1508.7 2899.66 1509.78 2898.01 1511.56 2895.65 1514.06 2891.7 1518.25 2888.79 1521.91 2886.94 1525.03L2898.72 1525.03C2899.74 1525.03 2900.56 1524.97 2901.19 1524.84 2901.81 1524.72 2902.31 1524.51 2902.69 1524.22 2903.06 1523.93 2903.36 1523.55 2903.58 1523.08 2903.79 1522.61 2904.07 1521.89 2904.4 1520.91L2907.06 1520.91 2906.53 1530.03 2880.81 1530.03 2880.81 1528.53C2881.71 1526.34 2882.91 1524.11 2884.44 1521.81 2885.96 1519.52 2888.11 1516.82 2890.9 1513.72 2893.32 1511.05 2895.06 1509.03 2896.12 1507.66 2897.29 1506.16 2898.16 1504.86 2898.73 1503.77 2899.31 1502.67 2899.72 1501.64 2899.97 1500.67 2900.22 1499.7 2900.34 1498.73 2900.34 1497.75 2900.34 1496.19 2900.09 1494.81 2899.59 1493.61 2899.09 1492.41 2898.33 1491.47 2897.29 1490.78 2896.26 1490.09 2894.97 1489.75 2893.4 1489.75 2889.51 1489.75 2886.88 1491.92 2885.53 1496.25L2881.75 1496.25 2881.75 1490.25C2884.27 1489.06 2886.63 1488.2 2888.83 1487.67 2891.02 1487.14 2893 1486.88 2894.75 1486.88ZM2860.97 1486.88 2862.69 1486.88C2862.56 1488.88 2862.5 1491.65 2862.5 1495.19L2862.5 1521.88C2862.5 1523.08 2862.57 1524 2862.7 1524.61 2862.84 1525.22 2863.08 1525.72 2863.42 1526.11 2863.76 1526.5 2864.26 1526.8 2864.9 1527.02 2865.55 1527.24 2866.36 1527.4 2867.34 1527.52 2868.32 1527.63 2869.61 1527.71 2871.22 1527.75L2871.22 1530.03 2848.12 1530.03 2848.12 1527.75C2850.44 1527.65 2852.09 1527.51 2853.08 1527.33 2854.07 1527.15 2854.82 1526.89 2855.34 1526.53 2855.86 1526.18 2856.24 1525.68 2856.48 1525.03 2856.72 1524.39 2856.84 1523.33 2856.84 1521.88L2856.84 1496.53C2856.84 1495.7 2856.7 1495.09 2856.4 1494.7 2856.11 1494.32 2855.69 1494.13 2855.12 1494.13 2854.46 1494.13 2853.51 1494.47 2852.28 1495.16 2851.05 1495.84 2849.53 1496.79 2847.72 1498L2846.34 1495.59Z" fill="#292934" fill-rule="evenodd"/><text fill="#000000" fill-opacity="0" font-family="Arial,Arial_MSFontService,sans-serif" font-size="43.1562" x="2846.34" y="1524.64">12</text><path d="M2945.05 1509.66 2983.55 1509.66 2983.55 1513.81 2945.05 1513.81Z" fill="#292934" fill-rule="evenodd"/><text fill="#000000" fill-opacity="0" font-family="Arial,Arial_MSFontService,sans-serif" font-size="4.15625" x="2945.05" y="1513.29">−</text><path d="M3040.73 1438.32 3042.44 1438.32C3042.32 1440.32 3042.26 1443.09 3042.26 1446.63L3042.26 1473.32C3042.26 1474.52 3042.32 1475.44 3042.46 1476.05 3042.59 1476.66 3042.83 1477.16 3043.18 1477.55 3043.52 1477.94 3044.02 1478.24 3044.66 1478.46 3045.31 1478.67 3046.12 1478.84 3047.1 1478.96 3048.08 1479.07 3049.37 1479.15 3050.98 1479.19L3050.98 1481.47 3027.88 1481.47 3027.88 1479.19C3030.19 1479.09 3031.84 1478.95 3032.83 1478.77 3033.82 1478.59 3034.58 1478.33 3035.1 1477.97 3035.62 1477.62 3036 1477.12 3036.24 1476.47 3036.48 1475.83 3036.6 1474.77 3036.6 1473.32L3036.6 1447.97C3036.6 1447.14 3036.45 1446.53 3036.16 1446.14 3035.87 1445.76 3035.44 1445.57 3034.88 1445.57 3034.21 1445.57 3033.27 1445.91 3032.04 1446.6 3030.81 1447.28 3029.29 1448.23 3027.48 1449.44L3026.1 1447.03Z" fill="#292934" fill-rule="evenodd"/><text fill="#000000" fill-opacity="0" font-family="Arial,Arial_MSFontService,sans-serif" font-size="43.1562" x="3026.1" y="1476.08">1</text><path d="M3056.5 1532.46C3055.06 1532.46 3053.86 1532.88 3052.89 1533.74 3051.92 1534.59 3051.14 1535.82 3050.54 1537.42 3049.95 1539.03 3049.53 1540.98 3049.28 1543.28 3049.03 1545.59 3048.9 1548.18 3048.9 1551.08 3048.9 1557.87 3049.53 1562.86 3050.79 1566.03 3052.05 1569.21 3054.01 1570.8 3056.65 1570.8 3059.17 1570.8 3061.04 1569.3 3062.26 1566.31 3063.48 1563.32 3064.09 1558.69 3064.09 1552.42 3064.09 1547.63 3063.78 1543.75 3063.15 1540.78 3062.53 1537.81 3061.66 1535.68 3060.54 1534.39 3059.43 1533.1 3058.08 1532.46 3056.5 1532.46ZM3056.65 1529.8C3061.21 1529.8 3064.61 1531.56 3066.84 1535.08 3069.07 1538.6 3070.18 1543.92 3070.18 1551.05 3070.18 1558.42 3068.99 1564 3066.61 1567.78 3064.22 1571.56 3060.74 1573.46 3056.15 1573.46 3051.65 1573.46 3048.3 1571.68 3046.11 1568.14 3043.91 1564.6 3042.81 1559.23 3042.81 1552.02 3042.81 1548.18 3043.15 1544.87 3043.82 1542.08 3044.5 1539.29 3045.45 1536.98 3046.67 1535.16 3047.89 1533.34 3049.35 1531.99 3051.06 1531.11 3052.77 1530.24 3054.63 1529.8 3056.65 1529.8ZM3029.5 1528.24 3031.93 1528.24 3031.46 1535.49 3013.5 1535.49 3013.5 1549.21C3014.58 1548.75 3015.76 1548.4 3017.03 1548.17 3018.3 1547.94 3019.57 1547.83 3020.84 1547.83 3023.32 1547.83 3025.52 1548.34 3027.43 1549.35 3029.35 1550.36 3030.83 1551.79 3031.87 1553.66 3032.91 1555.52 3033.43 1557.68 3033.43 1560.14 3033.43 1562.93 3032.85 1565.33 3031.68 1567.33 3030.52 1569.33 3028.83 1570.85 3026.62 1571.89 3024.41 1572.93 3021.8 1573.46 3018.78 1573.46 3015.17 1573.46 3011.4 1572.72 3007.46 1571.24L3007.46 1564.61 3011.25 1564.61C3011.87 1566.74 3012.81 1568.3 3014.07 1569.3 3015.33 1570.3 3016.96 1570.8 3018.96 1570.8 3021.74 1570.8 3023.83 1569.97 3025.25 1568.3 3026.66 1566.63 3027.37 1564.14 3027.37 1560.83 3027.37 1558.62 3027 1556.79 3026.25 1555.35 3025.5 1553.9 3024.49 1552.85 3023.21 1552.21 3021.94 1551.56 3020.46 1551.24 3018.78 1551.24 3017.36 1551.24 3016.14 1551.32 3015.12 1551.5 3014.1 1551.68 3013.01 1551.96 3011.84 1552.33L3009.34 1550.86 3009.34 1530.3 3026.56 1530.3C3027.27 1530.3 3027.78 1530.24 3028.09 1530.13 3028.4 1530.01 3028.65 1529.84 3028.84 1529.6 3029.03 1529.36 3029.25 1528.9 3029.5 1528.24Z" fill="#292934" fill-rule="evenodd"/><text fill="#000000" fill-opacity="0" font-family="Arial,Arial_MSFontService,sans-serif" font-size="45.2188" x="3007.46" y="1567.8">50</text><path d="M3003.11 1510.04 3074.11 1510.04 3074.11 1514.04 3003.11 1514.04Z" fill="#292934" fill-rule="evenodd"/><path d="M3110.68 1489.63C3108.43 1489.63 3106.33 1490.43 3104.38 1492.03 3102.43 1493.64 3100.72 1495.93 3099.26 1498.91 3097.79 1501.89 3096.65 1505.16 3095.83 1508.72 3095.02 1512.28 3094.61 1515.43 3094.61 1518.16 3094.61 1524.59 3096.96 1527.81 3101.65 1527.81 3104.54 1527.81 3107.2 1526.46 3109.61 1523.77 3112.03 1521.07 3113.98 1517.33 3115.46 1512.56 3116.94 1507.79 3117.68 1503.33 3117.68 1499.19 3117.68 1496.08 3117.1 1493.71 3115.96 1492.08 3114.81 1490.44 3113.05 1489.63 3110.68 1489.63ZM3111.02 1486.88C3115.04 1486.88 3118.14 1488.04 3120.32 1490.38 3122.49 1492.71 3123.58 1496.08 3123.58 1500.5 3123.58 1503.42 3123.13 1506.68 3122.21 1510.28 3121.29 1513.89 3120.03 1517.07 3118.43 1519.83 3116.82 1522.59 3114.96 1524.81 3112.85 1526.5 3110.73 1528.19 3108.44 1529.36 3105.96 1530 3106.44 1531.52 3106.89 1532.78 3107.3 1533.77 3107.72 1534.76 3108.12 1535.56 3108.51 1536.17 3108.89 1536.79 3109.27 1537.25 3109.65 1537.55 3110.02 1537.85 3110.4 1538.05 3110.77 1538.16 3111.15 1538.26 3111.58 1538.31 3112.08 1538.31 3112.88 1538.31 3113.68 1538.08 3114.49 1537.63 3115.3 1537.17 3116.21 1536.38 3117.21 1535.25L3118.83 1537C3117.17 1538.81 3115.61 1540.09 3114.18 1540.84 3112.74 1541.59 3111.26 1541.97 3109.74 1541.97 3108.01 1541.97 3106.6 1541.58 3105.51 1540.81 3104.41 1540.04 3103.46 1538.81 3102.66 1537.13 3101.86 1535.44 3101.08 1533.23 3100.33 1530.5 3096.56 1530.29 3093.69 1529.04 3091.71 1526.75 3089.73 1524.46 3088.74 1521.23 3088.74 1517.06 3088.74 1513.94 3089.27 1510.41 3090.32 1506.47 3091.37 1502.53 3092.89 1499.06 3094.88 1496.05 3096.87 1493.04 3099.24 1490.76 3102.01 1489.2 3104.77 1487.65 3107.77 1486.88 3111.02 1486.88Z" fill="#292934" fill-rule="evenodd"/><text fill="#000000" fill-opacity="0" font-family="Arial,Arial_MSFontService,sans-serif" font-size="55.0938" x="3088.74" y="1535.08">𝑄</text><text fill="#292934" font-family="Arial,Arial_MSFontService,sans-serif" font-weight="400" font-size="83" transform="matrix(1 0 0 1 1760.29 935)">12</text><text fill="#292934" font-family="Arial,Arial_MSFontService,sans-serif" font-weight="400" font-size="83" transform="matrix(1 0 0 1 1780.14 1804)">0</text></g></svg>