<svg width="2999" height="1393" xmlns="http://www.w3.org/2000/svg" xmlns:xlink="http://www.w3.org/1999/xlink" xml:space="preserve" overflow="hidden"><g transform="translate(-100 -1087)"><rect x="1942.5" y="1754.5" width="440" height="502" stroke="#292934" stroke-width="3.4375" stroke-linejoin="round" stroke-miterlimit="10" stroke-dasharray="13.75 10.3125" fill="#FF0000" fill-opacity="0.6"/><rect x="825" y="1736" width="82.9998" height="522" fill="#92D050" fill-opacity="0.4"/><rect x="251" y="1736" width="578" height="519" fill="#E9ECEB"/><text fill="#A6A6A6" font-family="Arial,Arial_MSFontService,sans-serif" font-weight="400" font-size="83" transform="matrix(1 0 0 1 434.716 1927)">TR(q)</text><text fill="#292934" font-family="Arial,Arial_MSFontService,sans-serif" font-weight="400" font-size="83" text-decoration="underline" transform="matrix(1 0 0 1 363 1197)">Perfectly Competitive Firm</text><text fill="#292934" font-family="Arial,Arial_MSFontService,sans-serif" font-weight="400" font-size="83" text-decoration="underline" transform="matrix(1 0 0 1 2178 1192)">Monopoly</text><path d="M248.5 1320.5 248.5 2255.5" stroke="#93A299" stroke-width="3.4375" stroke-linejoin="round" stroke-miterlimit="10" fill="none" fill-rule="evenodd"/><path d="M248.5 2255.5 1403.5 2255.5" stroke="#93A299" stroke-width="3.4375" stroke-linejoin="round" stroke-miterlimit="10" fill="none" fill-rule="evenodd"/><text fill="#292934" font-family="Arial,Arial_MSFontService,sans-serif" font-weight="400" font-size="83" transform="matrix(1 0 0 1 1243 2411)">q</text><path d="M1942.5 1320.5 1942.5 2255.5" stroke="#93A299" stroke-width="3.4375" stroke-linejoin="round" stroke-miterlimit="10" fill="none" fill-rule="evenodd"/><path d="M1942.5 2255.5 3097.5 2255.5" stroke="#93A299" stroke-width="3.4375" stroke-linejoin="round" stroke-miterlimit="10" fill="none" fill-rule="evenodd"/><text fill="#292934" font-family="Arial,Arial_MSFontService,sans-serif" font-weight="400" font-size="83" transform="matrix(1 0 0 1 1782.2 1609)">P</text><text fill="#292934" font-family="Arial,Arial_MSFontService,sans-serif" font-weight="400" font-size="83" transform="matrix(1 0 0 1 2937.2 2411)">q</text><path d="M247.5 1733.5 1322.93 1733.5" stroke="#93A299" stroke-width="3.4375" stroke-linejoin="round" stroke-miterlimit="10" fill="none" fill-rule="evenodd"/><path d="M0 0 0.000360892 522.5" stroke="#93A299" stroke-width="3.4375" stroke-linejoin="round" stroke-miterlimit="10" stroke-dasharray="13.75 10.3125" fill="none" fill-rule="evenodd" transform="matrix(1 0 0 -1 825.5 2256)"/><path d="M0 0 0.000360892 522.5" stroke="#93A299" stroke-width="3.4375" stroke-linejoin="round" stroke-miterlimit="10" stroke-dasharray="13.75 10.3125" fill="none" fill-rule="evenodd" transform="matrix(1 0 0 -1 908.5 2256)"/><path d="M855.204 1579.27 879.675 1762.81 876.268 1763.26 851.796 1579.73ZM890.995 1756.67 881 1785.75 863.736 1760.31Z" fill="#93A299"/><text fill="#292934" font-family="Arial,Arial_MSFontService,sans-serif" font-weight="400" font-size="55" transform="matrix(1 0 0 1 629.652 1471)">MR for a one unit </text><text fill="#292934" font-family="Arial,Arial_MSFontService,sans-serif" font-weight="400" font-size="55" transform="matrix(1 0 0 1 706.422 1537)">change in q</text><text fill="#292934" font-family="Arial,Arial_MSFontService,sans-serif" font-weight="400" font-size="55" transform="matrix(1 0 0 1 800.164 2325)">q</text><text fill="#292934" font-family="Arial,Arial_MSFontService,sans-serif" font-weight="400" font-size="55" transform="matrix(1 0 0 1 917.959 2325)">q+1</text><path d="M829.5 2308.78 889.838 2308.78 889.838 2312.22 829.5 2312.22ZM885.254 2296.75 912.754 2310.5 885.254 2324.25Z" fill="#93A299"/><path d="M1942.5 1402.5 3017.93 2255.56" stroke="#93A299" stroke-width="3.4375" stroke-linejoin="round" stroke-miterlimit="10" fill="none" fill-rule="evenodd"/><text fill="#292934" font-family="Arial,Arial_MSFontService,sans-serif" font-weight="400" font-size="55" transform="matrix(1 0 0 1 2353.75 2325)">q</text><text fill="#292934" font-family="Arial,Arial_MSFontService,sans-serif" font-weight="400" font-size="55" transform="matrix(1 0 0 1 2471.55 2325)">q+1</text><path d="M2382.5 2308.78 2442.84 2308.78 2442.84 2312.22 2382.5 2312.22ZM2438.25 2296.75 2465.75 2310.5 2438.25 2324.25Z" fill="#93A299"/><path d="M1.39835-0.999361 143.043 197.196 140.246 199.194-1.39835 0.999361ZM150.166 186.471 154.969 216.84 127.793 202.461Z" fill="#93A299" transform="matrix(-1 0 0 1 2383.47 1569.5)"/><path d="M1.01851-1.38446 211.513 153.47 209.476 156.239-1.01851 1.38446ZM214.95 141.063 228.954 168.435 198.654 163.214Z" fill="#93A299" transform="matrix(-1 0 0 1 2668.45 1828.5)"/><path d="M2303.65 1464.16C2301.98 1464.16 2300.22 1464.2 2298.39 1464.28L2292.87 1488.84 2297.09 1488.84C2300.36 1488.84 2303 1488.5 2305.01 1487.83 2307.03 1487.15 2308.67 1486.1 2309.96 1484.68 2311.24 1483.27 2312.23 1481.58 2312.94 1479.64 2313.64 1477.69 2313.99 1475.56 2313.99 1473.24 2313.99 1470.1 2313.19 1467.81 2311.6 1466.35 2310 1464.89 2307.36 1464.16 2303.65 1464.16ZM2286.67 1460.59 2304.55 1460.59C2307.76 1460.59 2310.4 1460.84 2312.47 1461.34 2314.54 1461.84 2316.24 1462.61 2317.58 1463.65 2318.91 1464.69 2319.91 1466.01 2320.57 1467.6 2321.24 1469.2 2321.57 1471.05 2321.57 1473.15 2321.57 1477.21 2320.61 1480.72 2318.69 1483.69 2316.77 1486.66 2314.17 1488.85 2310.89 1490.26 2307.61 1491.66 2303.67 1492.36 2299.08 1492.36 2296.32 1492.36 2294.02 1492.31 2292.19 1492.2L2289.59 1504.12C2289.35 1505.23 2289.18 1506.08 2289.09 1506.67 2288.99 1507.27 2288.91 1507.91 2288.84 1508.6 2288.77 1509.29 2288.74 1509.9 2288.74 1510.44 2288.74 1511.28 2288.88 1511.93 2289.15 1512.41 2289.42 1512.88 2289.82 1513.22 2290.36 1513.44 2290.9 1513.66 2291.83 1513.82 2293.16 1513.93L2292.71 1515.91 2276.06 1515.91 2276.5 1513.93C2277.53 1513.76 2278.3 1513.5 2278.81 1513.14 2279.32 1512.77 2279.76 1512.26 2280.11 1511.62 2280.46 1510.97 2280.78 1510.18 2281.08 1509.24 2281.38 1508.31 2281.82 1506.51 2282.42 1503.83L2289.31 1472.63C2289.9 1469.93 2290.2 1467.79 2290.2 1466.22 2290.2 1464.9 2289.89 1463.98 2289.27 1463.47 2288.65 1462.96 2287.63 1462.66 2286.23 1462.58Z" fill="#292934" fill-rule="evenodd"/><text fill="#000000" fill-opacity="0" font-family="Arial,Arial_MSFontService,sans-serif" font-size="55.3198" x="2276.06" y="1509">𝑃</text><path d="M2336.74 1454.65 2344.3 1454.65 2344.3 1456.94 2334.54 1480.4 2331.12 1479.38Z" fill="#292934" fill-rule="evenodd"/><text fill="#000000" fill-opacity="0" font-family="Arial,Arial_MSFontService,sans-serif" font-size="25.752" x="2331.12" y="1477.19">′</text><path d="M2435.42 1453.8C2443.31 1455.88 2449.37 1460.37 2453.6 1467.27 2457.83 1474.18 2459.94 1482.5 2459.94 1492.26 2459.94 1502.04 2457.83 1510.37 2453.62 1517.24 2449.4 1524.12 2443.34 1528.6 2435.42 1530.68L2434.45 1527.56C2440.69 1525.48 2445.33 1521.37 2448.37 1515.24 2451.41 1509.1 2452.93 1501.31 2452.93 1491.85 2452.93 1482.72 2451.42 1475.13 2448.39 1469.1 2445.36 1463.06 2440.68 1459 2434.33 1456.92ZM2383.18 1453.8 2384.27 1456.92C2377.95 1459 2373.27 1463.06 2370.23 1469.1 2367.19 1475.13 2365.67 1482.72 2365.67 1491.85 2365.67 1501.31 2367.19 1509.1 2370.23 1515.24 2373.27 1521.37 2377.91 1525.48 2384.15 1527.56L2383.18 1530.68C2375.26 1528.6 2369.2 1524.12 2364.98 1517.24 2360.77 1510.37 2358.66 1502.04 2358.66 1492.26 2358.66 1482.5 2360.77 1474.18 2365 1467.27 2369.23 1460.37 2375.29 1455.88 2383.18 1453.8Z" fill="#292934" fill-rule="evenodd"/><path d="M2411.5 1479.68C2408.74 1479.68 2406.27 1480.79 2404.08 1483.02 2401.89 1485.25 2400.17 1488.26 2398.92 1492.04 2397.66 1495.82 2397.03 1499.59 2397.03 1503.35 2397.03 1506.16 2397.42 1508.26 2398.19 1509.65 2398.96 1511.04 2400.25 1511.74 2402.06 1511.74 2402.89 1511.74 2403.74 1511.55 2404.61 1511.19 2405.47 1510.83 2406.37 1510.24 2407.3 1509.43 2408.24 1508.62 2409.16 1507.63 2410.06 1506.47 2410.97 1505.31 2411.8 1504.14 2412.55 1502.96 2413.31 1501.79 2414.01 1500.4 2414.66 1498.79 2415.31 1497.18 2415.86 1495.24 2416.32 1492.97L2416.69 1491.23C2417.09 1489.28 2417.29 1487.45 2417.29 1485.72 2417.29 1483.61 2416.85 1482.08 2415.96 1481.12 2415.07 1480.16 2413.58 1479.68 2411.5 1479.68ZM2410.77 1476.48C2412.44 1476.48 2414.04 1476.67 2415.55 1477.07 2417.06 1477.46 2418.63 1478.15 2420.25 1479.15L2423.98 1476.48 2426.58 1477.13 2416.2 1523.21C2415.74 1525.26 2415.51 1526.8 2415.51 1527.83 2415.51 1529.02 2415.82 1529.86 2416.42 1530.36 2417.03 1530.86 2418.23 1531.19 2420.01 1531.35L2419.65 1533.34 2407 1533.34 2413.97 1506.75 2413.4 1506.51C2411.08 1509.78 2408.71 1512.26 2406.29 1513.97 2403.87 1515.67 2401.52 1516.52 2399.22 1516.52 2396.25 1516.52 2393.94 1515.4 2392.31 1513.16 2390.67 1510.91 2389.86 1507.77 2389.86 1503.71 2389.86 1499.07 2390.77 1494.6 2392.59 1490.32 2394.42 1486.04 2396.92 1482.66 2400.11 1480.19 2403.3 1477.71 2406.85 1476.48 2410.77 1476.48Z" fill="#292934" fill-rule="evenodd"/><text fill="#000000" fill-opacity="0" font-family="Arial,Arial_MSFontService,sans-serif" font-size="56.8599" x="2389.86" y="1526.23">𝑞</text><path d="M2502.74 1476.88 2508.09 1476.88 2506.92 1489.57 2517.33 1482.23 2519.97 1486.77 2508.42 1492.16 2519.97 1497.59 2517.33 1502.09 2506.92 1494.76 2508.09 1507.44 2502.74 1507.44 2503.96 1494.76 2493.5 1502.09 2490.83 1497.59 2502.42 1492.16 2490.83 1486.77 2493.5 1482.23 2503.96 1489.57Z" fill="#292934" fill-rule="evenodd"/><text fill="#000000" fill-opacity="0" font-family="Arial,Arial_MSFontService,sans-serif" font-size="30.5576" x="2490.83" y="1503.62">∗</text><path d="M2569.69 1479.68C2566.94 1479.68 2564.46 1480.79 2562.28 1483.02 2560.09 1485.25 2558.37 1488.26 2557.11 1492.04 2555.85 1495.82 2555.22 1499.59 2555.22 1503.35 2555.22 1506.16 2555.61 1508.26 2556.38 1509.65 2557.15 1511.04 2558.44 1511.74 2560.25 1511.74 2561.09 1511.74 2561.94 1511.55 2562.8 1511.19 2563.67 1510.83 2564.57 1510.24 2565.5 1509.43 2566.43 1508.62 2567.35 1507.63 2568.25 1506.47 2569.16 1505.31 2569.99 1504.14 2570.75 1502.96 2571.5 1501.79 2572.21 1500.4 2572.85 1498.79 2573.5 1497.18 2574.06 1495.24 2574.52 1492.97L2574.88 1491.23C2575.29 1489.28 2575.49 1487.45 2575.49 1485.72 2575.49 1483.61 2575.04 1482.08 2574.15 1481.12 2573.26 1480.16 2571.77 1479.68 2569.69 1479.68ZM2568.96 1476.48C2570.64 1476.48 2572.23 1476.67 2573.75 1477.07 2575.26 1477.46 2576.83 1478.15 2578.45 1479.15L2582.18 1476.48 2584.77 1477.13 2574.39 1523.21C2573.93 1525.26 2573.7 1526.8 2573.7 1527.83 2573.7 1529.02 2574.01 1529.86 2574.62 1530.36 2575.22 1530.86 2576.42 1531.19 2578.2 1531.35L2577.84 1533.34 2565.19 1533.34 2572.16 1506.75 2571.6 1506.51C2569.27 1509.78 2566.9 1512.26 2564.48 1513.97 2562.07 1515.67 2559.71 1516.52 2557.41 1516.52 2554.44 1516.52 2552.14 1515.4 2550.5 1513.16 2548.87 1510.91 2548.05 1507.77 2548.05 1503.71 2548.05 1499.07 2548.96 1494.6 2550.79 1490.32 2552.61 1486.04 2555.12 1482.66 2558.3 1480.19 2561.49 1477.71 2565.05 1476.48 2568.96 1476.48Z" fill="#292934" fill-rule="evenodd"/><text fill="#000000" fill-opacity="0" font-family="Arial,Arial_MSFontService,sans-serif" font-size="56.8599" x="2548.05" y="1526.23">𝑞</text><path d="M2685.64 1720.36C2683.97 1720.36 2682.21 1720.4 2680.38 1720.48L2674.86 1745.04 2679.08 1745.04C2682.35 1745.04 2684.99 1744.7 2687 1744.03 2689.02 1743.35 2690.66 1742.3 2691.95 1740.89 2693.23 1739.47 2694.22 1737.79 2694.93 1735.84 2695.63 1733.89 2695.98 1731.76 2695.98 1729.44 2695.98 1726.3 2695.18 1724.01 2693.59 1722.55 2691.99 1721.09 2689.35 1720.36 2685.64 1720.36ZM2668.66 1716.79 2686.54 1716.79C2689.75 1716.79 2692.39 1717.04 2694.46 1717.54 2696.53 1718.04 2698.23 1718.81 2699.57 1719.85 2700.9 1720.89 2701.9 1722.21 2702.56 1723.8 2703.23 1725.4 2703.56 1727.25 2703.56 1729.36 2703.56 1733.41 2702.6 1736.92 2700.68 1739.89 2698.76 1742.86 2696.16 1745.05 2692.88 1746.46 2689.6 1747.86 2685.66 1748.57 2681.07 1748.57 2678.31 1748.57 2676.01 1748.51 2674.18 1748.4L2671.58 1760.32C2671.34 1761.43 2671.17 1762.28 2671.08 1762.87 2670.98 1763.47 2670.9 1764.11 2670.83 1764.8 2670.76 1765.49 2670.73 1766.1 2670.73 1766.64 2670.73 1767.48 2670.87 1768.13 2671.14 1768.61 2671.41 1769.08 2671.81 1769.42 2672.35 1769.64 2672.89 1769.86 2673.82 1770.02 2675.15 1770.13L2674.7 1772.11 2658.05 1772.11 2658.49 1770.13C2659.52 1769.96 2660.29 1769.7 2660.8 1769.34 2661.31 1768.97 2661.75 1768.46 2662.1 1767.82 2662.45 1767.17 2662.77 1766.38 2663.07 1765.45 2663.37 1764.51 2663.81 1762.71 2664.41 1760.03L2671.3 1728.83C2671.89 1726.13 2672.19 1723.99 2672.19 1722.43 2672.19 1721.1 2671.88 1720.18 2671.26 1719.67 2670.64 1719.16 2669.62 1718.86 2668.22 1718.78Z" fill="#292934" fill-rule="evenodd"/><text fill="#000000" fill-opacity="0" font-family="Arial,Arial_MSFontService,sans-serif" font-size="55.3198" x="2658.05" y="1765.2">𝑃</text><path d="M2740.56 1713.55 2741.65 1716.67C2735.33 1718.75 2730.65 1722.81 2727.61 1728.85 2724.57 1734.89 2723.05 1742.47 2723.05 1751.61 2723.05 1761.06 2724.57 1768.86 2727.61 1774.99 2730.65 1781.12 2735.29 1785.23 2741.53 1787.31L2740.56 1790.43C2732.64 1788.35 2726.57 1783.87 2722.36 1777 2718.14 1770.12 2716.04 1761.79 2716.04 1752.01 2716.04 1742.26 2718.15 1733.93 2722.38 1727.03 2726.61 1720.12 2732.67 1715.63 2740.56 1713.55Z" fill="#292934" fill-rule="evenodd"/><text fill="#000000" fill-opacity="0" font-family="Arial,Arial_MSFontService,sans-serif" font-size="76.8804" x="2716.04" y="1780.82">(</text><path d="M2769.01 1735.88C2766.26 1735.88 2763.79 1736.99 2761.6 1739.22 2759.41 1741.45 2757.69 1744.46 2756.43 1748.24 2755.17 1752.02 2754.55 1755.79 2754.55 1759.55 2754.55 1762.36 2754.93 1764.46 2755.7 1765.85 2756.47 1767.24 2757.76 1767.94 2759.57 1767.94 2760.41 1767.94 2761.26 1767.76 2762.12 1767.39 2762.99 1767.03 2763.89 1766.44 2764.82 1765.63 2765.75 1764.82 2766.67 1763.83 2767.58 1762.67 2768.48 1761.51 2769.31 1760.34 2770.07 1759.16 2770.82 1757.99 2771.53 1756.6 2772.18 1754.99 2772.82 1753.38 2773.38 1751.44 2773.84 1749.17L2774.2 1747.43C2774.61 1745.49 2774.81 1743.65 2774.81 1741.92 2774.81 1739.81 2774.36 1738.28 2773.47 1737.32 2772.58 1736.36 2771.09 1735.88 2769.01 1735.88ZM2768.28 1732.68C2769.96 1732.68 2771.55 1732.87 2773.07 1733.27 2774.58 1733.66 2776.15 1734.35 2777.77 1735.35L2781.5 1732.68 2784.09 1733.33 2773.72 1779.41C2773.26 1781.46 2773.03 1783 2773.03 1784.03 2773.03 1785.22 2773.33 1786.06 2773.94 1786.56 2774.55 1787.06 2775.74 1787.39 2777.52 1787.55L2777.16 1789.54 2764.52 1789.54 2771.49 1762.95 2770.92 1762.71C2768.6 1765.98 2766.22 1768.46 2763.81 1770.17 2761.39 1771.87 2759.03 1772.72 2756.73 1772.72 2753.76 1772.72 2751.46 1771.6 2749.82 1769.36 2748.19 1767.11 2747.37 1763.97 2747.37 1759.91 2747.37 1755.27 2748.28 1750.8 2750.11 1746.52 2751.93 1742.24 2754.44 1738.86 2757.63 1736.39 2760.81 1733.91 2764.37 1732.68 2768.28 1732.68Z" fill="#292934" fill-rule="evenodd"/><text fill="#000000" fill-opacity="0" font-family="Arial,Arial_MSFontService,sans-serif" font-size="56.8599" x="2747.37" y="1782.43">𝑞</text><path d="M2792.94 1713.55C2800.83 1715.63 2806.88 1720.12 2811.11 1727.03 2815.34 1733.93 2817.46 1742.26 2817.46 1752.01 2817.46 1761.79 2815.35 1770.12 2811.13 1777 2806.92 1783.87 2800.85 1788.35 2792.94 1790.43L2791.96 1787.31C2798.21 1785.23 2802.85 1781.12 2805.89 1774.99 2808.92 1768.86 2810.44 1761.06 2810.44 1751.61 2810.44 1742.47 2808.93 1734.89 2805.91 1728.85 2802.88 1722.81 2798.19 1718.75 2791.84 1716.67Z" fill="#292934" fill-rule="evenodd"/><text fill="#000000" fill-opacity="0" font-family="Arial,Arial_MSFontService,sans-serif" font-size="76.8804" x="2791.84" y="1780.82">)</text><rect x="1940.5" y="1835.5" width="533" height="422" stroke="#292934" stroke-width="3.4375" stroke-linejoin="round" stroke-miterlimit="10" stroke-dasharray="13.75 10.3125" fill="#92D050" fill-opacity="0.6"/><text fill="#292934" font-family="Arial,Arial_MSFontService,sans-serif" font-weight="400" font-size="50" transform="matrix(1 0 0 1 1104.63 1640)">Demand curve </text><text fill="#292934" font-family="Arial,Arial_MSFontService,sans-serif" font-weight="400" font-size="50" transform="matrix(1 0 0 1 1104.63 1701)">for PC firm</text><text fill="#292934" font-family="Arial,Arial_MSFontService,sans-serif" font-weight="400" font-size="83" transform="matrix(1 0 0 1 2901.56 2111)">D</text><text fill="#292934" font-family="Arial,Arial_MSFontService,sans-serif" font-weight="400" font-size="83" transform="matrix(1 0 0 1 2121.92 1829)">B</text><text fill="#292934" font-family="Arial,Arial_MSFontService,sans-serif" font-weight="400" font-size="83" transform="matrix(1 0 0 1 2405.43 2113)">A</text><text fill="#292934" font-family="Arial,Arial_MSFontService,sans-serif" font-weight="400" font-size="83" transform="matrix(1 0 0 1 149.83 1759)">p</text><text fill="#292934" font-family="Arial,Arial_MSFontService,sans-serif" font-weight="400" font-size="55" transform="matrix(1 0 0 1 195.663 1779)">1</text><text fill="#292934" font-family="Arial,Arial_MSFontService,sans-serif" font-weight="400" font-size="64" transform="matrix(1 0 0 1 1848 1756)">p</text><text fill="#292934" font-family="Arial,Arial_MSFontService,sans-serif" font-weight="400" font-size="43" transform="matrix(1 0 0 1 1883.52 1771)">1</text><text fill="#292934" font-family="Arial,Arial_MSFontService,sans-serif" font-weight="400" font-size="64" transform="matrix(1 0 0 1 1841.91 1866)">p</text><text fill="#292934" font-family="Arial,Arial_MSFontService,sans-serif" font-weight="400" font-size="43" transform="matrix(1 0 0 1 1877.43 1881)">2</text><path d="M1872.22 1760.5 1872.22 1794.47 1868.78 1794.47 1868.78 1760.5ZM1884.25 1789.89 1870.5 1817.39 1856.75 1789.89Z" fill="#93A299"/></g></svg>