<svg width="3106" height="1375" xmlns="http://www.w3.org/2000/svg" xmlns:xlink="http://www.w3.org/1999/xlink" xml:space="preserve" overflow="hidden"><defs><clipPath id="clip0"><rect x="55" y="1073" width="3106" height="1375"/></clipPath></defs><g clip-path="url(#clip0)" transform="translate(-55 -1073)"><rect x="55" y="1073" width="3106" height="1375" fill="#FFFFFF"/><path d="M362.5 1322.5 362.501 2229.5" stroke="#292934" stroke-width="3.4375" stroke-linejoin="round" stroke-miterlimit="10" fill="none" fill-rule="evenodd"/><path d="M362.5 2229.5 1352.5 2229.5" stroke="#292934" stroke-width="3.4375" stroke-linejoin="round" stroke-miterlimit="10" fill="none" fill-rule="evenodd"/><text fill="#292934" font-family="Arial,Arial_MSFontService,sans-serif" font-weight="700" font-size="83" transform="matrix(1 0 0 1 230.119 1473)">P</text><text fill="#292934" font-family="Arial,Arial_MSFontService,sans-serif" font-weight="700" font-size="83" transform="matrix(1 0 0 1 1247.62 2353)">q</text><path d="M1763.5 1267.5 1765.5 2229.5" stroke="#292934" stroke-width="3.4375" stroke-linejoin="round" stroke-miterlimit="10" fill="none" fill-rule="evenodd"/><path d="M1765.5 2229.5 2755.5 2229.5" stroke="#292934" stroke-width="3.4375" stroke-linejoin="round" stroke-miterlimit="10" fill="none" fill-rule="evenodd"/><text fill="#292934" font-family="Arial,Arial_MSFontService,sans-serif" font-weight="700" font-size="83" transform="matrix(1 0 0 1 1683.04 1389)">P</text><text fill="#292934" font-family="Arial,Arial_MSFontService,sans-serif" font-weight="700" font-size="83" transform="matrix(1 0 0 1 2650.12 2353)">Q</text><text fill="#292934" font-family="Arial,Arial_MSFontService,sans-serif" font-weight="700" font-size="83" text-decoration="underline" transform="matrix(1 0 0 1 560.119 1281)">Individual Firm</text><text fill="#292934" font-family="Arial,Arial_MSFontService,sans-serif" font-weight="700" font-size="83" text-decoration="underline" transform="matrix(1 0 0 1 2219.61 1285)">Market</text><path d="M1771.5 1347.5 2670.5 2037.5" stroke="#292934" stroke-width="3.4375" stroke-linejoin="round" stroke-miterlimit="10" fill="none" fill-rule="evenodd"/><path d="M0 0 977 749" stroke="#292934" stroke-width="3.4375" stroke-linejoin="round" stroke-miterlimit="10" fill="none" fill-rule="evenodd" transform="matrix(1 0 0 -1 1766.5 2220.5)"/><path d="M0 0 1980 0.000360892" stroke="#292934" stroke-width="3.4375" stroke-linejoin="round" stroke-miterlimit="10" stroke-dasharray="13.75 10.3125" fill="none" fill-rule="evenodd" transform="matrix(-1 0 0 1 2342.5 1789.5)"/><path d="M362.5 1789.5 1325.5 1789.5" stroke="#292934" stroke-width="3.4375" stroke-linejoin="round" stroke-miterlimit="10" fill="none" fill-rule="evenodd"/><text fill="#292934" font-family="Arial,Arial_MSFontService,sans-serif" font-weight="400" font-size="83" transform="matrix(1 0 0 1 1283.14 1893)">MR</text><path d="M747 1786C747 1780.48 752.373 1776 759 1776 765.627 1776 771 1780.48 771 1786 771 1791.52 765.627 1796 759 1796 752.373 1796 747 1791.52 747 1786Z" stroke="#6B766F" stroke-width="9.53658" stroke-linejoin="round" stroke-miterlimit="10" fill="#93A299" fill-rule="evenodd"/><text fill="#292934" font-family="Arial,Arial_MSFontService,sans-serif" font-weight="400" font-size="83" transform="matrix(1 0 0 1 171.759 1826)">P=6</text><text fill="#292934" font-family="Arial,Arial_MSFontService,sans-serif" font-weight="400" font-size="83" transform="matrix(1 0 0 1 671.764 2333)">q*=3</text><path d="M758.5 1796.5 758.501 2229.62" stroke="#93A299" stroke-width="3.4375" stroke-linejoin="round" stroke-miterlimit="10" fill="none" fill-rule="evenodd"/><path d="M0 0 585 0.000360892" stroke="#292934" stroke-width="3.4375" stroke-linejoin="round" stroke-miterlimit="10" stroke-dasharray="13.75 10.3125" fill="none" fill-rule="evenodd" transform="matrix(-1 0 0 1 2342.5 1789.5)"/><path d="M2335.5 2244.5 2335.5 1786.5" stroke="#292934" stroke-width="3.4375" stroke-linejoin="round" stroke-miterlimit="10" stroke-dasharray="13.75 10.3125" fill="none" fill-rule="evenodd"/><path d="M0 0 708.984 786.042" stroke="#93A299" stroke-width="3.4375" stroke-linejoin="round" stroke-miterlimit="10" fill="none" fill-rule="evenodd" transform="matrix(1 0 0 -1 362.5 2229.54)"/><text fill="#292934" font-family="Arial,Arial_MSFontService,sans-serif" font-weight="400" font-size="83" transform="matrix(1 0 0 1 2228.95 2356)">Q=300</text><text fill="#292934" font-family="Arial,Arial_MSFontService,sans-serif" font-weight="400" font-size="83" transform="matrix(1 0 0 1 2736.22 2114)">D</text><text fill="#292934" font-family="Arial,Arial_MSFontService,sans-serif" font-weight="400" font-size="83" transform="matrix(1 0 0 1 2794.86 1480)">S</text><text fill="#292934" font-family="Arial,Arial_MSFontService,sans-serif" font-weight="400" font-size="83" transform="matrix(1 0 0 1 1094.71 1448)">MC</text><path d="M535 1516C584.828 1648 634.656 1780 748.549 1787.77 862.443 1795.53 1132.29 1605.3 1218.36 1562.59 1304.42 1519.88 1284.69 1525.71 1264.95 1531.53" stroke="#6B766F" stroke-width="9.53658" stroke-linejoin="round" stroke-miterlimit="10" fill="none" fill-rule="evenodd"/><text fill="#292934" font-family="Arial,Arial_MSFontService,sans-serif" font-weight="400" font-size="83" transform="matrix(1 0 0 1 1277.85 1481)">AC = TC/q</text></g></svg>