<svg width="1535" height="1443" xmlns="http://www.w3.org/2000/svg" xmlns:xlink="http://www.w3.org/1999/xlink" xml:space="preserve" overflow="hidden"><g transform="translate(-1710 -734)"><rect x="1998.5" y="1450.5" width="464" height="426" stroke="#D2533C" stroke-width="3.4375" stroke-linejoin="round" stroke-miterlimit="10" stroke-dasharray="13.75 10.3125" fill="none"/><text fill="#292934" font-family="Arial,Arial_MSFontService,sans-serif" font-weight="400" font-size="83" text-decoration="underline" transform="matrix(1 0 0 1 2398 839)">Monopoly</text><path d="M1997.5 941.5 1997.5 1876.5" stroke="#93A299" stroke-width="3.4375" stroke-linejoin="round" stroke-miterlimit="10" fill="none" fill-rule="evenodd"/><path d="M1997.5 1876.5 3152.5 1876.5" stroke="#93A299" stroke-width="3.4375" stroke-linejoin="round" stroke-miterlimit="10" fill="none" fill-rule="evenodd"/><text fill="#292934" font-family="Arial,Arial_MSFontService,sans-serif" font-weight="400" font-size="83" transform="matrix(1 0 0 1 1759.58 1168)">P</text><text fill="#292934" font-family="Arial,Arial_MSFontService,sans-serif" font-weight="400" font-size="83" transform="matrix(1 0 0 1 3069.28 2108)">q</text><path d="M1997.5 1023.5 2924.21 1876.56" stroke="#93A299" stroke-width="3.4375" stroke-linejoin="round" stroke-miterlimit="10" fill="none" fill-rule="evenodd"/><text fill="#292934" font-family="Arial,Arial_MSFontService,sans-serif" font-weight="400" font-size="83" transform="matrix(1 0 0 1 2888.81 1789)">D</text><text fill="#292934" font-family="Arial,Arial_MSFontService,sans-serif" font-weight="400" font-size="83" transform="matrix(1 0 0 1 1835.01 1052)">100</text><text fill="#292934" font-family="Arial,Arial_MSFontService,sans-serif" font-weight="400" font-size="83" transform="matrix(1 0 0 1 2865.5 1969)">100</text><path d="M1997.5 1023.5 2490.46 1876.56" stroke="#93A299" stroke-width="3.4375" stroke-linejoin="round" stroke-miterlimit="10" fill="none" fill-rule="evenodd"/><text fill="#292934" font-family="Arial,Arial_MSFontService,sans-serif" font-weight="400" font-size="83" transform="matrix(1 0 0 1 2691.66 1290)">MC</text><path d="M0 0 664.813 495" stroke="#93A299" stroke-width="3.4375" stroke-linejoin="round" stroke-miterlimit="10" fill="none" fill-rule="evenodd" transform="matrix(-1 0 0 1 2673.31 1295.5)"/><rect x="1997.5" y="1322.5" width="313" height="554" stroke="#6B766F" stroke-width="3.4375" stroke-linejoin="round" stroke-miterlimit="10" stroke-dasharray="13.75 10.3125" fill="none"/><text fill="#292934" font-family="Arial,Arial_MSFontService,sans-serif" font-weight="400" font-size="83" transform="matrix(1 0 0 1 2283.85 1965)">30</text><text fill="#292934" font-family="Arial,Arial_MSFontService,sans-serif" font-weight="400" font-size="83" transform="matrix(1 0 0 1 1872.41 1361)">70</text><text fill="#FF0000" font-family="Arial,Arial_MSFontService,sans-serif" font-weight="400" font-size="83" transform="matrix(1 0 0 1 1872.41 1474)">55</text><text fill="#FF0000" font-family="Arial,Arial_MSFontService,sans-serif" font-weight="400" font-size="83" transform="matrix(1 0 0 1 2415.05 1967)">45</text></g></svg>