<svg width="1899" height="1246" xmlns="http://www.w3.org/2000/svg" xmlns:xlink="http://www.w3.org/1999/xlink" xml:space="preserve" overflow="hidden"><g transform="translate(-692 -1036)"><path d="M994.5 1123.5 996.5 2086.5" stroke="#292934" stroke-width="3.4375" stroke-linejoin="round" stroke-miterlimit="10" fill="none" fill-rule="evenodd"/><path d="M996.5 2086.5 2176.5 2086.5" stroke="#292934" stroke-width="3.4375" stroke-linejoin="round" stroke-miterlimit="10" fill="none" fill-rule="evenodd"/><text fill="#292934" font-family="Arial,Arial_MSFontService,sans-serif" font-weight="700" font-size="83" transform="matrix(1 0 0 1 742.04 1239)">P</text><text fill="#292934" font-family="Arial,Arial_MSFontService,sans-serif" font-weight="700" font-size="83" transform="matrix(1 0 0 1 1881.51 2210)">Q</text><text fill="#292934" font-family="Arial,Arial_MSFontService,sans-serif" font-weight="700" font-size="83" text-decoration="underline" transform="matrix(1 0 0 1 1451.01 1142)">Market</text><path d="M1002.5 1204.5 2121.5 2077.5" stroke="#292934" stroke-width="3.4375" stroke-linejoin="round" stroke-miterlimit="10" fill="none" fill-rule="evenodd"/><path d="M0 0 976 749" stroke="#292934" stroke-width="3.4375" stroke-linejoin="round" stroke-miterlimit="10" fill="none" fill-rule="evenodd" transform="matrix(1 0 0 -1 998.5 2077.5)"/><text fill="#292934" font-family="Arial,Arial_MSFontService,sans-serif" font-weight="400" font-size="64" transform="matrix(1 0 0 1 1848.42 1154)">Inverse supply curve:</text><path d="M2027.72 1229.98C2025.65 1229.98 2024.1 1230.03 2023.06 1230.11L2023.06 1249.02 2026.68 1249.02C2029.04 1249.02 2030.98 1248.71 2032.51 1248.09 2034.04 1247.48 2035.22 1246.46 2036.03 1245.03 2036.84 1243.6 2037.25 1241.71 2037.25 1239.36 2037.25 1237.57 2037.01 1236.07 2036.53 1234.88 2036.05 1233.68 2035.39 1232.71 2034.54 1231.98 2033.7 1231.26 2032.69 1230.74 2031.53 1230.44 2030.36 1230.14 2029.09 1229.98 2027.72 1229.98ZM2013.56 1227.23 2029.06 1227.23C2033.93 1227.23 2037.56 1228.17 2039.95 1230.03 2042.34 1231.9 2043.53 1234.73 2043.53 1238.55 2043.53 1240.71 2043.15 1242.66 2042.4 1244.39 2041.65 1246.12 2040.59 1247.54 2039.22 1248.64 2037.84 1249.75 2036.22 1250.54 2034.34 1251.02 2032.47 1251.5 2030.5 1251.73 2028.43 1251.73 2026.12 1251.73 2024.33 1251.69 2023.06 1251.61L2023.06 1261.98C2023.06 1263.21 2023.13 1264.19 2023.26 1264.92 2023.4 1265.65 2023.61 1266.23 2023.89 1266.66 2024.17 1267.08 2024.55 1267.42 2025.03 1267.66 2025.51 1267.9 2026.26 1268.13 2027.28 1268.36L2027.28 1269.89 2013.56 1269.89 2013.56 1268.36C2014.85 1268.03 2015.72 1267.66 2016.15 1267.25 2016.59 1266.84 2016.88 1266.27 2017.01 1265.52 2017.15 1264.77 2017.22 1263.62 2017.22 1262.08L2017.22 1235.05C2017.22 1233.61 2017.16 1232.56 2017.06 1231.91 2016.96 1231.25 2016.78 1230.74 2016.54 1230.38 2016.3 1230.01 2015.99 1229.72 2015.59 1229.5 2015.19 1229.28 2014.52 1229.04 2013.56 1228.77Z" fill="#292934" fill-rule="evenodd"/><text fill="#000000" fill-opacity="0" font-family="Arial,Arial_MSFontService,sans-serif" font-size="42.6562" x="2013.56" y="1264.56">P</text><path d="M2068.93 1256.02 2107.43 1256.02 2107.43 1260.17 2068.93 1260.17ZM2068.93 1243.05 2107.43 1243.05 2107.43 1247.2 2068.93 1247.2Z" fill="#292934" fill-rule="evenodd"/><text fill="#000000" fill-opacity="0" font-family="Arial,Arial_MSFontService,sans-serif" font-size="17.125" x="2068.93" y="1258.03">=</text><path d="M2168.18 1178.17 2169.89 1178.17C2169.77 1180.17 2169.71 1182.95 2169.71 1186.49L2169.71 1213.17C2169.71 1214.38 2169.77 1215.29 2169.91 1215.91 2170.05 1216.52 2170.29 1217.02 2170.63 1217.41 2170.97 1217.79 2171.47 1218.1 2172.11 1218.32 2172.76 1218.53 2173.57 1218.7 2174.55 1218.82 2175.53 1218.93 2176.82 1219.01 2178.43 1219.05L2178.43 1221.33 2155.33 1221.33 2155.33 1219.05C2157.64 1218.95 2159.3 1218.8 2160.29 1218.63 2161.27 1218.45 2162.03 1218.18 2162.55 1217.83 2163.07 1217.48 2163.45 1216.98 2163.69 1216.33 2163.93 1215.68 2164.05 1214.63 2164.05 1213.17L2164.05 1187.83C2164.05 1187 2163.91 1186.39 2163.61 1186 2163.32 1185.62 2162.89 1185.42 2162.33 1185.42 2161.67 1185.42 2160.72 1185.77 2159.49 1186.46 2158.26 1187.14 2156.74 1188.09 2154.93 1189.3L2153.55 1186.89Z" fill="#292934" fill-rule="evenodd"/><text fill="#000000" fill-opacity="0" font-family="Arial,Arial_MSFontService,sans-serif" font-size="43.1562" x="2153.55" y="1215.94">1</text><path d="M2183.95 1272.31C2182.51 1272.31 2181.31 1272.74 2180.34 1273.6 2179.37 1274.45 2178.59 1275.68 2177.99 1277.28 2177.4 1278.89 2176.98 1280.84 2176.73 1283.14 2176.48 1285.44 2176.35 1288.04 2176.35 1290.94 2176.35 1297.73 2176.98 1302.72 2178.24 1305.89 2179.5 1309.07 2181.46 1310.66 2184.1 1310.66 2186.62 1310.66 2188.49 1309.16 2189.71 1306.17 2190.93 1303.18 2191.54 1298.55 2191.54 1292.28 2191.54 1287.49 2191.23 1283.61 2190.6 1280.64 2189.98 1277.67 2189.11 1275.54 2187.99 1274.25 2186.88 1272.96 2185.53 1272.31 2183.95 1272.31ZM2184.1 1269.66C2188.67 1269.66 2192.06 1271.42 2194.29 1274.94 2196.52 1278.46 2197.63 1283.78 2197.63 1290.91 2197.63 1298.28 2196.44 1303.86 2194.06 1307.64 2191.67 1311.42 2188.19 1313.31 2183.6 1313.31 2179.1 1313.31 2175.75 1311.54 2173.56 1308 2171.36 1304.46 2170.26 1299.09 2170.26 1291.88 2170.26 1288.04 2170.6 1284.73 2171.28 1281.94 2171.95 1279.15 2172.9 1276.84 2174.12 1275.02 2175.34 1273.19 2176.8 1271.85 2178.51 1270.97 2180.22 1270.1 2182.08 1269.66 2184.1 1269.66ZM2156.95 1268.1 2159.38 1268.1 2158.92 1275.35 2140.95 1275.35 2140.95 1289.06C2142.03 1288.61 2143.21 1288.26 2144.48 1288.03 2145.75 1287.8 2147.02 1287.69 2148.29 1287.69 2150.77 1287.69 2152.97 1288.19 2154.88 1289.2 2156.8 1290.22 2158.28 1291.65 2159.32 1293.52 2160.36 1295.38 2160.88 1297.54 2160.88 1300 2160.88 1302.79 2160.3 1305.19 2159.13 1307.19 2157.97 1309.19 2156.28 1310.71 2154.07 1311.75 2151.86 1312.79 2149.25 1313.31 2146.23 1313.31 2142.62 1313.31 2138.85 1312.57 2134.92 1311.1L2134.92 1304.47 2138.7 1304.47C2139.32 1306.6 2140.26 1308.16 2141.53 1309.16 2142.79 1310.16 2144.42 1310.66 2146.42 1310.66 2149.19 1310.66 2151.28 1309.82 2152.7 1308.16 2154.11 1306.49 2154.82 1304 2154.82 1300.69 2154.82 1298.48 2154.45 1296.65 2153.7 1295.2 2152.95 1293.76 2151.94 1292.71 2150.67 1292.06 2149.4 1291.42 2147.92 1291.1 2146.23 1291.1 2144.81 1291.1 2143.59 1291.18 2142.57 1291.36 2141.55 1291.54 2140.46 1291.81 2139.29 1292.19L2136.79 1290.72 2136.79 1270.16 2154.01 1270.16C2154.72 1270.16 2155.23 1270.1 2155.54 1269.99 2155.85 1269.87 2156.1 1269.69 2156.29 1269.45 2156.48 1269.22 2156.7 1268.76 2156.95 1268.1Z" fill="#292934" fill-rule="evenodd"/><text fill="#000000" fill-opacity="0" font-family="Arial,Arial_MSFontService,sans-serif" font-size="45.2188" x="2134.92" y="1307.66">50</text><path d="M2130.66 1249.9 2201.66 1249.9 2201.66 1253.9 2130.66 1253.9Z" fill="#292934" fill-rule="evenodd"/><path d="M2238.13 1229.48C2235.88 1229.48 2233.78 1230.29 2231.83 1231.89 2229.88 1233.5 2228.18 1235.79 2226.71 1238.77 2225.24 1241.75 2224.1 1245.02 2223.28 1248.58 2222.47 1252.14 2222.07 1255.29 2222.07 1258.02 2222.07 1264.45 2224.41 1267.67 2229.1 1267.67 2231.99 1267.67 2234.65 1266.32 2237.07 1263.63 2239.48 1260.93 2241.43 1257.19 2242.91 1252.42 2244.39 1247.65 2245.13 1243.19 2245.13 1239.05 2245.13 1235.94 2244.56 1233.57 2243.41 1231.94 2242.26 1230.3 2240.5 1229.48 2238.13 1229.48ZM2238.47 1226.73C2242.49 1226.73 2245.59 1227.9 2247.77 1230.23 2249.95 1232.57 2251.03 1235.94 2251.03 1240.36 2251.03 1243.28 2250.58 1246.54 2249.66 1250.14 2248.74 1253.75 2247.48 1256.93 2245.88 1259.69 2244.27 1262.45 2242.41 1264.67 2240.3 1266.36 2238.19 1268.05 2235.89 1269.21 2233.41 1269.86 2233.89 1271.38 2234.34 1272.64 2234.75 1273.63 2235.17 1274.62 2235.57 1275.42 2235.96 1276.03 2236.34 1276.65 2236.72 1277.1 2237.1 1277.41 2237.47 1277.71 2237.85 1277.91 2238.22 1278.02 2238.6 1278.12 2239.03 1278.17 2239.53 1278.17 2240.33 1278.17 2241.13 1277.94 2241.94 1277.48 2242.75 1277.03 2243.66 1276.23 2244.66 1275.11L2246.28 1276.86C2244.62 1278.67 2243.07 1279.95 2241.63 1280.7 2240.19 1281.45 2238.71 1281.83 2237.19 1281.83 2235.46 1281.83 2234.05 1281.44 2232.96 1280.67 2231.86 1279.9 2230.91 1278.67 2230.11 1276.98 2229.31 1275.3 2228.53 1273.09 2227.78 1270.36 2224.01 1270.15 2221.14 1268.9 2219.16 1266.61 2217.18 1264.32 2216.19 1261.09 2216.19 1256.92 2216.19 1253.8 2216.72 1250.27 2217.77 1246.33 2218.82 1242.39 2220.34 1238.92 2222.33 1235.91 2224.32 1232.9 2226.7 1230.62 2229.46 1229.06 2232.22 1227.51 2235.22 1226.73 2238.47 1226.73Z" fill="#292934" fill-rule="evenodd"/><text fill="#000000" fill-opacity="0" font-family="Arial,Arial_MSFontService,sans-serif" font-size="55.0938" x="2216.19" y="1274.94">𝑄</text><path d="M2267.11 1259.55C2268.59 1259.55 2269.96 1259.64 2271.2 1259.82 2272.45 1260 2273.66 1260.27 2274.84 1260.62L2273.74 1265.81 2271.7 1265.81C2271.53 1264.43 2271.07 1263.42 2270.33 1262.76 2269.59 1262.1 2268.44 1261.77 2266.88 1261.77 2266.25 1261.77 2265.67 1261.86 2265.13 1262.02 2264.6 1262.19 2264.14 1262.43 2263.76 1262.72 2263.37 1263.02 2263.07 1263.38 2262.86 1263.79 2262.65 1264.2 2262.54 1264.66 2262.54 1265.15 2262.54 1265.59 2262.59 1265.99 2262.7 1266.36 2262.81 1266.73 2263.02 1267.09 2263.33 1267.44 2263.64 1267.79 2264.09 1268.16 2264.66 1268.54 2265.24 1268.92 2265.99 1269.36 2266.92 1269.85 2267.9 1270.39 2268.72 1270.9 2269.37 1271.39 2270.02 1271.88 2270.53 1272.37 2270.92 1272.88 2271.3 1273.38 2271.57 1273.92 2271.72 1274.5 2271.87 1275.07 2271.95 1275.71 2271.95 1276.41 2271.95 1277.5 2271.73 1278.47 2271.28 1279.34 2270.84 1280.2 2270.22 1280.93 2269.42 1281.53 2268.63 1282.13 2267.69 1282.59 2266.61 1282.91 2265.53 1283.23 2264.35 1283.39 2263.07 1283.39 2261.66 1283.39 2260.27 1283.3 2258.91 1283.11 2257.55 1282.93 2256.11 1282.62 2254.6 1282.17L2255.79 1276.94 2257.79 1276.94C2257.86 1278.36 2258.31 1279.43 2259.13 1280.14 2259.95 1280.85 2261.22 1281.21 2262.93 1281.21 2264.46 1281.21 2265.66 1280.88 2266.54 1280.22 2267.42 1279.56 2267.86 1278.65 2267.86 1277.47 2267.86 1276.93 2267.81 1276.47 2267.7 1276.08 2267.6 1275.69 2267.39 1275.32 2267.07 1274.97 2266.76 1274.62 2266.33 1274.25 2265.79 1273.88 2265.24 1273.5 2264.54 1273.07 2263.66 1272.58 2262.76 1272.08 2261.98 1271.58 2261.33 1271.09 2260.68 1270.6 2260.15 1270.1 2259.73 1269.6 2259.31 1269.09 2259 1268.56 2258.8 1268.01 2258.6 1267.46 2258.5 1266.87 2258.5 1266.25 2258.5 1265.28 2258.7 1264.39 2259.11 1263.57 2259.51 1262.75 2260.09 1262.05 2260.84 1261.45 2261.59 1260.85 2262.49 1260.39 2263.55 1260.05 2264.6 1259.71 2265.79 1259.55 2267.11 1259.55Z" fill="#292934" fill-rule="evenodd"/><text fill="#000000" fill-opacity="0" font-family="Arial,Arial_MSFontService,sans-serif" font-size="23.8442" x="2254.6" y="1280.41">𝑠</text><path d="M0 0 586 0.000360892" stroke="#292934" stroke-width="3.4375" stroke-linejoin="round" stroke-miterlimit="10" stroke-dasharray="13.75 10.3125" fill="none" fill-rule="evenodd" transform="matrix(-1 0 0 1 1574.5 1646.5)"/><path d="M1567.5 2101.5 1567.5 1643.5" stroke="#292934" stroke-width="3.4375" stroke-linejoin="round" stroke-miterlimit="10" stroke-dasharray="13.75 10.3125" fill="none" fill-rule="evenodd"/><text fill="#292934" font-family="Arial,Arial_MSFontService,sans-serif" font-weight="400" font-size="83" transform="matrix(1 0 0 1 1460.35 2213)">Q=300</text><text fill="#292934" font-family="Arial,Arial_MSFontService,sans-serif" font-weight="400" font-size="64" transform="matrix(1 0 0 1 1899.27 1781)">Inverse demand curve:</text><path d="M2015.82 1856.99C2013.76 1856.99 2012.21 1857.03 2011.17 1857.12L2011.17 1876.02 2014.79 1876.02C2017.15 1876.02 2019.09 1875.71 2020.62 1875.1 2022.15 1874.49 2023.32 1873.46 2024.14 1872.04 2024.95 1870.61 2025.35 1868.72 2025.35 1866.37 2025.35 1864.57 2025.11 1863.08 2024.64 1861.88 2024.16 1860.68 2023.49 1859.72 2022.65 1858.99 2021.81 1858.26 2020.8 1857.75 2019.64 1857.44 2018.47 1857.14 2017.2 1856.99 2015.82 1856.99ZM2001.67 1854.24 2017.17 1854.24C2022.04 1854.24 2025.67 1855.17 2028.06 1857.04 2030.44 1858.9 2031.64 1861.74 2031.64 1865.55 2031.64 1867.72 2031.26 1869.67 2030.51 1871.4 2029.76 1873.13 2028.7 1874.54 2027.32 1875.65 2025.95 1876.75 2024.32 1877.54 2022.45 1878.02 2020.57 1878.5 2018.6 1878.74 2016.54 1878.74 2014.23 1878.74 2012.44 1878.7 2011.17 1878.62L2011.17 1888.99C2011.17 1890.22 2011.23 1891.2 2011.37 1891.93 2011.51 1892.66 2011.71 1893.24 2011.99 1893.66 2012.28 1894.09 2012.66 1894.42 2013.14 1894.66 2013.61 1894.9 2014.36 1895.14 2015.39 1895.37L2015.39 1896.9 2001.67 1896.9 2001.67 1895.37C2002.96 1895.03 2003.82 1894.66 2004.26 1894.26 2004.7 1893.85 2004.98 1893.27 2005.12 1892.52 2005.26 1891.77 2005.32 1890.63 2005.32 1889.08L2005.32 1862.05C2005.32 1860.62 2005.27 1859.57 2005.17 1858.91 2005.06 1858.26 2004.89 1857.75 2004.65 1857.38 2004.41 1857.02 2004.09 1856.73 2003.7 1856.51 2003.3 1856.29 2002.62 1856.04 2001.67 1855.77Z" fill="#292934" fill-rule="evenodd"/><text fill="#000000" fill-opacity="0" font-family="Arial,Arial_MSFontService,sans-serif" font-size="42.6562" x="2001.67" y="1891.56">P</text><path d="M2057.04 1883.02 2095.54 1883.02 2095.54 1887.18 2057.04 1887.18ZM2057.04 1870.05 2095.54 1870.05 2095.54 1874.21 2057.04 1874.21Z" fill="#292934" fill-rule="evenodd"/><text fill="#000000" fill-opacity="0" font-family="Arial,Arial_MSFontService,sans-serif" font-size="17.125" x="2057.04" y="1885.04">=</text><path d="M2172.3 1853.74C2176.18 1853.74 2179.11 1854.59 2181.09 1856.29 2183.06 1857.99 2184.05 1860.45 2184.05 1863.68 2184.05 1864.78 2183.94 1865.8 2183.73 1866.73 2183.51 1867.65 2183.16 1868.57 2182.69 1869.48 2182.23 1870.38 2181.6 1871.36 2180.8 1872.4 2180.01 1873.44 2179.14 1874.5 2178.18 1875.57 2177.22 1876.64 2175.56 1878.43 2173.21 1880.93 2169.25 1885.12 2166.35 1888.77 2164.49 1891.9L2176.27 1891.9C2177.29 1891.9 2178.12 1891.83 2178.74 1891.71 2179.37 1891.58 2179.87 1891.38 2180.24 1891.08 2180.62 1890.79 2180.91 1890.41 2181.13 1889.94 2181.35 1889.48 2181.63 1888.75 2181.96 1887.77L2184.62 1887.77 2184.09 1896.9 2158.37 1896.9 2158.37 1895.4C2159.26 1893.21 2160.47 1890.97 2161.99 1888.68 2163.51 1886.39 2165.67 1883.69 2168.46 1880.58 2170.88 1877.92 2172.62 1875.9 2173.68 1874.52 2174.85 1873.02 2175.72 1871.73 2176.29 1870.63 2176.86 1869.54 2177.27 1868.51 2177.52 1867.54 2177.77 1866.57 2177.9 1865.59 2177.9 1864.62 2177.9 1863.05 2177.65 1861.67 2177.15 1860.48 2176.65 1859.28 2175.88 1858.33 2174.85 1857.65 2173.82 1856.96 2172.52 1856.62 2170.96 1856.62 2167.06 1856.62 2164.44 1858.78 2163.09 1863.12L2159.3 1863.12 2159.3 1857.12C2161.82 1855.93 2164.18 1855.07 2166.38 1854.54 2168.58 1854.01 2170.55 1853.74 2172.3 1853.74ZM2138.52 1853.74 2140.24 1853.74C2140.12 1855.74 2140.05 1858.51 2140.05 1862.05L2140.05 1888.74C2140.05 1889.95 2140.12 1890.86 2140.26 1891.48 2140.39 1892.09 2140.63 1892.59 2140.98 1892.98 2141.32 1893.36 2141.81 1893.66 2142.46 1893.88 2143.11 1894.1 2143.92 1894.27 2144.9 1894.38 2145.88 1894.5 2147.17 1894.57 2148.77 1894.62L2148.77 1896.9 2125.68 1896.9 2125.68 1894.62C2127.99 1894.51 2129.64 1894.37 2130.63 1894.19 2131.62 1894.02 2132.38 1893.75 2132.9 1893.4 2133.42 1893.04 2133.8 1892.54 2134.04 1891.9 2134.28 1891.25 2134.4 1890.2 2134.4 1888.74L2134.4 1863.4C2134.4 1862.56 2134.25 1861.95 2133.96 1861.57 2133.67 1861.18 2133.24 1860.99 2132.68 1860.99 2132.01 1860.99 2131.06 1861.33 2129.84 1862.02 2128.61 1862.71 2127.09 1863.66 2125.27 1864.87L2123.9 1862.46Z" fill="#292934" fill-rule="evenodd"/><text fill="#000000" fill-opacity="0" font-family="Arial,Arial_MSFontService,sans-serif" font-size="43.1562" x="2123.9" y="1891.5">12</text><path d="M2222.61 1876.52 2261.11 1876.52 2261.11 1880.68 2222.61 1880.68Z" fill="#292934" fill-rule="evenodd"/><text fill="#000000" fill-opacity="0" font-family="Arial,Arial_MSFontService,sans-serif" font-size="4.15625" x="2222.61" y="1880.16">−</text><path d="M2318.28 1805.18 2320 1805.18C2319.88 1807.18 2319.81 1809.95 2319.81 1813.49L2319.81 1840.18C2319.81 1841.39 2319.88 1842.3 2320.02 1842.91 2320.15 1843.53 2320.39 1844.03 2320.73 1844.41 2321.08 1844.8 2321.57 1845.1 2322.22 1845.32 2322.86 1845.54 2323.68 1845.71 2324.66 1845.82 2325.64 1845.94 2326.93 1846.01 2328.53 1846.06L2328.53 1848.34 2305.44 1848.34 2305.44 1846.06C2307.75 1845.95 2309.4 1845.81 2310.39 1845.63 2311.38 1845.46 2312.14 1845.19 2312.66 1844.84 2313.18 1844.48 2313.56 1843.98 2313.8 1843.34 2314.04 1842.69 2314.16 1841.64 2314.16 1840.18L2314.16 1814.84C2314.16 1814 2314.01 1813.39 2313.72 1813.01 2313.43 1812.62 2313 1812.43 2312.44 1812.43 2311.77 1812.43 2310.82 1812.77 2309.59 1813.46 2308.36 1814.15 2306.84 1815.1 2305.03 1816.31L2303.66 1813.9Z" fill="#292934" fill-rule="evenodd"/><text fill="#000000" fill-opacity="0" font-family="Arial,Arial_MSFontService,sans-serif" font-size="43.1562" x="2303.66" y="1842.94">1</text><path d="M2334.05 1899.32C2332.61 1899.32 2331.41 1899.75 2330.44 1900.6 2329.47 1901.46 2328.69 1902.68 2328.1 1904.29 2327.51 1905.89 2327.08 1907.85 2326.83 1910.15 2326.58 1912.45 2326.46 1915.05 2326.46 1917.94 2326.46 1924.74 2327.09 1929.72 2328.35 1932.9 2329.61 1936.08 2331.56 1937.66 2334.21 1937.66 2336.73 1937.66 2338.6 1936.17 2339.82 1933.18 2341.04 1930.19 2341.65 1925.56 2341.65 1919.29 2341.65 1914.5 2341.33 1910.62 2340.71 1907.65 2340.08 1904.68 2339.21 1902.55 2338.1 1901.26 2336.98 1899.97 2335.64 1899.32 2334.05 1899.32ZM2334.21 1896.66C2338.77 1896.66 2342.17 1898.42 2344.4 1901.94 2346.62 1905.47 2347.74 1910.79 2347.74 1917.91 2347.74 1925.29 2346.55 1930.87 2344.16 1934.65 2341.78 1938.43 2338.29 1940.32 2333.71 1940.32 2329.21 1940.32 2325.86 1938.55 2323.66 1935.01 2321.46 1931.47 2320.36 1926.09 2320.36 1918.88 2320.36 1915.05 2320.7 1911.74 2321.38 1908.94 2322.06 1906.15 2323.01 1903.85 2324.22 1902.02 2325.44 1900.2 2326.91 1898.85 2328.61 1897.98 2330.32 1897.1 2332.19 1896.66 2334.21 1896.66ZM2307.05 1895.1 2309.49 1895.1 2309.02 1902.35 2291.05 1902.35 2291.05 1916.07C2292.14 1915.61 2293.31 1915.27 2294.58 1915.04 2295.85 1914.81 2297.12 1914.69 2298.4 1914.69 2300.88 1914.69 2303.07 1915.2 2304.99 1916.21 2306.91 1917.22 2308.39 1918.66 2309.43 1920.52 2310.47 1922.39 2310.99 1924.55 2310.99 1927.01 2310.99 1929.8 2310.41 1932.19 2309.24 1934.19 2308.07 1936.19 2306.39 1937.72 2304.18 1938.76 2301.97 1939.8 2299.35 1940.32 2296.33 1940.32 2292.73 1940.32 2288.96 1939.58 2285.02 1938.1L2285.02 1931.48 2288.8 1931.48C2289.43 1933.6 2290.37 1935.16 2291.63 1936.16 2292.89 1937.16 2294.52 1937.66 2296.52 1937.66 2299.29 1937.66 2301.39 1936.83 2302.8 1935.16 2304.22 1933.5 2304.93 1931.01 2304.93 1927.69 2304.93 1925.49 2304.55 1923.66 2303.8 1922.21 2303.05 1920.76 2302.04 1919.72 2300.77 1919.07 2299.5 1918.42 2298.02 1918.1 2296.33 1918.1 2294.92 1918.1 2293.7 1918.19 2292.68 1918.37 2291.66 1918.54 2290.56 1918.82 2289.4 1919.19L2286.9 1917.73 2286.9 1897.16 2304.11 1897.16C2304.82 1897.16 2305.33 1897.11 2305.65 1896.99 2305.96 1896.88 2306.21 1896.7 2306.4 1896.46 2306.58 1896.22 2306.8 1895.77 2307.05 1895.1Z" fill="#292934" fill-rule="evenodd"/><text fill="#000000" fill-opacity="0" font-family="Arial,Arial_MSFontService,sans-serif" font-size="45.2188" x="2285.02" y="1934.67">50</text><path d="M2280.51 1876.9 2351.51 1876.9 2351.51 1880.9 2280.51 1880.9Z" fill="#292934" fill-rule="evenodd"/><path d="M2388.23 1856.49C2385.98 1856.49 2383.88 1857.29 2381.94 1858.9 2379.99 1860.5 2378.28 1862.79 2376.81 1865.77 2375.34 1868.75 2374.2 1872.02 2373.39 1875.58 2372.58 1879.15 2372.17 1882.29 2372.17 1885.02 2372.17 1891.46 2374.51 1894.68 2379.2 1894.68 2382.1 1894.68 2384.75 1893.33 2387.17 1890.63 2389.59 1887.93 2391.54 1884.2 2393.01 1879.43 2394.49 1874.66 2395.23 1870.2 2395.23 1866.05 2395.23 1862.95 2394.66 1860.58 2393.51 1858.94 2392.37 1857.31 2390.61 1856.49 2388.23 1856.49ZM2388.58 1853.74C2392.6 1853.74 2395.7 1854.91 2397.87 1857.24 2400.05 1859.57 2401.14 1862.95 2401.14 1867.37 2401.14 1870.28 2400.68 1873.54 2399.76 1877.15 2398.85 1880.75 2397.59 1883.93 2395.98 1886.69 2394.38 1889.45 2392.52 1891.68 2390.41 1893.37 2388.29 1895.05 2385.99 1896.22 2383.51 1896.87 2383.99 1898.39 2384.44 1899.64 2384.86 1900.63 2385.27 1901.62 2385.68 1902.42 2386.06 1903.04 2386.45 1903.65 2386.83 1904.11 2387.2 1904.41 2387.58 1904.71 2387.95 1904.92 2388.33 1905.02 2388.7 1905.13 2389.14 1905.18 2389.64 1905.18 2390.43 1905.18 2391.23 1904.95 2392.05 1904.49 2392.86 1904.03 2393.76 1903.24 2394.76 1902.12L2396.39 1903.87C2394.72 1905.68 2393.17 1906.96 2391.73 1907.71 2390.3 1908.46 2388.82 1908.83 2387.3 1908.83 2385.57 1908.83 2384.16 1908.45 2383.06 1907.68 2381.97 1906.91 2381.02 1905.68 2380.22 1903.99 2379.42 1902.3 2378.64 1900.09 2377.89 1897.37 2374.12 1897.16 2371.24 1895.91 2369.26 1893.62 2367.29 1891.32 2366.3 1888.09 2366.3 1883.93 2366.3 1880.8 2366.82 1877.27 2367.87 1873.33 2368.93 1869.4 2370.45 1865.92 2372.44 1862.91 2374.43 1859.9 2376.8 1857.62 2379.56 1856.07 2382.32 1854.52 2385.33 1853.74 2388.58 1853.74Z" fill="#292934" fill-rule="evenodd"/><text fill="#000000" fill-opacity="0" font-family="Arial,Arial_MSFontService,sans-serif" font-size="55.0938" x="2366.3" y="1901.95">𝑄</text><path d="M2420.29 1882.6C2419.75 1882.6 2419.28 1882.61 2418.87 1882.63 2418.47 1882.64 2418.1 1882.67 2417.76 1882.7L2412.19 1907.55C2412.25 1907.55 2412.38 1907.55 2412.6 1907.56 2412.81 1907.57 2413.05 1907.58 2413.31 1907.58 2413.57 1907.59 2413.83 1907.6 2414.1 1907.61 2414.37 1907.61 2414.59 1907.62 2414.76 1907.62 2417.26 1907.62 2419.39 1907.23 2421.12 1906.46 2422.86 1905.69 2424.35 1904.48 2425.59 1902.85 2426.83 1901.15 2427.74 1899.37 2428.32 1897.51 2428.9 1895.65 2429.19 1893.63 2429.19 1891.46 2429.19 1890.05 2429 1888.8 2428.61 1887.7 2428.22 1886.6 2427.64 1885.67 2426.88 1884.91 2426.13 1884.15 2425.19 1883.58 2424.08 1883.19 2422.98 1882.8 2421.71 1882.6 2420.29 1882.6ZM2410.76 1880.22 2419.85 1880.22C2421.33 1880.22 2422.62 1880.29 2423.72 1880.42 2424.81 1880.56 2425.76 1880.77 2426.55 1881.04 2427.64 1881.35 2428.63 1881.79 2429.53 1882.37 2430.44 1882.96 2431.22 1883.68 2431.88 1884.54 2432.53 1885.41 2433.05 1886.42 2433.41 1887.57 2433.78 1888.73 2433.96 1890.02 2433.96 1891.46 2433.96 1894.2 2433.54 1896.7 2432.7 1898.97 2431.86 1901.23 2430.63 1903.18 2429.01 1904.81 2427.39 1906.44 2425.39 1907.71 2423.02 1908.62 2420.65 1909.53 2417.92 1909.98 2414.85 1909.98L2405.09 1909.98 2405.35 1908.58C2405.82 1908.51 2406.21 1908.42 2406.51 1908.32 2406.8 1908.22 2407.07 1908.01 2407.31 1907.68 2407.55 1907.35 2407.76 1906.85 2407.96 1906.2 2408.16 1905.54 2408.39 1904.6 2408.65 1903.4L2412.41 1886.67C2412.57 1885.99 2412.68 1885.4 2412.76 1884.88 2412.84 1884.36 2412.87 1883.91 2412.87 1883.54 2412.87 1882.87 2412.7 1882.39 2412.35 1882.11 2411.99 1881.83 2411.35 1881.68 2410.42 1881.66Z" fill="#292934" fill-rule="evenodd"/><text fill="#000000" fill-opacity="0" font-family="Arial,Arial_MSFontService,sans-serif" font-size="29.7651" x="2405.09" y="1906.26">𝐷</text><text fill="#292934" font-family="Arial,Arial_MSFontService,sans-serif" font-weight="400" font-size="83" transform="matrix(1 0 0 1 882.947 1676)">6</text><text fill="#292934" font-family="Arial,Arial_MSFontService,sans-serif" font-weight="400" font-size="83" transform="matrix(1 0 0 1 867.166 1238)">12</text><text fill="#292934" font-family="Arial,Arial_MSFontService,sans-serif" font-weight="400" font-size="83" transform="matrix(1 0 0 1 887.019 2107)">0</text><path d="M996 1207 996 1649 1567 1645.12" fill="#92D050" fill-rule="evenodd" fill-opacity="0.301961"/><text fill="#292934" font-family="Arial,Arial_MSFontService,sans-serif" font-weight="400" font-size="83" transform="matrix(1 0 0 1 1143.87 1557)">CS</text><path d="M1000 2080 1000 1648.88 1555 1645" fill="#FF0000" fill-rule="evenodd" fill-opacity="0.309804"/><text fill="#292934" font-family="Arial,Arial_MSFontService,sans-serif" font-weight="400" font-size="83" transform="matrix(1 0 0 1 1147.75 1794)">PS</text></g></svg>