<svg width="3106" height="1375" xmlns="http://www.w3.org/2000/svg" xmlns:xlink="http://www.w3.org/1999/xlink" xml:space="preserve" overflow="hidden"><defs><clipPath id="clip0"><rect x="97" y="1073" width="3106" height="1375"/></clipPath></defs><g clip-path="url(#clip0)" transform="translate(-97 -1073)"><rect x="96.9999" y="1073" width="3106" height="1375" fill="#FFFFFF"/><path d="M404.5 1322.5 404.5 2229.5" stroke="#292934" stroke-width="3.4375" stroke-linejoin="round" stroke-miterlimit="10" fill="none" fill-rule="evenodd"/><path d="M404.5 2229.5 1394.5 2229.5" stroke="#292934" stroke-width="3.4375" stroke-linejoin="round" stroke-miterlimit="10" fill="none" fill-rule="evenodd"/><text fill="#292934" font-family="Arial,Arial_MSFontService,sans-serif" font-weight="700" font-size="83" transform="matrix(1 0 0 1 271.998 1473)">P</text><text fill="#292934" font-family="Arial,Arial_MSFontService,sans-serif" font-weight="700" font-size="83" transform="matrix(1 0 0 1 1289.5 2353)">q</text><path d="M1805.5 1267.5 1806.5 2229.5" stroke="#292934" stroke-width="3.4375" stroke-linejoin="round" stroke-miterlimit="10" fill="none" fill-rule="evenodd"/><path d="M1806.5 2229.5 2796.5 2229.5" stroke="#292934" stroke-width="3.4375" stroke-linejoin="round" stroke-miterlimit="10" fill="none" fill-rule="evenodd"/><text fill="#292934" font-family="Arial,Arial_MSFontService,sans-serif" font-weight="700" font-size="83" transform="matrix(1 0 0 1 1724.91 1389)">P</text><text fill="#292934" font-family="Arial,Arial_MSFontService,sans-serif" font-weight="700" font-size="83" transform="matrix(1 0 0 1 2692 2353)">Q</text><text fill="#292934" font-family="Arial,Arial_MSFontService,sans-serif" font-weight="700" font-size="83" text-decoration="underline" transform="matrix(1 0 0 1 601.998 1281)">Individual Firm</text><text fill="#292934" font-family="Arial,Arial_MSFontService,sans-serif" font-weight="700" font-size="83" text-decoration="underline" transform="matrix(1 0 0 1 2261.49 1285)">Market</text><path d="M1813.5 1347.5 2712.5 2037.5" stroke="#292934" stroke-width="3.4375" stroke-linejoin="round" stroke-miterlimit="10" fill="none" fill-rule="evenodd"/><path d="M0 0 976 749" stroke="#292934" stroke-width="3.4375" stroke-linejoin="round" stroke-miterlimit="10" fill="none" fill-rule="evenodd" transform="matrix(1 0 0 -1 1808.5 2220.5)"/><path d="M0 0 1980 0.000360892" stroke="#292934" stroke-width="3.4375" stroke-linejoin="round" stroke-miterlimit="10" stroke-dasharray="13.75 10.3125" fill="none" fill-rule="evenodd" transform="matrix(-1 0 0 1 2384.5 1789.5)"/><path d="M404.5 1789.5 1366.5 1789.5" stroke="#292934" stroke-width="3.4375" stroke-linejoin="round" stroke-miterlimit="10" fill="none" fill-rule="evenodd"/><text fill="#292934" font-family="Arial,Arial_MSFontService,sans-serif" font-weight="400" font-size="83" transform="matrix(1 0 0 1 1325.02 1893)">MR</text><path d="M789 1786C789 1780.48 794.149 1776 800.5 1776 806.851 1776 812 1780.48 812 1786 812 1791.52 806.851 1796 800.5 1796 794.149 1796 789 1791.52 789 1786Z" stroke="#6B766F" stroke-width="9.53658" stroke-linejoin="round" stroke-miterlimit="10" fill="#93A299" fill-rule="evenodd"/><text fill="#292934" font-family="Arial,Arial_MSFontService,sans-serif" font-weight="400" font-size="83" transform="matrix(1 0 0 1 213.638 1826)">P=6</text><text fill="#292934" font-family="Arial,Arial_MSFontService,sans-serif" font-weight="400" font-size="83" transform="matrix(1 0 0 1 713.644 2333)">q*=3</text><path d="M800.5 1796.5 800.5 2229.62" stroke="#93A299" stroke-width="3.4375" stroke-linejoin="round" stroke-miterlimit="10" fill="none" fill-rule="evenodd"/><path d="M0 0 586 0.000360892" stroke="#292934" stroke-width="3.4375" stroke-linejoin="round" stroke-miterlimit="10" stroke-dasharray="13.75 10.3125" fill="none" fill-rule="evenodd" transform="matrix(-1 0 0 1 2384.5 1789.5)"/><path d="M2377.5 2244.5 2377.5 1786.5" stroke="#292934" stroke-width="3.4375" stroke-linejoin="round" stroke-miterlimit="10" stroke-dasharray="13.75 10.3125" fill="none" fill-rule="evenodd"/><path d="M0 0 708.984 786.042" stroke="#93A299" stroke-width="3.4375" stroke-linejoin="round" stroke-miterlimit="10" fill="none" fill-rule="evenodd" transform="matrix(1 0 0 -1 404.5 2229.54)"/><text fill="#292934" font-family="Arial,Arial_MSFontService,sans-serif" font-weight="400" font-size="83" transform="matrix(1 0 0 1 2270.83 2356)">Q=300</text><text fill="#292934" font-family="Arial,Arial_MSFontService,sans-serif" font-weight="400" font-size="83" transform="matrix(1 0 0 1 2778.1 2114)">D</text><text fill="#292934" font-family="Arial,Arial_MSFontService,sans-serif" font-weight="400" font-size="83" transform="matrix(1 0 0 1 2836.74 1480)">S</text><text fill="#292934" font-family="Arial,Arial_MSFontService,sans-serif" font-weight="400" font-size="83" transform="matrix(1 0 0 1 1136.59 1448)">MC</text><path d="M577 1516C626.828 1648 676.657 1780 790.55 1787.77 904.443 1795.53 1174.29 1605.3 1260.36 1562.59 1346.43 1519.88 1326.69 1525.71 1306.95 1531.53" stroke="#6B766F" stroke-width="9.53658" stroke-linejoin="round" stroke-miterlimit="10" fill="none" fill-rule="evenodd"/><text fill="#292934" font-family="Arial,Arial_MSFontService,sans-serif" font-weight="400" font-size="83" transform="matrix(1 0 0 1 1319.73 1481)">AC = TC/q</text></g></svg>