<svg width="3214" height="1469" xmlns="http://www.w3.org/2000/svg" xmlns:xlink="http://www.w3.org/1999/xlink" xml:space="preserve" overflow="hidden"><g transform="translate(-93 -896)"><rect x="110" y="899" width="3184" height="1466" fill="#FFFFFF"/><path d="M333.5 1212.5 333.5 2119.5" stroke="#292934" stroke-width="3.4375" stroke-linejoin="round" stroke-miterlimit="10" fill="none" fill-rule="evenodd"/><path d="M333.5 2119.5 1323.5 2119.5" stroke="#292934" stroke-width="3.4375" stroke-linejoin="round" stroke-miterlimit="10" fill="none" fill-rule="evenodd"/><text fill="#292934" font-family="Arial,Arial_MSFontService,sans-serif" font-weight="700" font-size="83" transform="matrix(1 0 0 1 201.36 1363)">P</text><text fill="#292934" font-family="Arial,Arial_MSFontService,sans-serif" font-weight="700" font-size="83" transform="matrix(1 0 0 1 1218.86 2243)">q</text><path d="M1734.5 1157.5 1736.5 2119.5" stroke="#292934" stroke-width="3.4375" stroke-linejoin="round" stroke-miterlimit="10" fill="none" fill-rule="evenodd"/><path d="M1736.5 2119.5 2726.5 2119.5" stroke="#292934" stroke-width="3.4375" stroke-linejoin="round" stroke-miterlimit="10" fill="none" fill-rule="evenodd"/><text fill="#292934" font-family="Arial,Arial_MSFontService,sans-serif" font-weight="700" font-size="83" transform="matrix(1 0 0 1 1654.28 1279)">P</text><text fill="#292934" font-family="Arial,Arial_MSFontService,sans-serif" font-weight="700" font-size="83" transform="matrix(1 0 0 1 2621.36 2243)">Q</text><text fill="#292934" font-family="Arial,Arial_MSFontService,sans-serif" font-weight="700" font-size="83" text-decoration="underline" transform="matrix(1 0 0 1 531.36 1171)">Individual Firm</text><text fill="#292934" font-family="Arial,Arial_MSFontService,sans-serif" font-weight="700" font-size="83" text-decoration="underline" transform="matrix(1 0 0 1 2190.85 1175)">Market</text><path d="M1742.5 1237.5 2642.5 1927.5" stroke="#292934" stroke-width="3.4375" stroke-linejoin="round" stroke-miterlimit="10" fill="none" fill-rule="evenodd"/><path d="M0 0 976 749" stroke="#292934" stroke-width="3.4375" stroke-linejoin="round" stroke-miterlimit="10" fill="none" fill-rule="evenodd" transform="matrix(1 0 0 -1 1738.5 2110.5)"/><text fill="#292934" font-family="Arial,Arial_MSFontService,sans-serif" font-weight="400" font-size="64" transform="matrix(1 0 0 1 2588.27 1187)">Inverse supply curve:</text><path d="M2767.56 1263.13C2765.5 1263.13 2763.95 1263.17 2762.9 1263.26L2762.9 1282.16 2766.53 1282.16C2768.88 1282.16 2770.83 1281.86 2772.36 1281.24 2773.89 1280.63 2775.06 1279.61 2775.87 1278.18 2776.69 1276.75 2777.09 1274.86 2777.09 1272.51 2777.09 1270.72 2776.85 1269.22 2776.37 1268.02 2775.89 1266.83 2775.23 1265.86 2774.39 1265.13 2773.55 1264.4 2772.54 1263.89 2771.37 1263.59 2770.21 1263.28 2768.94 1263.13 2767.56 1263.13ZM2753.4 1260.38 2768.9 1260.38C2773.78 1260.38 2777.41 1261.31 2779.8 1263.18 2782.18 1265.04 2783.37 1267.88 2783.37 1271.7 2783.37 1273.86 2783 1275.81 2782.25 1277.54 2781.5 1279.27 2780.44 1280.68 2779.06 1281.79 2777.69 1282.89 2776.06 1283.68 2774.19 1284.16 2772.31 1284.64 2770.34 1284.88 2768.28 1284.88 2765.97 1284.88 2764.18 1284.84 2762.9 1284.76L2762.9 1295.13C2762.9 1296.36 2762.97 1297.34 2763.11 1298.07 2763.24 1298.8 2763.45 1299.38 2763.73 1299.8 2764.01 1300.23 2764.39 1300.56 2764.87 1300.8 2765.35 1301.04 2766.1 1301.28 2767.12 1301.51L2767.12 1303.04 2753.4 1303.04 2753.4 1301.51C2754.7 1301.17 2755.56 1300.8 2756 1300.4 2756.44 1299.99 2756.72 1299.41 2756.86 1298.66 2756.99 1297.91 2757.06 1296.77 2757.06 1295.23L2757.06 1268.2C2757.06 1266.76 2757.01 1265.71 2756.9 1265.05 2756.8 1264.4 2756.63 1263.89 2756.39 1263.52 2756.15 1263.16 2755.83 1262.87 2755.44 1262.65 2755.04 1262.43 2754.36 1262.18 2753.4 1261.91Z" fill="#292934" fill-rule="evenodd"/><text fill="#000000" fill-opacity="0" font-family="Arial,Arial_MSFontService,sans-serif" font-size="42.6562" x="2753.4" y="1297.71">P</text><path d="M2808.78 1289.16 2847.28 1289.16 2847.28 1293.32 2808.78 1293.32ZM2808.78 1276.2 2847.28 1276.2 2847.28 1280.35 2808.78 1280.35Z" fill="#292934" fill-rule="evenodd"/><text fill="#000000" fill-opacity="0" font-family="Arial,Arial_MSFontService,sans-serif" font-size="17.125" x="2808.78" y="1291.18">=</text><path d="M2908.02 1211.32 2909.74 1211.32C2909.61 1213.32 2909.55 1216.09 2909.55 1219.63L2909.55 1246.32C2909.55 1247.53 2909.62 1248.44 2909.76 1249.06 2909.89 1249.67 2910.13 1250.17 2910.47 1250.56 2910.82 1250.94 2911.31 1251.24 2911.96 1251.46 2912.6 1251.68 2913.42 1251.85 2914.4 1251.96 2915.38 1252.08 2916.67 1252.16 2918.27 1252.2L2918.27 1254.48 2895.18 1254.48 2895.18 1252.2C2897.49 1252.09 2899.14 1251.95 2900.13 1251.78 2901.12 1251.6 2901.88 1251.33 2902.4 1250.98 2902.92 1250.62 2903.3 1250.12 2903.54 1249.48 2903.78 1248.83 2903.9 1247.78 2903.9 1246.32L2903.9 1220.98C2903.9 1220.15 2903.75 1219.54 2903.46 1219.15 2903.17 1218.77 2902.74 1218.57 2902.18 1218.57 2901.51 1218.57 2900.56 1218.92 2899.33 1219.6 2898.1 1220.29 2896.58 1221.24 2894.77 1222.45L2893.4 1220.04Z" fill="#292934" fill-rule="evenodd"/><text fill="#000000" fill-opacity="0" font-family="Arial,Arial_MSFontService,sans-serif" font-size="43.1562" x="2893.4" y="1249.08">1</text><path d="M2923.79 1305.46C2922.35 1305.46 2921.15 1305.89 2920.18 1306.74 2919.21 1307.6 2918.43 1308.83 2917.84 1310.43 2917.25 1312.03 2916.82 1313.99 2916.57 1316.29 2916.32 1318.59 2916.2 1321.19 2916.2 1324.09 2916.2 1330.88 2916.83 1335.86 2918.09 1339.04 2919.35 1342.22 2921.3 1343.81 2923.95 1343.81 2926.47 1343.81 2928.34 1342.31 2929.56 1339.32 2930.78 1336.33 2931.39 1331.7 2931.39 1325.43 2931.39 1320.64 2931.07 1316.76 2930.45 1313.79 2929.82 1310.82 2928.95 1308.69 2927.84 1307.4 2926.72 1306.11 2925.38 1305.46 2923.79 1305.46ZM2923.95 1302.81C2928.51 1302.81 2931.91 1304.57 2934.14 1308.09 2936.37 1311.61 2937.48 1316.93 2937.48 1324.06 2937.48 1331.43 2936.29 1337.01 2933.9 1340.79 2931.52 1344.57 2928.03 1346.46 2923.45 1346.46 2918.95 1346.46 2915.6 1344.69 2913.4 1341.15 2911.2 1337.61 2910.1 1332.23 2910.1 1325.02 2910.1 1321.19 2910.44 1317.88 2911.12 1315.09 2911.8 1312.3 2912.75 1309.99 2913.96 1308.16 2915.18 1306.34 2916.65 1304.99 2918.35 1304.12 2920.06 1303.24 2921.93 1302.81 2923.95 1302.81ZM2896.79 1301.24 2899.23 1301.24 2898.76 1308.49 2880.79 1308.49 2880.79 1322.21C2881.88 1321.75 2883.05 1321.41 2884.32 1321.18 2885.59 1320.95 2886.87 1320.84 2888.14 1320.84 2890.62 1320.84 2892.81 1321.34 2894.73 1322.35 2896.65 1323.36 2898.13 1324.8 2899.17 1326.66 2900.21 1328.53 2900.73 1330.69 2900.73 1333.15 2900.73 1335.94 2900.15 1338.34 2898.98 1340.34 2897.81 1342.34 2896.13 1343.86 2893.92 1344.9 2891.71 1345.94 2889.09 1346.46 2886.07 1346.46 2882.47 1346.46 2878.7 1345.72 2874.76 1344.24L2874.76 1337.62 2878.54 1337.62C2879.17 1339.74 2880.11 1341.31 2881.37 1342.31 2882.63 1343.31 2884.26 1343.81 2886.26 1343.81 2889.03 1343.81 2891.13 1342.97 2892.54 1341.31 2893.96 1339.64 2894.67 1337.15 2894.67 1333.84 2894.67 1331.63 2894.29 1329.8 2893.54 1328.35 2892.79 1326.9 2891.78 1325.86 2890.51 1325.21 2889.24 1324.57 2887.76 1324.24 2886.07 1324.24 2884.66 1324.24 2883.44 1324.33 2882.42 1324.51 2881.4 1324.69 2880.3 1324.96 2879.14 1325.34L2876.64 1323.87 2876.64 1303.31 2893.85 1303.31C2894.56 1303.31 2895.07 1303.25 2895.39 1303.13 2895.7 1303.02 2895.95 1302.84 2896.14 1302.6 2896.32 1302.36 2896.54 1301.91 2896.79 1301.24Z" fill="#292934" fill-rule="evenodd"/><text fill="#000000" fill-opacity="0" font-family="Arial,Arial_MSFontService,sans-serif" font-size="45.2188" x="2874.76" y="1340.81">50</text><path d="M2870.51 1283.05 2941.51 1283.05 2941.51 1287.05 2870.51 1287.05Z" fill="#292934" fill-rule="evenodd"/><path d="M2977.97 1262.63C2975.72 1262.63 2973.62 1263.43 2971.68 1265.04 2969.73 1266.64 2968.02 1268.93 2966.55 1271.91 2965.08 1274.89 2963.94 1278.16 2963.13 1281.73 2962.32 1285.29 2961.91 1288.43 2961.91 1291.16 2961.91 1297.6 2964.25 1300.82 2968.94 1300.82 2971.84 1300.82 2974.49 1299.47 2976.91 1296.77 2979.33 1294.08 2981.28 1290.34 2982.75 1285.57 2984.23 1280.8 2984.97 1276.34 2984.97 1272.2 2984.97 1269.09 2984.4 1266.72 2983.25 1265.09 2982.11 1263.45 2980.35 1262.63 2977.97 1262.63ZM2978.32 1259.88C2982.34 1259.88 2985.44 1261.05 2987.61 1263.38 2989.79 1265.72 2990.88 1269.09 2990.88 1273.51 2990.88 1276.42 2990.42 1279.68 2989.5 1283.29 2988.59 1286.89 2987.33 1290.08 2985.72 1292.84 2984.12 1295.6 2982.26 1297.82 2980.15 1299.51 2978.03 1301.2 2975.73 1302.36 2973.25 1303.01 2973.73 1304.53 2974.18 1305.78 2974.6 1306.77 2975.02 1307.76 2975.42 1308.56 2975.8 1309.18 2976.19 1309.79 2976.57 1310.25 2976.94 1310.55 2977.32 1310.86 2977.69 1311.06 2978.07 1311.16 2978.44 1311.27 2978.88 1311.32 2979.38 1311.32 2980.17 1311.32 2980.97 1311.09 2981.79 1310.63 2982.6 1310.17 2983.5 1309.38 2984.5 1308.26L2986.13 1310.01C2984.46 1311.82 2982.91 1313.1 2981.47 1313.85 2980.04 1314.6 2978.56 1314.98 2977.04 1314.98 2975.31 1314.98 2973.9 1314.59 2972.8 1313.82 2971.71 1313.05 2970.76 1311.82 2969.96 1310.13 2969.16 1308.45 2968.38 1306.24 2967.63 1303.51 2963.86 1303.3 2960.98 1302.05 2959 1299.76 2957.03 1297.47 2956.04 1294.24 2956.04 1290.07 2956.04 1286.95 2956.56 1283.41 2957.61 1279.48 2958.67 1275.54 2960.19 1272.06 2962.18 1269.05 2964.17 1266.04 2966.54 1263.76 2969.3 1262.21 2972.06 1260.66 2975.07 1259.88 2978.32 1259.88Z" fill="#292934" fill-rule="evenodd"/><text fill="#000000" fill-opacity="0" font-family="Arial,Arial_MSFontService,sans-serif" font-size="55.0938" x="2956.04" y="1308.09">𝑄</text><path d="M3006.95 1292.69C3008.44 1292.69 3009.8 1292.78 3011.05 1292.97 3012.29 1293.15 3013.51 1293.42 3014.69 1293.77L3013.58 1298.96 3011.54 1298.96C3011.37 1297.58 3010.92 1296.56 3010.18 1295.91 3009.43 1295.25 3008.28 1294.92 3006.72 1294.92 3006.09 1294.92 3005.51 1295 3004.98 1295.17 3004.44 1295.34 3003.98 1295.57 3003.6 1295.87 3003.22 1296.17 3002.92 1296.53 3002.71 1296.94 3002.49 1297.35 3002.38 1297.8 3002.38 1298.29 3002.38 1298.74 3002.44 1299.14 3002.54 1299.51 3002.65 1299.88 3002.86 1300.24 3003.18 1300.59 3003.49 1300.94 3003.93 1301.31 3004.51 1301.69 3005.08 1302.07 3005.83 1302.51 3006.77 1303 3007.75 1303.53 3008.56 1304.05 3009.21 1304.53 3009.86 1305.02 3010.38 1305.52 3010.76 1306.03 3011.14 1306.53 3011.41 1307.07 3011.56 1307.64 3011.72 1308.22 3011.79 1308.86 3011.79 1309.56 3011.79 1310.65 3011.57 1311.62 3011.13 1312.49 3010.68 1313.35 3010.06 1314.08 3009.27 1314.68 3008.47 1315.28 3007.54 1315.73 3006.46 1316.06 3005.38 1316.38 3004.2 1316.54 3002.91 1316.54 3001.5 1316.54 3000.12 1316.45 2998.76 1316.26 2997.4 1316.08 2995.96 1315.76 2994.44 1315.32L2995.64 1310.09 2997.63 1310.09C2997.71 1311.51 2998.16 1312.58 2998.98 1313.29 2999.79 1314 3001.06 1314.36 3002.77 1314.36 3004.3 1314.36 3005.51 1314.03 3006.39 1313.37 3007.27 1312.71 3007.71 1311.79 3007.71 1310.62 3007.71 1310.08 3007.66 1309.62 3007.55 1309.23 3007.44 1308.84 3007.23 1308.47 3006.92 1308.11 3006.6 1307.76 3006.17 1307.4 3005.63 1307.02 3005.09 1306.65 3004.38 1306.22 3003.51 1305.73 3002.61 1305.22 3001.83 1304.73 3001.18 1304.24 3000.53 1303.75 2999.99 1303.25 2999.57 1302.74 2999.15 1302.24 2998.84 1301.71 2998.64 1301.16 2998.44 1300.61 2998.35 1300.02 2998.35 1299.39 2998.35 1298.43 2998.55 1297.54 2998.95 1296.72 2999.36 1295.9 2999.94 1295.19 3000.69 1294.6 3001.44 1294 3002.34 1293.53 3003.39 1293.2 3004.45 1292.86 3005.64 1292.69 3006.95 1292.69Z" fill="#292934" fill-rule="evenodd"/><text fill="#000000" fill-opacity="0" font-family="Arial,Arial_MSFontService,sans-serif" font-size="23.8442" x="2994.44" y="1313.56">𝑠</text><path d="M0 0 1980 0.000360892" stroke="#292934" stroke-width="3.4375" stroke-linejoin="round" stroke-miterlimit="10" stroke-dasharray="13.75 10.3125" fill="none" fill-rule="evenodd" transform="matrix(-1 0 0 1 2313.5 1674.5)"/><path d="M333.5 1674.5 1296.5 1674.5" stroke="#292934" stroke-width="3.4375" stroke-linejoin="round" stroke-miterlimit="10" fill="none" fill-rule="evenodd"/><text fill="#292934" font-family="Arial,Arial_MSFontService,sans-serif" font-weight="400" font-size="83" transform="matrix(1 0 0 1 1254.38 1783)">MR</text><text fill="#292934" font-family="Arial,Arial_MSFontService,sans-serif" font-weight="400" font-size="64" transform="matrix(1 0 0 1 910.634 1406)">MC = 2q</text><path d="M718 1676C718 1670.48 723.373 1666 730 1666 736.628 1666 742 1670.48 742 1676 742 1681.52 736.628 1686 730 1686 723.373 1686 718 1681.52 718 1676Z" stroke="#6B766F" stroke-width="9.53658" stroke-linejoin="round" stroke-miterlimit="10" fill="#93A299" fill-rule="evenodd"/><text fill="#292934" font-family="Arial,Arial_MSFontService,sans-serif" font-weight="400" font-size="83" transform="matrix(1 0 0 1 143 1716)">P=6</text><text fill="#292934" font-family="Arial,Arial_MSFontService,sans-serif" font-weight="400" font-size="83" transform="matrix(1 0 0 1 643.006 2223)">q*=3</text><path d="M726.5 1686.5 726.5 2119.62" stroke="#93A299" stroke-width="3.4375" stroke-linejoin="round" stroke-miterlimit="10" fill="none" fill-rule="evenodd"/><path d="M0 0 585 0.000360892" stroke="#292934" stroke-width="3.4375" stroke-linejoin="round" stroke-miterlimit="10" stroke-dasharray="13.75 10.3125" fill="none" fill-rule="evenodd" transform="matrix(-1 0 0 1 2313.5 1678.5)"/><path d="M2312.5 2135.5 2312.5 1678.5" stroke="#292934" stroke-width="3.4375" stroke-linejoin="round" stroke-miterlimit="10" stroke-dasharray="13.75 10.3125" fill="none" fill-rule="evenodd"/><path d="M0 0 579.219 649.974" stroke="#93A299" stroke-width="3.4375" stroke-linejoin="round" stroke-miterlimit="10" fill="none" fill-rule="evenodd" transform="matrix(1 0 0 -1 333.5 2119.47)"/><text fill="#292934" font-family="Arial,Arial_MSFontService,sans-serif" font-weight="400" font-size="83" transform="matrix(1 0 0 1 2200.19 2246)">Q=300</text><text fill="#292934" font-family="Arial,Arial_MSFontService,sans-serif" font-weight="400" font-size="64" transform="matrix(1 0 0 1 2615.42 1869)">Inverse demand curve:</text><path d="M2731.97 1945.45C2729.91 1945.45 2728.35 1945.49 2727.31 1945.57L2727.31 1964.48 2730.94 1964.48C2733.29 1964.48 2735.23 1964.17 2736.77 1963.55 2738.3 1962.94 2739.47 1961.92 2740.28 1960.49 2741.09 1959.07 2741.5 1957.17 2741.5 1954.82 2741.5 1953.03 2741.26 1951.53 2740.78 1950.34 2740.3 1949.14 2739.64 1948.17 2738.8 1947.45 2737.95 1946.72 2736.95 1946.2 2735.78 1945.9 2734.61 1945.6 2733.34 1945.45 2731.97 1945.45ZM2717.81 1942.7 2733.31 1942.7C2738.19 1942.7 2741.82 1943.63 2744.2 1945.49 2746.59 1947.36 2747.78 1950.2 2747.78 1954.01 2747.78 1956.17 2747.41 1958.12 2746.66 1959.85 2745.91 1961.58 2744.84 1963 2743.47 1964.1 2742.09 1965.21 2740.47 1966 2738.59 1966.48 2736.72 1966.96 2734.75 1967.2 2732.69 1967.2 2730.37 1967.2 2728.58 1967.15 2727.31 1967.07L2727.31 1977.45C2727.31 1978.67 2727.38 1979.65 2727.52 1980.38 2727.65 1981.11 2727.86 1981.69 2728.14 1982.12 2728.42 1982.54 2728.8 1982.88 2729.28 1983.12 2729.76 1983.36 2730.51 1983.59 2731.53 1983.82L2731.53 1985.35 2717.81 1985.35 2717.81 1983.82C2719.1 1983.49 2719.97 1983.12 2720.41 1982.71 2720.84 1982.3 2721.13 1981.73 2721.27 1980.98 2721.4 1980.23 2721.47 1979.08 2721.47 1977.54L2721.47 1950.51C2721.47 1949.07 2721.42 1948.02 2721.31 1947.37 2721.21 1946.71 2721.04 1946.2 2720.8 1945.84 2720.56 1945.47 2720.24 1945.18 2719.84 1944.96 2719.45 1944.74 2718.77 1944.5 2717.81 1944.23Z" fill="#292934" fill-rule="evenodd"/><text fill="#000000" fill-opacity="0" font-family="Arial,Arial_MSFontService,sans-serif" font-size="42.6562" x="2717.81" y="1980.02">P</text><path d="M2773.18 1971.48 2811.68 1971.48 2811.68 1975.63 2773.18 1975.63ZM2773.18 1958.51 2811.68 1958.51 2811.68 1962.66 2773.18 1962.66Z" fill="#292934" fill-rule="evenodd"/><text fill="#000000" fill-opacity="0" font-family="Arial,Arial_MSFontService,sans-serif" font-size="17.125" x="2773.18" y="1973.49">=</text><path d="M2888.45 1942.2C2892.32 1942.2 2895.25 1943.04 2897.23 1944.74 2899.21 1946.44 2900.2 1948.9 2900.2 1952.13 2900.2 1953.24 2900.09 1954.25 2899.87 1955.18 2899.65 1956.11 2899.31 1957.02 2898.84 1957.93 2898.37 1958.84 2897.74 1959.81 2896.95 1960.85 2896.16 1961.89 2895.28 1962.95 2894.32 1964.02 2893.37 1965.1 2891.71 1966.88 2889.36 1969.38 2885.4 1973.57 2882.49 1977.23 2880.64 1980.35L2892.42 1980.35C2893.44 1980.35 2894.26 1980.29 2894.89 1980.16 2895.51 1980.04 2896.01 1979.83 2896.39 1979.54 2896.76 1979.25 2897.06 1978.87 2897.28 1978.4 2897.5 1977.93 2897.77 1977.21 2898.11 1976.23L2900.76 1976.23 2900.23 1985.35 2874.51 1985.35 2874.51 1983.85C2875.41 1981.66 2876.62 1979.42 2878.14 1977.13 2879.66 1974.84 2881.81 1972.14 2884.61 1969.04 2887.02 1966.37 2888.76 1964.35 2889.82 1962.98 2890.99 1961.48 2891.86 1960.18 2892.43 1959.09 2893.01 1957.99 2893.42 1956.96 2893.67 1955.99 2893.92 1955.02 2894.04 1954.05 2894.04 1953.07 2894.04 1951.51 2893.79 1950.13 2893.29 1948.93 2892.79 1947.73 2892.03 1946.79 2891 1946.1 2889.97 1945.41 2888.67 1945.07 2887.11 1945.07 2883.21 1945.07 2880.58 1947.24 2879.23 1951.57L2875.45 1951.57 2875.45 1945.57C2877.97 1944.38 2880.33 1943.52 2882.53 1942.99 2884.73 1942.46 2886.7 1942.2 2888.45 1942.2ZM2854.67 1942.2 2856.39 1942.2C2856.26 1944.2 2856.2 1946.97 2856.2 1950.51L2856.2 1977.2C2856.2 1978.4 2856.27 1979.32 2856.4 1979.93 2856.54 1980.54 2856.78 1981.04 2857.12 1981.43 2857.47 1981.82 2857.96 1982.12 2858.61 1982.34 2859.25 1982.55 2860.06 1982.72 2861.04 1982.84 2862.02 1982.95 2863.31 1983.03 2864.92 1983.07L2864.92 1985.35 2841.82 1985.35 2841.82 1983.07C2844.14 1982.97 2845.79 1982.83 2846.78 1982.65 2847.77 1982.47 2848.52 1982.21 2849.04 1981.85 2849.56 1981.5 2849.94 1981 2850.18 1980.35 2850.42 1979.71 2850.54 1978.65 2850.54 1977.2L2850.54 1951.85C2850.54 1951.02 2850.4 1950.41 2850.11 1950.02 2849.81 1949.64 2849.39 1949.45 2848.82 1949.45 2848.16 1949.45 2847.21 1949.79 2845.98 1950.48 2844.75 1951.16 2843.23 1952.11 2841.42 1953.32L2840.04 1950.91Z" fill="#292934" fill-rule="evenodd"/><text fill="#000000" fill-opacity="0" font-family="Arial,Arial_MSFontService,sans-serif" font-size="43.1562" x="2840.04" y="1979.96">12</text><path d="M2938.76 1964.98 2977.26 1964.98 2977.26 1969.13 2938.76 1969.13Z" fill="#292934" fill-rule="evenodd"/><text fill="#000000" fill-opacity="0" font-family="Arial,Arial_MSFontService,sans-serif" font-size="4.15625" x="2938.76" y="1968.61">−</text><path d="M3034.43 1893.64 3036.15 1893.64C3036.02 1895.64 3035.96 1898.41 3035.96 1901.95L3035.96 1928.64C3035.96 1929.84 3036.03 1930.75 3036.16 1931.37 3036.3 1931.98 3036.54 1932.48 3036.88 1932.87 3037.22 1933.25 3037.72 1933.56 3038.36 1933.78 3039.01 1933.99 3039.82 1934.16 3040.8 1934.28 3041.78 1934.39 3043.07 1934.47 3044.68 1934.51L3044.68 1936.79 3021.58 1936.79 3021.58 1934.51C3023.9 1934.41 3025.55 1934.27 3026.54 1934.09 3027.53 1933.91 3028.28 1933.65 3028.8 1933.29 3029.32 1932.94 3029.7 1932.44 3029.94 1931.79 3030.18 1931.15 3030.3 1930.09 3030.3 1928.64L3030.3 1903.29C3030.3 1902.46 3030.16 1901.85 3029.86 1901.46 3029.57 1901.08 3029.15 1900.89 3028.58 1900.89 3027.92 1900.89 3026.97 1901.23 3025.74 1901.92 3024.51 1902.6 3022.99 1903.55 3021.18 1904.76L3019.8 1902.35Z" fill="#292934" fill-rule="evenodd"/><text fill="#000000" fill-opacity="0" font-family="Arial,Arial_MSFontService,sans-serif" font-size="43.1562" x="3019.8" y="1931.4">1</text><path d="M3050.2 1987.77C3048.76 1987.77 3047.56 1988.2 3046.59 1989.06 3045.62 1989.91 3044.84 1991.14 3044.24 1992.74 3043.65 1994.35 3043.23 1996.3 3042.98 1998.6 3042.73 2000.9 3042.6 2003.5 3042.6 2006.4 3042.6 2013.19 3043.23 2018.18 3044.49 2021.35 3045.75 2024.53 3047.71 2026.12 3050.35 2026.12 3052.87 2026.12 3054.74 2024.62 3055.96 2021.63 3057.18 2018.64 3057.79 2014.01 3057.79 2007.74 3057.79 2002.95 3057.48 1999.07 3056.85 1996.1 3056.23 1993.13 3055.36 1991 3054.24 1989.71 3053.13 1988.42 3051.78 1987.77 3050.2 1987.77ZM3050.35 1985.12C3054.92 1985.12 3058.31 1986.88 3060.54 1990.4 3062.77 1993.92 3063.89 1999.24 3063.89 2006.37 3063.89 2013.74 3062.69 2019.32 3060.31 2023.1 3057.92 2026.88 3054.44 2028.77 3049.85 2028.77 3045.35 2028.77 3042 2027 3039.81 2023.46 3037.61 2019.92 3036.51 2014.55 3036.51 2007.34 3036.51 2003.5 3036.85 2000.19 3037.53 1997.4 3038.2 1994.61 3039.15 1992.3 3040.37 1990.48 3041.59 1988.65 3043.05 1987.31 3044.76 1986.43 3046.47 1985.56 3048.33 1985.12 3050.35 1985.12ZM3023.2 1983.56 3025.64 1983.56 3025.17 1990.81 3007.2 1990.81 3007.2 2004.52C3008.28 2004.07 3009.46 2003.72 3010.73 2003.49 3012 2003.26 3013.27 2003.15 3014.54 2003.15 3017.02 2003.15 3019.22 2003.65 3021.14 2004.67 3023.05 2005.68 3024.53 2007.11 3025.57 2008.98 3026.61 2010.84 3027.14 2013 3027.14 2015.46 3027.14 2018.25 3026.55 2020.65 3025.39 2022.65 3024.22 2024.65 3022.53 2026.17 3020.32 2027.21 3018.11 2028.25 3015.5 2028.77 3012.48 2028.77 3008.87 2028.77 3005.1 2028.04 3001.17 2026.56L3001.17 2019.93 3004.95 2019.93C3005.57 2022.06 3006.52 2023.62 3007.78 2024.62 3009.04 2025.62 3010.67 2026.12 3012.67 2026.12 3015.44 2026.12 3017.53 2025.29 3018.95 2023.62 3020.36 2021.95 3021.07 2019.46 3021.07 2016.15 3021.07 2013.94 3020.7 2012.11 3019.95 2010.67 3019.2 2009.22 3018.19 2008.17 3016.92 2007.52 3015.65 2006.88 3014.17 2006.56 3012.48 2006.56 3011.06 2006.56 3009.84 2006.64 3008.82 2006.82 3007.8 2007 3006.71 2007.27 3005.54 2007.65L3003.04 2006.18 3003.04 1985.62 3020.26 1985.62C3020.97 1985.62 3021.48 1985.56 3021.79 1985.45 3022.1 1985.33 3022.35 1985.15 3022.54 1984.92 3022.73 1984.68 3022.95 1984.22 3023.2 1983.56Z" fill="#292934" fill-rule="evenodd"/><text fill="#000000" fill-opacity="0" font-family="Arial,Arial_MSFontService,sans-serif" font-size="45.2188" x="3001.17" y="2023.12">50</text><path d="M2996.66 1965.36 3067.66 1965.36 3067.66 1969.36 2996.66 1969.36Z" fill="#292934" fill-rule="evenodd"/><path d="M3104.38 1944.95C3102.13 1944.95 3100.03 1945.75 3098.08 1947.35 3096.13 1948.96 3094.43 1951.25 3092.96 1954.23 3091.49 1957.21 3090.35 1960.48 3089.53 1964.04 3088.72 1967.6 3088.32 1970.75 3088.32 1973.48 3088.32 1979.91 3090.66 1983.13 3095.35 1983.13 3098.24 1983.13 3100.9 1981.78 3103.32 1979.09 3105.73 1976.39 3107.68 1972.65 3109.16 1967.88 3110.64 1963.11 3111.38 1958.65 3111.38 1954.51 3111.38 1951.4 3110.81 1949.03 3109.66 1947.4 3108.51 1945.76 3106.75 1944.95 3104.38 1944.95ZM3104.72 1942.2C3108.74 1942.2 3111.84 1943.36 3114.02 1945.7 3116.2 1948.03 3117.28 1951.4 3117.28 1955.82 3117.28 1958.74 3116.83 1962 3115.91 1965.6 3114.99 1969.21 3113.73 1972.39 3112.13 1975.15 3110.52 1977.91 3108.67 1980.13 3106.55 1981.82 3104.44 1983.51 3102.14 1984.67 3099.66 1985.32 3100.14 1986.84 3100.59 1988.1 3101 1989.09 3101.42 1990.08 3101.82 1990.88 3102.21 1991.49 3102.59 1992.11 3102.97 1992.57 3103.35 1992.87 3103.72 1993.17 3104.1 1993.37 3104.47 1993.48 3104.85 1993.58 3105.28 1993.63 3105.78 1993.63 3106.58 1993.63 3107.38 1993.4 3108.19 1992.95 3109 1992.49 3109.91 1991.7 3110.91 1990.57L3112.53 1992.32C3110.87 1994.13 3109.32 1995.41 3107.88 1996.16 3106.44 1996.91 3104.96 1997.29 3103.44 1997.29 3101.71 1997.29 3100.3 1996.9 3099.21 1996.13 3098.11 1995.36 3097.17 1994.13 3096.36 1992.45 3095.56 1990.76 3094.78 1988.55 3094.03 1985.82 3090.26 1985.61 3087.39 1984.36 3085.41 1982.07 3083.43 1979.78 3082.44 1976.55 3082.44 1972.38 3082.44 1969.26 3082.97 1965.73 3084.02 1961.79 3085.07 1957.85 3086.59 1954.38 3088.58 1951.37 3090.57 1948.36 3092.95 1946.08 3095.71 1944.52 3098.47 1942.97 3101.47 1942.2 3104.72 1942.2Z" fill="#292934" fill-rule="evenodd"/><text fill="#000000" fill-opacity="0" font-family="Arial,Arial_MSFontService,sans-serif" font-size="55.0938" x="3082.44" y="1990.4">𝑄</text><path d="M3136.43 1971.06C3135.9 1971.06 3135.43 1971.07 3135.02 1971.08 3134.61 1971.1 3134.24 1971.12 3133.91 1971.15L3128.33 1996C3128.39 1996 3128.53 1996.01 3128.74 1996.02 3128.96 1996.02 3129.2 1996.03 3129.46 1996.04 3129.72 1996.05 3129.98 1996.05 3130.25 1996.06 3130.51 1996.07 3130.73 1996.07 3130.9 1996.07 3133.41 1996.07 3135.53 1995.69 3137.27 1994.91 3139.01 1994.14 3140.49 1992.94 3141.73 1991.3 3142.97 1989.6 3143.88 1987.82 3144.46 1985.96 3145.05 1984.11 3145.34 1982.09 3145.34 1979.92 3145.34 1978.51 3145.14 1977.26 3144.75 1976.15 3144.36 1975.05 3143.79 1974.12 3143.03 1973.37 3142.27 1972.61 3141.34 1972.03 3140.23 1971.64 3139.12 1971.25 3137.85 1971.06 3136.43 1971.06ZM3126.91 1968.67 3136 1968.67C3137.48 1968.67 3138.77 1968.74 3139.86 1968.88 3140.96 1969.02 3141.9 1969.22 3142.7 1969.5 3143.78 1969.8 3144.78 1970.25 3145.68 1970.83 3146.58 1971.41 3147.36 1972.13 3148.02 1973 3148.68 1973.86 3149.19 1974.87 3149.56 1976.03 3149.93 1977.18 3150.11 1978.48 3150.11 1979.92 3150.11 1982.66 3149.69 1985.16 3148.85 1987.42 3148.01 1989.69 3146.77 1991.63 3145.15 1993.26 3143.53 1994.89 3141.53 1996.16 3139.16 1997.07 3136.79 1997.98 3134.07 1998.44 3130.99 1998.44L3121.24 1998.44 3121.49 1997.04C3121.97 1996.96 3122.35 1996.87 3122.65 1996.77 3122.95 1996.67 3123.22 1996.46 3123.45 1996.13 3123.69 1995.8 3123.91 1995.31 3124.11 1994.65 3124.31 1993.99 3124.54 1993.06 3124.8 1991.85L3128.56 1975.12C3128.71 1974.45 3128.83 1973.85 3128.9 1973.33 3128.98 1972.81 3129.02 1972.37 3129.02 1972 3129.02 1971.33 3128.84 1970.85 3128.49 1970.57 3128.14 1970.28 3127.5 1970.13 3126.56 1970.12Z" fill="#292934" fill-rule="evenodd"/><text fill="#000000" fill-opacity="0" font-family="Arial,Arial_MSFontService,sans-serif" font-size="29.7651" x="3121.24" y="1994.72">𝐷</text><text fill="#292934" font-family="Arial,Arial_MSFontService,sans-serif" font-weight="400" font-size="64" transform="matrix(1 0 0 1 2615.42 978)">Market supply curve:</text><path d="M2797.5 1014.2C2795.25 1014.2 2793.15 1015.01 2791.2 1016.61 2789.26 1018.22 2787.55 1020.51 2786.08 1023.49 2784.61 1026.47 2783.47 1029.74 2782.66 1033.3 2781.85 1036.86 2781.44 1040.01 2781.44 1042.74 2781.44 1049.17 2783.78 1052.39 2788.47 1052.39 2791.37 1052.39 2794.02 1051.04 2796.44 1048.35 2798.86 1045.65 2800.8 1041.91 2802.28 1037.14 2803.76 1032.37 2804.5 1027.91 2804.5 1023.77 2804.5 1020.66 2803.93 1018.29 2802.78 1016.66 2801.64 1015.02 2799.88 1014.2 2797.5 1014.2ZM2797.85 1011.45C2801.87 1011.45 2804.97 1012.62 2807.14 1014.95 2809.32 1017.29 2810.41 1020.66 2810.41 1025.08 2810.41 1028 2809.95 1031.26 2809.03 1034.86 2808.12 1038.47 2806.86 1041.65 2805.25 1044.41 2803.65 1047.17 2801.79 1049.39 2799.67 1051.08 2797.56 1052.77 2795.26 1053.93 2792.78 1054.58 2793.26 1056.1 2793.71 1057.36 2794.13 1058.35 2794.54 1059.34 2794.94 1060.14 2795.33 1060.75 2795.72 1061.37 2796.1 1061.82 2796.47 1062.13 2796.85 1062.43 2797.22 1062.63 2797.6 1062.74 2797.97 1062.84 2798.41 1062.89 2798.91 1062.89 2799.7 1062.89 2800.5 1062.66 2801.31 1062.2 2802.13 1061.75 2803.03 1060.95 2804.03 1059.83L2805.66 1061.58C2803.99 1063.39 2802.44 1064.67 2801 1065.42 2799.56 1066.17 2798.08 1066.55 2796.56 1066.55 2794.83 1066.55 2793.42 1066.16 2792.33 1065.39 2791.24 1064.62 2790.29 1063.39 2789.49 1061.7 2788.68 1060.02 2787.91 1057.81 2787.16 1055.08 2783.39 1054.87 2780.51 1053.62 2778.53 1051.33 2776.55 1049.04 2775.56 1045.81 2775.56 1041.64 2775.56 1038.52 2776.09 1034.99 2777.14 1031.05 2778.19 1027.11 2779.72 1023.64 2781.7 1020.63 2783.69 1017.62 2786.07 1015.34 2788.83 1013.78 2791.59 1012.23 2794.6 1011.45 2797.85 1011.45Z" fill="#292934" fill-rule="evenodd"/><text fill="#000000" fill-opacity="0" font-family="Arial,Arial_MSFontService,sans-serif" font-size="55.0938" x="2775.56" y="1059.66">𝑄</text><path d="M2829.85 1037.5C2831.31 1037.5 2832.7 1037.61 2834.04 1037.83 2835.38 1038.05 2836.78 1038.41 2838.25 1038.9L2836.94 1044.72 2834.44 1044.72C2834.4 1043.87 2834.26 1043.13 2834.04 1042.51 2833.82 1041.89 2833.51 1041.39 2833.11 1040.99 2832.71 1040.6 2832.21 1040.31 2831.6 1040.12 2830.98 1039.93 2830.26 1039.84 2829.42 1039.84 2828.51 1039.84 2827.7 1039.96 2826.96 1040.2 2826.23 1040.45 2825.6 1040.8 2825.08 1041.25 2824.56 1041.7 2824.16 1042.24 2823.87 1042.88 2823.59 1043.51 2823.45 1044.2 2823.45 1044.95 2823.45 1045.52 2823.52 1046.04 2823.66 1046.51 2823.79 1046.99 2824.03 1047.45 2824.37 1047.89 2824.7 1048.33 2825.17 1048.79 2825.76 1049.25 2826.35 1049.7 2827.09 1050.21 2827.99 1050.76 2829.1 1051.45 2830.04 1052.1 2830.83 1052.71 2831.62 1053.32 2832.26 1053.96 2832.76 1054.62 2833.25 1055.27 2833.62 1055.97 2833.85 1056.72 2834.08 1057.46 2834.19 1058.29 2834.19 1059.21 2834.19 1060.54 2833.93 1061.75 2833.4 1062.85 2832.87 1063.96 2832.12 1064.9 2831.15 1065.7 2830.18 1066.5 2829.02 1067.11 2827.66 1067.55 2826.31 1067.98 2824.8 1068.2 2823.13 1068.2 2821.72 1068.2 2820.21 1068.08 2818.58 1067.85 2816.96 1067.61 2815.36 1067.26 2813.79 1066.8L2815.14 1060.61 2817.57 1060.61C2817.62 1062.44 2818.11 1063.77 2819.04 1064.6 2819.98 1065.42 2821.42 1065.84 2823.36 1065.84 2824.35 1065.84 2825.25 1065.71 2826.04 1065.45 2826.84 1065.19 2827.51 1064.81 2828.06 1064.32 2828.61 1063.83 2829.03 1063.24 2829.32 1062.53 2829.62 1061.83 2829.76 1061.04 2829.76 1060.17 2829.76 1059.56 2829.68 1059 2829.53 1058.51 2829.38 1058.01 2829.11 1057.51 2828.73 1057.03 2828.35 1056.54 2827.83 1056.04 2827.18 1055.53 2826.53 1055.03 2825.72 1054.48 2824.76 1053.88 2823.79 1053.28 2822.96 1052.69 2822.25 1052.1 2821.53 1051.51 2820.94 1050.9 2820.47 1050.27 2819.99 1049.63 2819.64 1048.97 2819.4 1048.28 2819.16 1047.59 2819.04 1046.86 2819.04 1046.08 2819.04 1044.79 2819.3 1043.63 2819.8 1042.58 2820.31 1041.53 2821.03 1040.63 2821.97 1039.87 2822.91 1039.11 2824.05 1038.53 2825.39 1038.11 2826.73 1037.7 2828.22 1037.5 2829.85 1037.5Z" fill="#292934" fill-rule="evenodd"/><text fill="#000000" fill-opacity="0" font-family="Arial,Arial_MSFontService,sans-serif" font-size="30.7061" x="2813.79" y="1064.36">𝑆</text><path d="M2864.69 1040.74 2903.19 1040.74 2903.19 1044.89 2864.69 1044.89ZM2864.69 1027.77 2903.19 1027.77 2903.19 1031.92 2864.69 1031.92Z" fill="#292934" fill-rule="evenodd"/><text fill="#000000" fill-opacity="0" font-family="Arial,Arial_MSFontService,sans-serif" font-size="17.125" x="2864.69" y="1042.75">=</text><path d="M3020.05 1014.7C3018.76 1014.7 3017.4 1014.74 3015.99 1014.8L3011.74 1033.74 3014.99 1033.74C3017.51 1033.74 3019.54 1033.48 3021.1 1032.95 3022.65 1032.43 3023.92 1031.63 3024.91 1030.53 3025.9 1029.44 3026.66 1028.14 3027.21 1026.64 3027.75 1025.14 3028.02 1023.5 3028.02 1021.7 3028.02 1019.29 3027.4 1017.52 3026.17 1016.39 3024.95 1015.27 3022.9 1014.7 3020.05 1014.7ZM2979.71 1014.11C2978.27 1014.11 2977.07 1014.54 2976.1 1015.39 2975.13 1016.25 2974.35 1017.48 2973.75 1019.08 2973.16 1020.68 2972.74 1022.64 2972.49 1024.94 2972.24 1027.24 2972.11 1029.84 2972.11 1032.74 2972.11 1039.53 2972.74 1044.51 2974 1047.69 2975.26 1050.87 2977.22 1052.45 2979.86 1052.45 2982.38 1052.45 2984.25 1050.96 2985.47 1047.97 2986.69 1044.98 2987.3 1040.35 2987.3 1034.08 2987.3 1029.29 2986.99 1025.41 2986.36 1022.44 2985.74 1019.47 2984.87 1017.34 2983.75 1016.05 2982.64 1014.76 2981.29 1014.11 2979.71 1014.11ZM3006.96 1011.95 3020.74 1011.95C3023.22 1011.95 3025.25 1012.15 3026.85 1012.53 3028.44 1012.92 3029.75 1013.51 3030.78 1014.31 3031.82 1015.12 3032.59 1016.13 3033.1 1017.36 3033.61 1018.59 3033.86 1020.02 3033.86 1021.64 3033.86 1024.77 3033.12 1027.48 3031.64 1029.77 3030.16 1032.06 3028.16 1033.75 3025.63 1034.83 3023.1 1035.91 3020.06 1036.45 3016.52 1036.45 3014.39 1036.45 3012.62 1036.41 3011.21 1036.33L3009.21 1045.52C3009.02 1046.37 3008.89 1047.03 3008.82 1047.49 3008.74 1047.94 3008.68 1048.44 3008.63 1048.97 3008.58 1049.5 3008.55 1049.98 3008.55 1050.39 3008.55 1051.04 3008.65 1051.54 3008.86 1051.91 3009.07 1052.27 3009.38 1052.54 3009.8 1052.7 3010.22 1052.87 3010.94 1053 3011.96 1053.08L3011.61 1054.61 2998.77 1054.61 2999.11 1053.08C2999.9 1052.95 3000.5 1052.75 3000.89 1052.47 3001.29 1052.19 3001.62 1051.8 3001.89 1051.3 3002.16 1050.8 3002.41 1050.19 3002.64 1049.47 3002.87 1048.75 3003.22 1047.36 3003.67 1045.3L3008.99 1021.24C3009.45 1019.15 3009.67 1017.51 3009.67 1016.3 3009.67 1015.28 3009.44 1014.57 3008.96 1014.17 3008.48 1013.78 3007.7 1013.55 3006.61 1013.49ZM2979.86 1011.45C2984.42 1011.45 2987.82 1013.22 2990.05 1016.74 2992.28 1020.26 2993.39 1025.58 2993.39 1032.7 2993.39 1040.08 2992.2 1045.66 2989.82 1049.44 2987.43 1053.22 2983.95 1055.11 2979.36 1055.11 2974.86 1055.11 2971.51 1053.34 2969.32 1049.8 2967.12 1046.26 2966.02 1040.88 2966.02 1033.67 2966.02 1029.84 2966.36 1026.53 2967.03 1023.74 2967.71 1020.94 2968.66 1018.64 2969.88 1016.81 2971.1 1014.99 2972.56 1013.64 2974.27 1012.77 2975.98 1011.89 2977.84 1011.45 2979.86 1011.45ZM2952.71 1009.89 2955.14 1009.89 2954.67 1017.14 2936.71 1017.14 2936.71 1030.86C2937.79 1030.4 2938.97 1030.06 2940.24 1029.83 2941.51 1029.6 2942.78 1029.49 2944.05 1029.49 2946.53 1029.49 2948.73 1029.99 2950.64 1031 2952.56 1032.01 2954.04 1033.45 2955.08 1035.31 2956.12 1037.18 2956.64 1039.34 2956.64 1041.8 2956.64 1044.59 2956.06 1046.99 2954.89 1048.99 2953.73 1050.99 2952.04 1052.51 2949.83 1053.55 2947.62 1054.59 2945.01 1055.11 2941.99 1055.11 2938.38 1055.11 2934.61 1054.37 2930.67 1052.89L2930.67 1046.27 2934.46 1046.27C2935.08 1048.39 2936.02 1049.95 2937.28 1050.95 2938.54 1051.95 2940.17 1052.45 2942.17 1052.45 2944.95 1052.45 2947.04 1051.62 2948.46 1049.95 2949.87 1048.29 2950.58 1045.8 2950.58 1042.49 2950.58 1040.28 2950.21 1038.45 2949.46 1037 2948.71 1035.55 2947.7 1034.51 2946.42 1033.86 2945.15 1033.22 2943.67 1032.89 2941.99 1032.89 2940.57 1032.89 2939.35 1032.98 2938.33 1033.16 2937.31 1033.34 2936.22 1033.61 2935.05 1033.99L2932.55 1032.52 2932.55 1011.95 2949.77 1011.95C2950.48 1011.95 2950.99 1011.9 2951.3 1011.78 2951.61 1011.67 2951.86 1011.49 2952.05 1011.25 2952.24 1011.01 2952.46 1010.56 2952.71 1009.89Z" fill="#292934" fill-rule="evenodd"/><text fill="#000000" fill-opacity="0" font-family="Arial,Arial_MSFontService,sans-serif" font-size="45.2188" x="2930.67" y="1049.46">50𝑃</text><text fill="#292934" font-family="Arial,Arial_MSFontService,sans-serif" font-weight="400" font-size="64" transform="matrix(1 0 0 1 2602.8 1629)">Market demand curve:</text><path d="M2712.95 1665.92C2710.7 1665.92 2708.6 1666.72 2706.65 1668.33 2704.7 1669.93 2702.99 1672.22 2701.53 1675.2 2700.06 1678.18 2698.92 1681.45 2698.1 1685.01 2697.29 1688.58 2696.89 1691.72 2696.89 1694.45 2696.89 1700.89 2699.23 1704.11 2703.92 1704.11 2706.81 1704.11 2709.47 1702.76 2711.89 1700.06 2714.3 1697.36 2716.25 1693.63 2717.73 1688.86 2719.21 1684.09 2719.95 1679.63 2719.95 1675.48 2719.95 1672.38 2719.37 1670.01 2718.23 1668.37 2717.08 1666.74 2715.32 1665.92 2712.95 1665.92ZM2713.29 1663.17C2717.31 1663.17 2720.41 1664.34 2722.59 1666.67 2724.77 1669 2725.85 1672.38 2725.85 1676.79 2725.85 1679.71 2725.4 1682.97 2724.48 1686.58 2723.56 1690.18 2722.3 1693.36 2720.7 1696.12 2719.09 1698.88 2717.23 1701.11 2715.12 1702.79 2713 1704.48 2710.71 1705.65 2708.23 1706.29 2708.71 1707.82 2709.16 1709.07 2709.57 1710.06 2709.99 1711.05 2710.39 1711.85 2710.78 1712.47 2711.16 1713.08 2711.54 1713.54 2711.92 1713.84 2712.29 1714.14 2712.67 1714.35 2713.04 1714.45 2713.42 1714.56 2713.85 1714.61 2714.35 1714.61 2715.15 1714.61 2715.95 1714.38 2716.76 1713.92 2717.57 1713.46 2718.48 1712.67 2719.48 1711.54L2721.1 1713.29C2719.44 1715.11 2717.89 1716.39 2716.45 1717.14 2715.01 1717.89 2713.53 1718.26 2712.01 1718.26 2710.28 1718.26 2708.87 1717.88 2707.78 1717.11 2706.68 1716.34 2705.73 1715.11 2704.93 1713.42 2704.13 1711.73 2703.35 1709.52 2702.6 1706.79 2698.83 1706.59 2695.96 1705.34 2693.98 1703.04 2692 1700.75 2691.01 1697.52 2691.01 1693.36 2691.01 1690.23 2691.54 1686.7 2692.59 1682.76 2693.64 1678.83 2695.16 1675.35 2697.15 1672.34 2699.14 1669.33 2701.52 1667.05 2704.28 1665.5 2707.04 1663.95 2710.04 1663.17 2713.29 1663.17Z" fill="#292934" fill-rule="evenodd"/><text fill="#000000" fill-opacity="0" font-family="Arial,Arial_MSFontService,sans-serif" font-size="55.0938" x="2691.01" y="1711.38">𝑄</text><path d="M2745 1692.03C2744.47 1692.03 2743.99 1692.04 2743.59 1692.06 2743.18 1692.07 2742.81 1692.09 2742.48 1692.12L2736.9 1716.98C2736.96 1716.98 2737.1 1716.98 2737.31 1716.99 2737.53 1717 2737.76 1717.01 2738.02 1717.01 2738.28 1717.02 2738.55 1717.03 2738.82 1717.04 2739.08 1717.04 2739.3 1717.05 2739.47 1717.05 2741.98 1717.05 2744.1 1716.66 2745.84 1715.89 2747.57 1715.12 2749.06 1713.91 2750.3 1712.27 2751.54 1710.58 2752.45 1708.8 2753.03 1706.94 2753.61 1705.08 2753.9 1703.06 2753.9 1700.89 2753.9 1699.48 2753.71 1698.23 2753.32 1697.13 2752.93 1696.03 2752.36 1695.1 2751.6 1694.34 2750.84 1693.58 2749.91 1693.01 2748.8 1692.62 2747.69 1692.23 2746.42 1692.03 2745 1692.03ZM2735.48 1689.65 2744.56 1689.65C2746.05 1689.65 2747.34 1689.72 2748.43 1689.85 2749.53 1689.99 2750.47 1690.2 2751.27 1690.47 2752.35 1690.78 2753.35 1691.22 2754.25 1691.8 2755.15 1692.38 2755.93 1693.11 2756.59 1693.97 2757.25 1694.84 2757.76 1695.85 2758.13 1697 2758.49 1698.16 2758.68 1699.45 2758.68 1700.89 2758.68 1703.63 2758.26 1706.13 2757.42 1708.4 2756.57 1710.66 2755.34 1712.61 2753.72 1714.24 2752.1 1715.87 2750.1 1717.14 2747.73 1718.05 2745.36 1718.96 2742.64 1719.41 2739.56 1719.41L2729.81 1719.41 2730.06 1718.01C2730.53 1717.93 2730.92 1717.85 2731.22 1717.75 2731.52 1717.65 2731.79 1717.43 2732.02 1717.1 2732.26 1716.78 2732.48 1716.28 2732.68 1715.62 2732.88 1714.97 2733.11 1714.03 2733.37 1712.82L2737.13 1696.09C2737.28 1695.42 2737.4 1694.83 2737.47 1694.3 2737.55 1693.78 2737.59 1693.34 2737.59 1692.97 2737.59 1692.3 2737.41 1691.82 2737.06 1691.54 2736.71 1691.26 2736.07 1691.11 2735.13 1691.09Z" fill="#292934" fill-rule="evenodd"/><text fill="#000000" fill-opacity="0" font-family="Arial,Arial_MSFontService,sans-serif" font-size="29.7651" x="2729.81" y="1715.69">𝐷</text><path d="M2788.39 1692.45 2826.89 1692.45 2826.89 1696.61 2788.39 1696.61ZM2788.39 1679.48 2826.89 1679.48 2826.89 1683.64 2788.39 1683.64Z" fill="#292934" fill-rule="evenodd"/><text fill="#000000" fill-opacity="0" font-family="Arial,Arial_MSFontService,sans-serif" font-size="17.125" x="2788.39" y="1694.47">=</text><path d="M2868.84 1683.83C2867.82 1683.83 2866.83 1683.94 2865.89 1684.17 2864.94 1684.4 2864.05 1684.73 2863.21 1685.17 2862.38 1685.61 2861.57 1686.16 2860.78 1686.83 2860.53 1687.06 2860.34 1687.29 2860.21 1687.54 2860.01 1687.94 2859.87 1688.43 2859.81 1689.01 2859.75 1689.6 2859.71 1690.58 2859.71 1691.95 2859.71 1695.93 2860.38 1698.96 2861.71 1701.04 2863.05 1703.13 2865.07 1704.17 2867.78 1704.17 2869.34 1704.17 2870.65 1703.9 2871.71 1703.36 2872.78 1702.82 2873.64 1702.07 2874.29 1701.12 2874.95 1700.18 2875.42 1699.06 2875.7 1697.78 2875.98 1696.5 2876.12 1695.11 2876.12 1693.61 2876.12 1690.52 2875.49 1688.12 2874.21 1686.4 2872.94 1684.69 2871.15 1683.83 2868.84 1683.83ZM2938.4 1665.83C2936.96 1665.83 2935.76 1666.25 2934.79 1667.11 2933.82 1667.96 2933.04 1669.19 2932.45 1670.79 2931.85 1672.4 2931.43 1674.35 2931.18 1676.65 2930.93 1678.96 2930.81 1681.56 2930.81 1684.45 2930.81 1691.24 2931.44 1696.23 2932.7 1699.4 2933.96 1702.58 2935.91 1704.17 2938.56 1704.17 2941.08 1704.17 2942.95 1702.68 2944.17 1699.69 2945.39 1696.7 2946 1692.07 2946 1685.79 2946 1681 2945.68 1677.12 2945.06 1674.15 2944.43 1671.19 2943.56 1669.06 2942.45 1667.76 2941.33 1666.47 2939.99 1665.83 2938.4 1665.83ZM2903.4 1665.83C2901.96 1665.83 2900.76 1666.25 2899.79 1667.11 2898.82 1667.96 2898.04 1669.19 2897.45 1670.79 2896.85 1672.4 2896.43 1674.35 2896.18 1676.65 2895.93 1678.96 2895.81 1681.56 2895.81 1684.45 2895.81 1691.24 2896.44 1696.23 2897.7 1699.4 2898.96 1702.58 2900.91 1704.17 2903.56 1704.17 2906.08 1704.17 2907.95 1702.68 2909.17 1699.69 2910.39 1696.7 2911 1692.07 2911 1685.79 2911 1681 2910.68 1677.12 2910.06 1674.15 2909.43 1671.19 2908.56 1669.06 2907.45 1667.76 2906.33 1666.47 2904.99 1665.83 2903.4 1665.83ZM2938.56 1663.17C2943.12 1663.17 2946.52 1664.93 2948.75 1668.45 2950.97 1671.97 2952.09 1677.29 2952.09 1684.42 2952.09 1691.79 2950.9 1697.37 2948.51 1701.15 2946.13 1704.94 2942.64 1706.83 2938.06 1706.83 2933.56 1706.83 2930.21 1705.06 2928.01 1701.51 2925.81 1697.97 2924.71 1692.6 2924.71 1685.39 2924.71 1681.56 2925.05 1678.24 2925.73 1675.45 2926.41 1672.66 2927.35 1670.35 2928.57 1668.53 2929.79 1666.71 2931.26 1665.36 2932.96 1664.48 2934.67 1663.61 2936.54 1663.17 2938.56 1663.17ZM2903.56 1663.17C2908.12 1663.17 2911.52 1664.93 2913.75 1668.45 2915.97 1671.97 2917.09 1677.29 2917.09 1684.42 2917.09 1691.79 2915.9 1697.37 2913.51 1701.15 2911.13 1704.94 2907.64 1706.83 2903.06 1706.83 2898.56 1706.83 2895.21 1705.06 2893.01 1701.51 2890.81 1697.97 2889.71 1692.6 2889.71 1685.39 2889.71 1681.56 2890.05 1678.24 2890.73 1675.45 2891.41 1672.66 2892.35 1670.35 2893.57 1668.53 2894.79 1666.71 2896.26 1665.36 2897.96 1664.48 2899.67 1663.61 2901.54 1663.17 2903.56 1663.17ZM2876.87 1663.17 2878.15 1664.89 2878.15 1666.42C2874.94 1666.42 2872.1 1667.11 2869.62 1668.48 2867.14 1669.86 2865.08 1671.88 2863.45 1674.54 2861.81 1677.21 2860.66 1680.38 2860 1684.04L2860.31 1684.17C2862.06 1682.92 2863.78 1682 2865.48 1681.42 2867.18 1680.84 2869.02 1680.54 2871 1680.54 2873.35 1680.54 2875.35 1681.06 2877.01 1682.09 2878.67 1683.12 2879.91 1684.57 2880.75 1686.44 2881.58 1688.3 2882 1690.48 2882 1692.98 2882 1695.69 2881.47 1698.08 2880.43 1700.15 2879.39 1702.23 2877.78 1703.86 2875.6 1705.04 2873.43 1706.23 2870.75 1706.83 2867.56 1706.83 2863 1706.83 2859.55 1705.41 2857.23 1702.58 2854.91 1699.74 2853.75 1695.57 2853.75 1690.04 2853.75 1686.34 2854.33 1682.87 2855.5 1679.64 2856.66 1676.41 2858.32 1673.59 2860.46 1671.19 2862.61 1668.78 2865.1 1666.88 2867.93 1665.5 2870.77 1664.11 2873.75 1663.34 2876.87 1663.17Z" fill="#292934" fill-rule="evenodd"/><text fill="#000000" fill-opacity="0" font-family="Arial,Arial_MSFontService,sans-serif" font-size="43.6562" x="2853.75" y="1701.37">600</text><path d="M2989.48 1685.95 3027.98 1685.95 3027.98 1690.11 2989.48 1690.11Z" fill="#292934" fill-rule="evenodd"/><text fill="#000000" fill-opacity="0" font-family="Arial,Arial_MSFontService,sans-serif" font-size="4.15625" x="2989.48" y="1689.59">−</text><path d="M3141.26 1666.42C3139.97 1666.42 3138.62 1666.45 3137.2 1666.51L3132.95 1685.45 3136.2 1685.45C3138.72 1685.45 3140.76 1685.19 3142.31 1684.67 3143.86 1684.15 3145.13 1683.34 3146.12 1682.25 3147.11 1681.15 3147.88 1679.86 3148.42 1678.36 3148.96 1676.86 3149.23 1675.21 3149.23 1673.42 3149.23 1671 3148.62 1669.23 3147.39 1668.11 3146.16 1666.98 3144.12 1666.42 3141.26 1666.42ZM3100.92 1665.83C3099.48 1665.83 3098.28 1666.25 3097.31 1667.11 3096.34 1667.96 3095.56 1669.19 3094.97 1670.79 3094.37 1672.4 3093.95 1674.35 3093.7 1676.65 3093.45 1678.96 3093.33 1681.56 3093.33 1684.45 3093.33 1691.24 3093.96 1696.23 3095.22 1699.4 3096.48 1702.58 3098.43 1704.17 3101.08 1704.17 3103.6 1704.17 3105.47 1702.68 3106.69 1699.69 3107.9 1696.7 3108.51 1692.07 3108.51 1685.79 3108.51 1681 3108.2 1677.12 3107.58 1674.15 3106.95 1671.19 3106.08 1669.06 3104.97 1667.76 3103.85 1666.47 3102.5 1665.83 3100.92 1665.83ZM3128.17 1663.67 3141.95 1663.67C3144.43 1663.67 3146.47 1663.86 3148.06 1664.25 3149.65 1664.63 3150.97 1665.23 3152 1666.03 3153.03 1666.83 3153.8 1667.85 3154.31 1669.08 3154.82 1670.31 3155.08 1671.73 3155.08 1673.36 3155.08 1676.48 3154.34 1679.19 3152.86 1681.48 3151.38 1683.77 3149.37 1685.46 3146.84 1686.54 3144.31 1687.63 3141.27 1688.17 3137.73 1688.17 3135.61 1688.17 3133.84 1688.13 3132.42 1688.04L3130.42 1697.23C3130.23 1698.09 3130.1 1698.74 3130.03 1699.2 3129.96 1699.66 3129.89 1700.15 3129.84 1700.69 3129.79 1701.22 3129.76 1701.69 3129.76 1702.11 3129.76 1702.75 3129.87 1703.26 3130.08 1703.62 3130.28 1703.99 3130.6 1704.25 3131.01 1704.42 3131.43 1704.59 3132.15 1704.71 3133.17 1704.79L3132.83 1706.33 3119.98 1706.33 3120.33 1704.79C3121.12 1704.67 3121.71 1704.47 3122.11 1704.19 3122.5 1703.9 3122.84 1703.51 3123.11 1703.01 3123.38 1702.51 3123.63 1701.9 3123.86 1701.19 3124.09 1700.47 3124.43 1699.08 3124.89 1697.01L3130.2 1672.95C3130.66 1670.87 3130.89 1669.22 3130.89 1668.01 3130.89 1666.99 3130.65 1666.28 3130.17 1665.89 3129.69 1665.49 3128.91 1665.26 3127.83 1665.2ZM3101.08 1663.17C3105.64 1663.17 3109.03 1664.93 3111.26 1668.45 3113.49 1671.97 3114.61 1677.29 3114.61 1684.42 3114.61 1691.79 3113.42 1697.37 3111.03 1701.15 3108.64 1704.94 3105.16 1706.83 3100.58 1706.83 3096.08 1706.83 3092.73 1705.06 3090.53 1701.51 3088.33 1697.97 3087.23 1692.6 3087.23 1685.39 3087.23 1681.56 3087.57 1678.24 3088.25 1675.45 3088.93 1672.66 3089.87 1670.35 3091.09 1668.53 3092.31 1666.71 3093.77 1665.36 3095.48 1664.48 3097.19 1663.61 3099.06 1663.17 3101.08 1663.17ZM3073.92 1661.61 3076.36 1661.61 3075.89 1668.86 3057.92 1668.86 3057.92 1682.58C3059 1682.12 3060.18 1681.77 3061.45 1681.54 3062.72 1681.32 3063.99 1681.2 3065.26 1681.2 3067.74 1681.2 3069.94 1681.71 3071.86 1682.72 3073.77 1683.73 3075.25 1685.16 3076.3 1687.03 3077.34 1688.89 3077.86 1691.06 3077.86 1693.51 3077.86 1696.31 3077.27 1698.7 3076.11 1700.7 3074.94 1702.7 3073.25 1704.22 3071.05 1705.26 3068.84 1706.31 3066.22 1706.83 3063.2 1706.83 3059.6 1706.83 3055.83 1706.09 3051.89 1704.61L3051.89 1697.98 3055.67 1697.98C3056.3 1700.11 3057.24 1701.67 3058.5 1702.67 3059.76 1703.67 3061.39 1704.17 3063.39 1704.17 3066.16 1704.17 3068.25 1703.34 3069.67 1701.67 3071.09 1700 3071.8 1697.51 3071.8 1694.2 3071.8 1691.99 3071.42 1690.16 3070.67 1688.72 3069.92 1687.27 3068.91 1686.22 3067.64 1685.58 3066.37 1684.93 3064.89 1684.61 3063.2 1684.61 3061.78 1684.61 3060.57 1684.7 3059.55 1684.87 3058.52 1685.05 3057.43 1685.33 3056.26 1685.7L3053.76 1684.23 3053.76 1663.67 3070.98 1663.67C3071.69 1663.67 3072.2 1663.61 3072.51 1663.5 3072.83 1663.38 3073.08 1663.21 3073.26 1662.97 3073.45 1662.73 3073.67 1662.27 3073.92 1661.61Z" fill="#292934" fill-rule="evenodd"/><text fill="#000000" fill-opacity="0" font-family="Arial,Arial_MSFontService,sans-serif" font-size="45.2188" x="3051.89" y="1701.17">50𝑃</text><rect x="1511" y="1614" width="217" height="133" fill="#FFFFFF"/><text fill="#292934" font-family="Arial,Arial_MSFontService,sans-serif" font-weight="400" font-size="83" transform="matrix(1 0 0 1 1544.35 1710)">P=6</text></g></svg>