<svg width="1715" height="1413" xmlns="http://www.w3.org/2000/svg" xmlns:xlink="http://www.w3.org/1999/xlink" xml:space="preserve" overflow="hidden"><g transform="translate(-1590 -655)"><rect x="1595" y="660" width="1705" height="1403" stroke="#FFFFFF" stroke-width="9.53658" stroke-linejoin="round" stroke-miterlimit="10" fill="#FFFFFF"/><path d="M2021 1219C2022.3 1409.33 2023.59 1599.67 2024.89 1790L2398.11 1502.56 2402 1219" fill="#FF0000" fill-rule="evenodd" fill-opacity="0.14902"/><path d="M2018.5 831.5 2020.5 1794.5" stroke="#292934" stroke-width="3.4375" stroke-linejoin="round" stroke-miterlimit="10" fill="none" fill-rule="evenodd"/><path d="M2020.5 1794.5 3200.5 1794.5" stroke="#292934" stroke-width="3.4375" stroke-linejoin="round" stroke-miterlimit="10" fill="none" fill-rule="evenodd"/><text fill="#292934" font-family="Arial,Arial_MSFontService,sans-serif" font-weight="700" font-size="83" transform="matrix(1 0 0 1 1766.2 947)">P</text><text fill="#292934" font-family="Arial,Arial_MSFontService,sans-serif" font-weight="700" font-size="83" transform="matrix(1 0 0 1 2905.67 1918)">Q</text><text fill="#292934" font-family="Arial,Arial_MSFontService,sans-serif" font-weight="700" font-size="83" text-decoration="underline" transform="matrix(1 0 0 1 2475.17 850)">Monopoly</text><path d="M2026.5 912.5 3145.5 1785.5" stroke="#292934" stroke-width="3.4375" stroke-linejoin="round" stroke-miterlimit="10" fill="none" fill-rule="evenodd"/><path d="M0 0 976 749" stroke="#292934" stroke-width="3.4375" stroke-linejoin="round" stroke-miterlimit="10" fill="none" fill-rule="evenodd" transform="matrix(1 0 0 -1 2022.5 1785.5)"/><path d="M2988.74 937.345 3003.21 937.345 3007.83 976.657 3031.46 937.345 3044.22 937.345 3043.78 939.331C3042.75 939.547 3042.01 939.79 3041.57 940.06 3041.12 940.331 3040.72 940.736 3040.35 941.276 3039.99 941.817 3039.62 942.661 3039.26 943.809 3038.89 944.958 3038.43 946.829 3037.86 949.422L3030.93 980.872C3030.58 982.466 3030.35 983.729 3030.24 984.661 3030.13 985.593 3030.08 986.437 3030.08 987.194 3030.08 988.41 3030.38 989.267 3030.99 989.767 3031.6 990.267 3032.62 990.571 3034.05 990.679L3033.6 992.665 3017.39 992.665 3017.84 990.679C3018.87 990.517 3019.64 990.254 3020.15 989.889 3020.66 989.524 3021.1 989.018 3021.45 988.369 3021.8 987.721 3022.12 986.93 3022.42 985.998 3022.72 985.066 3023.16 983.263 3023.76 980.588L3029.15 956.15C3029.9 952.773 3030.77 949.409 3031.74 946.059L3031.17 946.059C3030.34 947.653 3028.44 950.895 3025.5 955.785L3007.06 986.221 3002.64 986.221 2999.28 960.162C2998.79 956.488 2998.25 951.543 2997.66 945.329L2996.85 945.329C2995.93 951.381 2994.9 956.987 2993.77 962.148L2989.63 980.872C2989.07 983.438 2988.78 985.546 2988.78 987.194 2988.78 988.41 2989.09 989.267 2989.69 989.767 2990.3 990.267 2991.32 990.571 2992.75 990.679L2992.31 992.665 2978.12 992.665 2978.57 990.679C2979.6 990.517 2980.37 990.254 2980.88 989.889 2981.39 989.524 2981.82 989.018 2982.18 988.369 2982.53 987.721 2982.85 986.93 2983.15 985.998 2983.45 985.066 2983.89 983.263 2984.49 980.588L2991.38 949.382C2991.65 948.22 2991.86 947.112 2992.02 946.059 2992.19 945.005 2992.27 943.938 2992.27 942.857 2992.27 941.587 2991.95 940.702 2991.31 940.202 2990.68 939.703 2989.67 939.412 2988.3 939.331ZM3080.38 936.697C3082.84 936.697 3085.12 936.845 3087.21 937.143 3089.31 937.44 3091.64 937.98 3094.2 938.764L3091.77 949.747 3087.88 949.747C3087.66 946.423 3086.94 944.025 3085.71 942.553 3084.48 941.08 3082.5 940.344 3079.77 940.344 3076.05 940.344 3072.58 942.208 3069.38 945.937 3066.18 949.665 3063.65 954.59 3061.78 960.709 3059.92 966.829 3058.98 972.509 3058.98 977.751 3058.98 981.858 3059.71 984.884 3061.17 986.829 3062.63 988.774 3064.87 989.747 3067.9 989.747 3069.93 989.747 3071.7 989.443 3073.21 988.835 3074.72 988.227 3076.14 987.201 3077.46 985.755 3078.79 984.31 3080.1 982.29 3081.4 979.696L3085.29 979.696 3082.81 991.206C3077.76 992.611 3072.47 993.313 3066.93 993.313 3061.85 993.313 3057.98 991.854 3055.34 988.936 3052.69 986.018 3051.37 981.75 3051.37 976.13 3051.37 972.158 3052.07 967.579 3053.49 962.391 3054.91 957.204 3056.92 952.651 3059.51 948.733 3062.1 944.816 3065.17 941.83 3068.71 939.777 3072.25 937.723 3076.14 936.697 3080.38 936.697Z" fill="#292934" fill-rule="evenodd"/><text fill="#000000" fill-opacity="0" font-family="Arial,Arial_MSFontService,sans-serif" font-size="56.6167" x="2978.12" y="986.236">𝑀𝐶</text><text fill="#292934" font-family="Arial,Arial_MSFontService,sans-serif" font-weight="400" font-size="83" transform="matrix(1 0 0 1 1891.32 946)">12</text><text fill="#292934" font-family="Arial,Arial_MSFontService,sans-serif" font-weight="400" font-size="83" transform="matrix(1 0 0 1 1911.18 1815)">0</text><path d="M0 0 0.000360892 579.791" stroke="#93A299" stroke-width="3.4375" stroke-linejoin="round" stroke-miterlimit="10" stroke-dasharray="13.75 10.3125" fill="none" fill-rule="evenodd" transform="matrix(1 0 0 -1 2403.5 1795.29)"/><path d="M0 0 385 0.000360892" stroke="#93A299" stroke-width="3.4375" stroke-linejoin="round" stroke-miterlimit="10" stroke-dasharray="13.75 10.3125" fill="none" fill-rule="evenodd" transform="matrix(-1 0 0 1 2403.5 1215.5)"/><text fill="#292934" font-family="Arial,Arial_MSFontService,sans-serif" font-weight="400" font-size="83" transform="matrix(1 0 0 1 2325.8 1920)">200   300</text><text fill="#292934" font-family="Arial,Arial_MSFontService,sans-serif" font-weight="400" font-size="83" transform="matrix(1 0 0 1 1914.46 1247)">8</text><path d="M2019.5 908.5 2588.5 1785.5" stroke="#292934" stroke-width="3.4375" stroke-linejoin="round" stroke-miterlimit="10" fill="none" fill-rule="evenodd"/><text fill="#292934" font-family="Arial,Arial_MSFontService,sans-serif" font-weight="400" font-size="83" transform="matrix(1 0 0 1 2625.52 1721)">MR</text><path d="M0 0 365.834 0.000360892" stroke="#93A299" stroke-width="3.4375" stroke-linejoin="round" stroke-miterlimit="10" stroke-dasharray="13.75 10.3125" fill="none" fill-rule="evenodd" transform="matrix(-1 0 0 1 2398.33 1497.5)"/><path d="M0 0 561.683 0.000360892" stroke="#93A299" stroke-width="3.4375" stroke-linejoin="round" stroke-miterlimit="10" stroke-dasharray="13.75 10.3125" fill="none" fill-rule="evenodd" transform="matrix(-1 0 0 1 2588.18 1354.5)"/><path d="M0 0 0.000360892 448.219" stroke="#93A299" stroke-width="3.4375" stroke-linejoin="round" stroke-miterlimit="10" stroke-dasharray="13.75 10.3125" fill="none" fill-rule="evenodd" transform="matrix(1 0 0 -1 2588.5 1794.72)"/><text fill="#292934" font-family="Arial,Arial_MSFontService,sans-serif" font-weight="400" font-size="83" transform="matrix(1 0 0 1 1908 1381)">6</text><text fill="#292934" font-family="Arial,Arial_MSFontService,sans-serif" font-weight="400" font-size="83" transform="matrix(1 0 0 1 1912.52 1533)">4</text><path d="M2021 913 2024.89 1223 2406 1219.13" fill="#92D050" fill-rule="evenodd" fill-opacity="0.2"/><path d="M2410.87 1227 2407 1495 2585 1355.17" fill="#A6A6A6" fill-rule="evenodd" fill-opacity="0.501961"/><rect x="2026" y="1215" width="381" height="145" stroke="#292934" stroke-width="9.53658" stroke-linejoin="round" stroke-miterlimit="10" fill="#93A299" fill-opacity="0.501961"/><text font-family="Arial,Arial_MSFontService,sans-serif" font-weight="700" font-size="83" transform="matrix(1 0 0 1 2187 1318)">A</text><text fill="#292934" font-family="Arial,Arial_MSFontService,sans-serif" font-weight="400" font-size="83" transform="matrix(1 0 0 1 3092.71 1636)">D</text></g></svg>