<svg width="3106" height="1375" xmlns="http://www.w3.org/2000/svg" xmlns:xlink="http://www.w3.org/1999/xlink" xml:space="preserve" overflow="hidden"><defs><clipPath id="clip0"><rect x="165" y="963" width="3106" height="1375"/></clipPath></defs><g clip-path="url(#clip0)" transform="translate(-165 -963)"><rect x="165" y="963" width="3106" height="1375" fill="#FFFFFF"/><path d="M472.5 1212.5 472.501 2119.5" stroke="#292934" stroke-width="3.4375" stroke-linejoin="round" stroke-miterlimit="10" fill="none" fill-rule="evenodd"/><path d="M472.5 2119.5 1462.5 2119.5" stroke="#292934" stroke-width="3.4375" stroke-linejoin="round" stroke-miterlimit="10" fill="none" fill-rule="evenodd"/><text fill="#292934" font-family="Arial,Arial_MSFontService,sans-serif" font-weight="700" font-size="83" transform="matrix(1 0 0 1 340.119 1363)">P</text><text fill="#292934" font-family="Arial,Arial_MSFontService,sans-serif" font-weight="700" font-size="83" transform="matrix(1 0 0 1 1357.62 2243)">q</text><path d="M1873.5 1157.5 1875.5 2119.5" stroke="#292934" stroke-width="3.4375" stroke-linejoin="round" stroke-miterlimit="10" fill="none" fill-rule="evenodd"/><path d="M1875.5 2119.5 2865.5 2119.5" stroke="#292934" stroke-width="3.4375" stroke-linejoin="round" stroke-miterlimit="10" fill="none" fill-rule="evenodd"/><text fill="#292934" font-family="Arial,Arial_MSFontService,sans-serif" font-weight="700" font-size="83" transform="matrix(1 0 0 1 1793.04 1279)">P</text><text fill="#292934" font-family="Arial,Arial_MSFontService,sans-serif" font-weight="700" font-size="83" transform="matrix(1 0 0 1 2760.12 2243)">Q</text><text fill="#292934" font-family="Arial,Arial_MSFontService,sans-serif" font-weight="700" font-size="83" text-decoration="underline" transform="matrix(1 0 0 1 670.119 1171)">Individual Firm</text><text fill="#292934" font-family="Arial,Arial_MSFontService,sans-serif" font-weight="700" font-size="83" text-decoration="underline" transform="matrix(1 0 0 1 2329.61 1175)">Market</text><path d="M1881.5 1237.5 2780.5 1927.5" stroke="#292934" stroke-width="3.4375" stroke-linejoin="round" stroke-miterlimit="10" fill="none" fill-rule="evenodd"/><path d="M0 0 977 749" stroke="#292934" stroke-width="3.4375" stroke-linejoin="round" stroke-miterlimit="10" fill="none" fill-rule="evenodd" transform="matrix(1 0 0 -1 1876.5 2110.5)"/><path d="M0 0 1980 0.000360892" stroke="#292934" stroke-width="3.4375" stroke-linejoin="round" stroke-miterlimit="10" stroke-dasharray="13.75 10.3125" fill="none" fill-rule="evenodd" transform="matrix(-1 0 0 1 2452.5 1679.5)"/><path d="M472.5 1679.5 1435.5 1679.5" stroke="#292934" stroke-width="3.4375" stroke-linejoin="round" stroke-miterlimit="10" fill="none" fill-rule="evenodd"/><text fill="#292934" font-family="Arial,Arial_MSFontService,sans-serif" font-weight="400" font-size="83" transform="matrix(1 0 0 1 1393.14 1783)">MR</text><path d="M857 1676C857 1670.48 862.373 1666 869 1666 875.627 1666 881 1670.48 881 1676 881 1681.52 875.627 1686 869 1686 862.373 1686 857 1681.52 857 1676Z" stroke="#6B766F" stroke-width="9.53658" stroke-linejoin="round" stroke-miterlimit="10" fill="#93A299" fill-rule="evenodd"/><text fill="#292934" font-family="Arial,Arial_MSFontService,sans-serif" font-weight="400" font-size="83" transform="matrix(1 0 0 1 281.759 1716)">P=6</text><text fill="#292934" font-family="Arial,Arial_MSFontService,sans-serif" font-weight="400" font-size="83" transform="matrix(1 0 0 1 781.764 2223)">q*=3</text><path d="M868.5 1686.5 868.501 2119.62" stroke="#93A299" stroke-width="3.4375" stroke-linejoin="round" stroke-miterlimit="10" fill="none" fill-rule="evenodd"/><path d="M0 0 585 0.000360892" stroke="#292934" stroke-width="3.4375" stroke-linejoin="round" stroke-miterlimit="10" stroke-dasharray="13.75 10.3125" fill="none" fill-rule="evenodd" transform="matrix(-1 0 0 1 2452.5 1679.5)"/><path d="M2445.5 2134.5 2445.5 1676.5" stroke="#292934" stroke-width="3.4375" stroke-linejoin="round" stroke-miterlimit="10" stroke-dasharray="13.75 10.3125" fill="none" fill-rule="evenodd"/><path d="M0 0 708.984 786.042" stroke="#93A299" stroke-width="3.4375" stroke-linejoin="round" stroke-miterlimit="10" fill="none" fill-rule="evenodd" transform="matrix(1 0 0 -1 472.5 2119.54)"/><text fill="#292934" font-family="Arial,Arial_MSFontService,sans-serif" font-weight="400" font-size="83" transform="matrix(1 0 0 1 2338.95 2246)">Q=300</text><text fill="#292934" font-family="Arial,Arial_MSFontService,sans-serif" font-weight="400" font-size="83" transform="matrix(1 0 0 1 2846.22 2004)">D</text><text fill="#292934" font-family="Arial,Arial_MSFontService,sans-serif" font-weight="400" font-size="83" transform="matrix(1 0 0 1 2904.86 1370)">S</text><text fill="#292934" font-family="Arial,Arial_MSFontService,sans-serif" font-weight="400" font-size="83" transform="matrix(1 0 0 1 1204.71 1338)">MC</text><path d="M645 1406C694.828 1538 744.656 1670 858.549 1677.77 972.443 1685.53 1242.29 1495.3 1328.36 1452.59 1414.42 1409.88 1394.69 1415.71 1374.95 1421.53" stroke="#6B766F" stroke-width="9.53658" stroke-linejoin="round" stroke-miterlimit="10" fill="none" fill-rule="evenodd"/><text fill="#292934" font-family="Arial,Arial_MSFontService,sans-serif" font-weight="400" font-size="83" transform="matrix(1 0 0 1 1387.85 1371)">AC = TC/q</text></g></svg>