<svg width="3061" height="1393" xmlns="http://www.w3.org/2000/svg" xmlns:xlink="http://www.w3.org/1999/xlink" xml:space="preserve" overflow="hidden"><g transform="translate(-38 -977)"><rect x="251" y="1626" width="578" height="519" fill="#E9ECEB"/><text fill="#A6A6A6" font-family="Arial,Arial_MSFontService,sans-serif" font-weight="400" font-size="83" transform="matrix(1 0 0 1 434.716 1817)">TR(q)</text><text fill="#292934" font-family="Arial,Arial_MSFontService,sans-serif" font-weight="400" font-size="83" text-decoration="underline" transform="matrix(1 0 0 1 363 1087)">Perfectly Competitive Firm</text><text fill="#292934" font-family="Arial,Arial_MSFontService,sans-serif" font-weight="400" font-size="83" text-decoration="underline" transform="matrix(1 0 0 1 2178 1082)">Monopoly</text><path d="M248.5 1210.5 248.5 2145.5" stroke="#93A299" stroke-width="3.4375" stroke-linejoin="round" stroke-miterlimit="10" fill="none" fill-rule="evenodd"/><path d="M248.5 2145.5 1403.5 2145.5" stroke="#93A299" stroke-width="3.4375" stroke-linejoin="round" stroke-miterlimit="10" fill="none" fill-rule="evenodd"/><text fill="#292934" font-family="Arial,Arial_MSFontService,sans-serif" font-weight="400" font-size="83" transform="matrix(1 0 0 1 88 1499)">P</text><text fill="#292934" font-family="Arial,Arial_MSFontService,sans-serif" font-weight="400" font-size="83" transform="matrix(1 0 0 1 1243 2301)">q</text><path d="M1942.5 1210.5 1942.5 2145.5" stroke="#93A299" stroke-width="3.4375" stroke-linejoin="round" stroke-miterlimit="10" fill="none" fill-rule="evenodd"/><path d="M1942.5 2145.5 3097.5 2145.5" stroke="#93A299" stroke-width="3.4375" stroke-linejoin="round" stroke-miterlimit="10" fill="none" fill-rule="evenodd"/><text fill="#292934" font-family="Arial,Arial_MSFontService,sans-serif" font-weight="400" font-size="83" transform="matrix(1 0 0 1 1782.2 1499)">P</text><text fill="#292934" font-family="Arial,Arial_MSFontService,sans-serif" font-weight="400" font-size="83" transform="matrix(1 0 0 1 2937.2 2301)">q</text><path d="M247.5 1623.5 1322.93 1623.5" stroke="#93A299" stroke-width="3.4375" stroke-linejoin="round" stroke-miterlimit="10" fill="none" fill-rule="evenodd"/><path d="M0 0 0.000360892 522.5" stroke="#93A299" stroke-width="3.4375" stroke-linejoin="round" stroke-miterlimit="10" fill="none" fill-rule="evenodd" transform="matrix(1 0 0 -1 825.5 2146)"/><text fill="#292934" font-family="Arial,Arial_MSFontService,sans-serif" font-weight="400" font-size="50" transform="matrix(1 0 0 1 1176.59 1531)">Demand curve </text><text fill="#292934" font-family="Arial,Arial_MSFontService,sans-serif" font-weight="400" font-size="50" transform="matrix(1 0 0 1 1176.59 1592)">for PC firm</text><text fill="#292934" font-family="Arial,Arial_MSFontService,sans-serif" font-weight="400" font-size="55" transform="matrix(1 0 0 1 800.164 2215)">q</text></g></svg>