<svg width="3080" height="1375" xmlns="http://www.w3.org/2000/svg" xmlns:xlink="http://www.w3.org/1999/xlink" xml:space="preserve" overflow="hidden"><defs><clipPath id="clip0"><rect x="110" y="963" width="3080" height="1375"/></clipPath></defs><g clip-path="url(#clip0)" transform="translate(-110 -963)"><rect x="110" y="963" width="3080" height="1375" fill="#FFFFFF"/><path d="M440.5 1210.5 440.5 2118.5" stroke="#292934" stroke-width="3.4375" stroke-linejoin="round" stroke-miterlimit="10" fill="none" fill-rule="evenodd"/><path d="M440.5 2118.5 1430.5 2118.5" stroke="#292934" stroke-width="3.4375" stroke-linejoin="round" stroke-miterlimit="10" fill="none" fill-rule="evenodd"/><text fill="#292934" font-family="Arial,Arial_MSFontService,sans-serif" font-weight="700" font-size="83" transform="matrix(1 0 0 1 308 1362)">P</text><text fill="#292934" font-family="Arial,Arial_MSFontService,sans-serif" font-weight="700" font-size="83" transform="matrix(1 0 0 1 1325.5 2242)">q</text><path d="M1841.5 1155.5 1843.5 2118.5" stroke="#292934" stroke-width="3.4375" stroke-linejoin="round" stroke-miterlimit="10" fill="none" fill-rule="evenodd"/><path d="M1843.5 2118.5 2833.5 2118.5" stroke="#292934" stroke-width="3.4375" stroke-linejoin="round" stroke-miterlimit="10" fill="none" fill-rule="evenodd"/><text fill="#292934" font-family="Arial,Arial_MSFontService,sans-serif" font-weight="700" font-size="83" transform="matrix(1 0 0 1 1760.92 1277)">P</text><text fill="#292934" font-family="Arial,Arial_MSFontService,sans-serif" font-weight="700" font-size="83" transform="matrix(1 0 0 1 2728 2242)">Q</text><text fill="#292934" font-family="Arial,Arial_MSFontService,sans-serif" font-weight="700" font-size="83" transform="matrix(1 0 0 1 638 1169)">Individual Firm</text><text fill="#292934" font-family="Arial,Arial_MSFontService,sans-serif" font-weight="700" font-size="83" transform="matrix(1 0 0 1 2068 1169)">Overall Market</text><path d="M0 0 976 749" stroke="#292934" stroke-width="3.4375" stroke-linejoin="round" stroke-miterlimit="10" fill="none" fill-rule="evenodd" transform="matrix(1 0 0 -1 1844.5 2108.5)"/><text fill="#292934" font-family="Arial,Arial_MSFontService,sans-serif" font-weight="400" font-size="83" transform="matrix(1 0 0 1 2784.72 1330)">S</text><path d="M743.451 1367.26C740.695 1367.26 738.223 1368.37 736.035 1370.6 733.846 1372.83 732.124 1375.83 730.867 1379.62 729.611 1383.4 728.983 1387.17 728.983 1390.92 728.983 1393.73 729.368 1395.83 730.138 1397.22 730.908 1398.62 732.198 1399.31 734.008 1399.31 734.846 1399.31 735.697 1399.13 736.562 1398.77 737.426 1398.4 738.324 1397.81 739.257 1397 740.189 1396.19 741.107 1395.21 742.012 1394.04 742.918 1392.88 743.748 1391.71 744.505 1390.54 745.261 1389.36 745.964 1387.97 746.612 1386.36 747.261 1384.76 747.815 1382.82 748.274 1380.55L748.639 1378.81C749.044 1376.86 749.247 1375.02 749.247 1373.29 749.247 1371.19 748.801 1369.65 747.909 1368.69 747.018 1367.73 745.532 1367.26 743.451 1367.26ZM742.722 1364.05C744.397 1364.05 745.991 1364.25 747.504 1364.64 749.017 1365.03 750.584 1365.73 752.205 1366.73L755.934 1364.05 758.527 1364.7 748.152 1410.78C747.693 1412.83 747.463 1414.37 747.463 1415.4 747.463 1416.59 747.767 1417.43 748.375 1417.93 748.983 1418.43 750.179 1418.77 751.962 1418.93L751.597 1420.91 738.953 1420.91 745.923 1394.33 745.356 1394.08C743.032 1397.35 740.662 1399.84 738.243 1401.54 735.825 1403.24 733.468 1404.09 731.171 1404.09 728.199 1404.09 725.896 1402.97 724.261 1400.73 722.627 1398.49 721.81 1395.34 721.81 1391.29 721.81 1386.64 722.721 1382.18 724.545 1377.89 726.369 1373.61 728.875 1370.23 732.063 1367.76 735.251 1365.29 738.804 1364.05 742.722 1364.05Z" fill="#292934" fill-rule="evenodd"/><text fill="#000000" fill-opacity="0" font-family="Arial,Arial_MSFontService,sans-serif" font-size="56.8599" x="721.81" y="1413.81">𝑞</text><path d="M778.511 1382.6 780.298 1382.6C780.259 1383.67 780.23 1384.63 780.21 1385.48 780.19 1386.33 780.176 1387.16 780.166 1387.96 780.156 1388.76 780.151 1389.55 780.151 1390.33L780.151 1412.6C780.151 1413.2 780.171 1413.72 780.21 1414.16 780.249 1414.6 780.313 1414.97 780.4 1415.28 780.488 1415.58 780.606 1415.84 780.752 1416.05 780.898 1416.27 781.069 1416.45 781.265 1416.61 781.499 1416.84 781.812 1417.02 782.202 1417.15 782.593 1417.28 783.091 1417.39 783.696 1417.47 784.302 1417.56 785.029 1417.63 785.879 1417.68 786.729 1417.73 787.749 1417.76 788.94 1417.78L788.94 1420.33 765.708 1420.33 765.708 1417.78C766.86 1417.74 767.837 1417.7 768.638 1417.65 769.439 1417.6 770.122 1417.53 770.689 1417.44 771.255 1417.36 771.709 1417.26 772.051 1417.15 772.393 1417.04 772.69 1416.91 772.944 1416.76 773.218 1416.58 773.452 1416.39 773.648 1416.18 773.843 1415.98 773.999 1415.72 774.116 1415.41 774.233 1415.1 774.326 1414.71 774.395 1414.27 774.463 1413.82 774.497 1413.26 774.497 1412.6L774.497 1391.59C774.497 1390.83 774.351 1390.29 774.058 1389.98 773.765 1389.67 773.345 1389.51 772.798 1389.51 772.192 1389.51 771.294 1389.82 770.103 1390.45 768.911 1391.07 767.368 1392 765.474 1393.23 765.22 1392.78 764.985 1392.33 764.771 1391.88 764.556 1391.43 764.331 1390.97 764.097 1390.51 766.519 1389.18 768.916 1387.85 771.289 1386.54 773.662 1385.22 776.069 1383.9 778.511 1382.6Z" fill="#292934" fill-rule="evenodd"/><text fill="#000000" fill-opacity="0" font-family="Arial,Arial_MSFontService,sans-serif" font-size="37.7344" x="764.097" y="1415.61">1</text><path d="M0 0 316.251 649.727" stroke="#93A299" stroke-width="3.4375" stroke-linejoin="round" stroke-miterlimit="10" fill="none" fill-rule="evenodd" transform="matrix(1 0 0 -1 440.5 2118.23)"/><path d="M440.5 1664.5 2873.68 1664.5" stroke="#93A299" stroke-width="3.4375" stroke-linejoin="round" stroke-miterlimit="10" stroke-dasharray="13.75 10.3125" fill="none" fill-rule="evenodd"/><path d="M0 0 632.5 647.031" stroke="#93A299" stroke-width="3.4375" stroke-linejoin="round" stroke-miterlimit="10" fill="none" fill-rule="evenodd" transform="matrix(1 0 0 -1 440.5 2115.53)"/><path d="M0 0 985.086 647.031" stroke="#93A299" stroke-width="3.4375" stroke-linejoin="round" stroke-miterlimit="10" fill="none" fill-rule="evenodd" transform="matrix(1 0 0 -1 438.5 2115.53)"/><path d="M924.276 1370.17C921.52 1370.17 919.048 1371.28 916.86 1373.51 914.671 1375.74 912.949 1378.74 911.692 1382.53 910.436 1386.31 909.808 1390.08 909.808 1393.83 909.808 1396.64 910.193 1398.75 910.963 1400.14 911.733 1401.53 913.023 1402.22 914.833 1402.22 915.671 1402.22 916.522 1402.04 917.386 1401.68 918.251 1401.31 919.149 1400.72 920.081 1399.91 921.014 1399.1 921.932 1398.12 922.837 1396.96 923.742 1395.79 924.573 1394.62 925.33 1393.45 926.086 1392.27 926.789 1390.88 927.437 1389.28 928.086 1387.67 928.64 1385.73 929.099 1383.46L929.464 1381.72C929.869 1379.77 930.071 1377.93 930.071 1376.21 930.071 1374.1 929.626 1372.56 928.734 1371.61 927.842 1370.65 926.356 1370.17 924.276 1370.17ZM923.547 1366.96C925.222 1366.96 926.816 1367.16 928.329 1367.55 929.842 1367.94 931.409 1368.64 933.03 1369.64L936.758 1366.96 939.352 1367.61 928.977 1413.69C928.518 1415.75 928.288 1417.29 928.288 1418.31 928.288 1419.5 928.592 1420.35 929.2 1420.85 929.808 1421.35 931.004 1421.68 932.787 1421.84L932.422 1423.82 919.778 1423.82 926.748 1397.24 926.181 1397C923.857 1400.26 921.486 1402.75 919.068 1404.45 916.65 1406.15 914.293 1407.01 911.996 1407.01 909.024 1407.01 906.721 1405.88 905.086 1403.64 903.452 1401.4 902.634 1398.25 902.634 1394.2 902.634 1389.55 903.546 1385.09 905.37 1380.81 907.194 1376.52 909.7 1373.15 912.888 1370.67 916.076 1368.2 919.629 1366.96 923.547 1366.96Z" fill="#292934" fill-rule="evenodd"/><text fill="#000000" fill-opacity="0" font-family="Arial,Arial_MSFontService,sans-serif" font-size="56.8599" x="902.634" y="1416.72">𝑞</text><path d="M959.336 1385.51 961.123 1385.51C961.084 1386.58 961.055 1387.54 961.035 1388.39 961.015 1389.24 961.001 1390.07 960.991 1390.87 960.981 1391.67 960.976 1392.46 960.976 1393.24L960.976 1415.51C960.976 1416.11 960.996 1416.64 961.035 1417.07 961.074 1417.51 961.138 1417.89 961.225 1418.19 961.313 1418.49 961.43 1418.75 961.577 1418.96 961.723 1419.18 961.894 1419.36 962.09 1419.52 962.324 1419.76 962.637 1419.94 963.027 1420.06 963.418 1420.19 963.916 1420.3 964.521 1420.39 965.127 1420.47 965.854 1420.54 966.704 1420.59 967.554 1420.64 968.574 1420.67 969.765 1420.69L969.765 1423.24 946.533 1423.24 946.533 1420.69C947.685 1420.65 948.662 1420.61 949.463 1420.56 950.263 1420.51 950.947 1420.44 951.513 1420.36 952.08 1420.27 952.534 1420.17 952.876 1420.06 953.218 1419.96 953.515 1419.82 953.769 1419.67 954.043 1419.49 954.277 1419.3 954.472 1419.1 954.668 1418.89 954.824 1418.63 954.941 1418.32 955.058 1418.01 955.151 1417.63 955.22 1417.18 955.288 1416.73 955.322 1416.17 955.322 1415.51L955.322 1394.5C955.322 1393.74 955.176 1393.2 954.883 1392.89 954.59 1392.58 954.17 1392.42 953.623 1392.42 953.017 1392.42 952.119 1392.73 950.928 1393.36 949.736 1393.98 948.193 1394.91 946.299 1396.14 946.045 1395.69 945.81 1395.24 945.596 1394.79 945.381 1394.35 945.156 1393.89 944.922 1393.42 947.344 1392.09 949.741 1390.77 952.114 1389.45 954.487 1388.13 956.894 1386.82 959.336 1385.51Z" fill="#292934" fill-rule="evenodd"/><text fill="#000000" fill-opacity="0" font-family="Arial,Arial_MSFontService,sans-serif" font-size="37.7344" x="944.922" y="1418.53">1</text><path d="M1024.38 1356.63 1030.14 1356.63 1030.14 1379.97 1052.22 1379.97 1052.22 1385.36 1030.14 1385.36 1030.14 1408.71 1024.38 1408.71 1024.38 1385.36 1002.29 1385.36 1002.29 1379.97 1024.38 1379.97Z" fill="#292934" fill-rule="evenodd"/><text fill="#000000" fill-opacity="0" font-family="Arial,Arial_MSFontService,sans-serif" font-size="52.0776" x="1002.29" y="1402.2">+</text><path d="M1102.36 1370.17C1099.61 1370.17 1097.13 1371.28 1094.94 1373.51 1092.76 1375.74 1091.03 1378.74 1089.78 1382.53 1088.52 1386.31 1087.89 1390.08 1087.89 1393.83 1087.89 1396.64 1088.28 1398.75 1089.05 1400.14 1089.82 1401.53 1091.11 1402.22 1092.92 1402.22 1093.76 1402.22 1094.61 1402.04 1095.47 1401.68 1096.34 1401.31 1097.23 1400.72 1098.17 1399.91 1099.1 1399.1 1100.02 1398.12 1100.92 1396.96 1101.83 1395.79 1102.66 1394.62 1103.42 1393.45 1104.17 1392.27 1104.87 1390.88 1105.52 1389.28 1106.17 1387.67 1106.72 1385.73 1107.18 1383.46L1107.55 1381.72C1107.95 1379.77 1108.16 1377.93 1108.16 1376.21 1108.16 1374.1 1107.71 1372.56 1106.82 1371.61 1105.93 1370.65 1104.44 1370.17 1102.36 1370.17ZM1101.63 1366.96C1103.31 1366.96 1104.9 1367.16 1106.41 1367.55 1107.93 1367.94 1109.49 1368.64 1111.12 1369.64L1114.84 1366.96 1117.44 1367.61 1107.06 1413.69C1106.6 1415.75 1106.37 1417.29 1106.37 1418.31 1106.37 1419.5 1106.68 1420.35 1107.29 1420.85 1107.89 1421.35 1109.09 1421.68 1110.87 1421.84L1110.51 1423.82 1097.86 1423.82 1104.83 1397.24 1104.27 1397C1101.94 1400.26 1099.57 1402.75 1097.15 1404.45 1094.74 1406.15 1092.38 1407.01 1090.08 1407.01 1087.11 1407.01 1084.81 1405.88 1083.17 1403.64 1081.54 1401.4 1080.72 1398.25 1080.72 1394.2 1080.72 1389.55 1081.63 1385.09 1083.46 1380.81 1085.28 1376.52 1087.79 1373.15 1090.97 1370.67 1094.16 1368.2 1097.71 1366.96 1101.63 1366.96Z" fill="#292934" fill-rule="evenodd"/><text fill="#000000" fill-opacity="0" font-family="Arial,Arial_MSFontService,sans-serif" font-size="56.8599" x="1080.72" y="1416.72">𝑞</text><path d="M1137.04 1385.3C1139.07 1385.3 1140.8 1385.53 1142.24 1385.99 1143.67 1386.45 1144.84 1387.07 1145.74 1387.85 1146.64 1388.63 1147.29 1389.57 1147.69 1390.66 1148.09 1391.76 1148.29 1392.94 1148.29 1394.21 1148.29 1394.97 1148.23 1395.68 1148.13 1396.33 1148.02 1396.99 1147.83 1397.63 1147.57 1398.27 1147.31 1398.9 1146.96 1399.54 1146.53 1400.19 1146.1 1400.83 1145.56 1401.51 1144.92 1402.24 1144.43 1402.86 1143.8 1403.58 1143.01 1404.4 1142.23 1405.22 1141.38 1406.1 1140.45 1407.04 1139.52 1407.98 1138.55 1408.95 1137.54 1409.97 1136.52 1410.99 1135.53 1411.99 1134.58 1412.99 1133.62 1413.98 1132.74 1414.95 1131.94 1415.89 1131.14 1416.83 1130.49 1417.69 1129.98 1418.47L1140.82 1418.47C1141.74 1418.47 1142.47 1418.43 1143.01 1418.36 1143.56 1418.3 1144.02 1418.14 1144.38 1417.91 1144.74 1417.68 1145.05 1417.32 1145.3 1416.84 1145.55 1416.36 1145.85 1415.7 1146.18 1414.86L1148.9 1414.86C1148.81 1416.25 1148.71 1417.65 1148.62 1419.05 1148.54 1420.46 1148.44 1421.86 1148.35 1423.24L1123.53 1423.24 1123.53 1421.72C1124 1420.66 1124.55 1419.62 1125.17 1418.6 1125.8 1417.57 1126.5 1416.53 1127.28 1415.48 1128.06 1414.42 1128.95 1413.33 1129.95 1412.21 1130.94 1411.09 1132.05 1409.92 1133.26 1408.71 1135.09 1406.87 1136.59 1405.31 1137.74 1404.01 1138.89 1402.71 1139.8 1401.55 1140.47 1400.54 1141.13 1399.52 1141.58 1398.58 1141.83 1397.72 1142.07 1396.86 1142.19 1395.95 1142.19 1394.97 1142.19 1393.97 1142.05 1393.06 1141.77 1392.22 1141.49 1391.38 1141.08 1390.66 1140.55 1390.08 1140.03 1389.49 1139.36 1389.03 1138.55 1388.7 1137.74 1388.37 1136.8 1388.2 1135.75 1388.2 1133.93 1388.2 1132.41 1388.7 1131.18 1389.68 1129.95 1390.67 1128.99 1392.1 1128.31 1393.97L1124.47 1393.97 1124.47 1388.26C1126.97 1387.23 1129.27 1386.47 1131.37 1386.01 1133.47 1385.54 1135.36 1385.3 1137.04 1385.3Z" fill="#292934" fill-rule="evenodd"/><text fill="#000000" fill-opacity="0" font-family="Arial,Arial_MSFontService,sans-serif" font-size="37.9395" x="1123.53" y="1418.5">2</text><rect x="1666" y="1606" width="159" height="134" fill="#FFFFFF"/><text fill="#292934" font-family="Arial,Arial_MSFontService,sans-serif" font-weight="400" font-size="83" transform="matrix(1 0 0 1 1698.79 1703)">10</text><path d="M1310.38 1375.33C1307.62 1375.33 1305.15 1376.45 1302.96 1378.68 1300.77 1380.91 1299.05 1383.91 1297.79 1387.7 1296.54 1391.48 1295.91 1395.25 1295.91 1399 1295.91 1401.81 1296.29 1403.91 1297.06 1405.3 1297.83 1406.7 1299.12 1407.39 1300.93 1407.39 1301.77 1407.39 1302.62 1407.21 1303.49 1406.84 1304.35 1406.48 1305.25 1405.89 1306.18 1405.08 1307.11 1404.27 1308.03 1403.28 1308.94 1402.12 1309.84 1400.96 1310.67 1399.79 1311.43 1398.62 1312.19 1397.44 1312.89 1396.05 1313.54 1394.44 1314.19 1392.84 1314.74 1390.9 1315.2 1388.63L1315.56 1386.88C1315.97 1384.94 1316.17 1383.1 1316.17 1381.37 1316.17 1379.27 1315.73 1377.73 1314.83 1376.77 1313.94 1375.81 1312.46 1375.33 1310.38 1375.33ZM1309.65 1372.13C1311.32 1372.13 1312.92 1372.33 1314.43 1372.72 1315.94 1373.11 1317.51 1373.81 1319.13 1374.81L1322.86 1372.13 1325.45 1372.78 1315.08 1418.86C1314.62 1420.91 1314.39 1422.45 1314.39 1423.48 1314.39 1424.67 1314.69 1425.51 1315.3 1426.01 1315.91 1426.51 1317.1 1426.84 1318.89 1427.01L1318.52 1428.99 1305.88 1428.99 1312.85 1402.41 1312.28 1402.16C1309.96 1405.43 1307.59 1407.92 1305.17 1409.62 1302.75 1411.32 1300.39 1412.17 1298.1 1412.17 1295.12 1412.17 1292.82 1411.05 1291.19 1408.81 1289.55 1406.57 1288.73 1403.42 1288.73 1399.37 1288.73 1394.72 1289.65 1390.26 1291.47 1385.97 1293.29 1381.69 1295.8 1378.31 1298.99 1375.84 1302.18 1373.37 1305.73 1372.13 1309.65 1372.13Z" fill="#292934" fill-rule="evenodd"/><text fill="#000000" fill-opacity="0" font-family="Arial,Arial_MSFontService,sans-serif" font-size="56.8599" x="1288.73" y="1421.89">𝑞</text><path d="M1345.44 1390.68 1347.22 1390.68C1347.18 1391.75 1347.15 1392.71 1347.14 1393.56 1347.12 1394.41 1347.1 1395.24 1347.09 1396.04 1347.08 1396.84 1347.08 1397.63 1347.08 1398.41L1347.08 1420.68C1347.08 1421.28 1347.1 1421.8 1347.14 1422.24 1347.17 1422.68 1347.24 1423.05 1347.33 1423.36 1347.41 1423.66 1347.53 1423.92 1347.68 1424.13 1347.82 1424.35 1347.99 1424.53 1348.19 1424.69 1348.42 1424.92 1348.74 1425.1 1349.13 1425.23 1349.52 1425.36 1350.02 1425.47 1350.62 1425.55 1351.23 1425.64 1351.95 1425.71 1352.8 1425.76 1353.65 1425.81 1354.67 1425.84 1355.87 1425.86L1355.87 1428.41 1332.63 1428.41 1332.63 1425.86C1333.79 1425.82 1334.76 1425.78 1335.56 1425.73 1336.36 1425.68 1337.05 1425.61 1337.61 1425.52 1338.18 1425.44 1338.63 1425.34 1338.98 1425.23 1339.32 1425.12 1339.62 1424.99 1339.87 1424.84 1340.14 1424.66 1340.38 1424.47 1340.57 1424.26 1340.77 1424.06 1340.92 1423.8 1341.04 1423.49 1341.16 1423.18 1341.25 1422.79 1341.32 1422.34 1341.39 1421.9 1341.42 1421.34 1341.42 1420.68L1341.42 1399.67C1341.42 1398.91 1341.28 1398.37 1340.98 1398.06 1340.69 1397.75 1340.27 1397.59 1339.72 1397.59 1339.12 1397.59 1338.22 1397.9 1337.03 1398.53 1335.84 1399.15 1334.29 1400.08 1332.4 1401.31 1332.14 1400.86 1331.91 1400.41 1331.7 1399.96 1331.48 1399.51 1331.26 1399.05 1331.02 1398.59 1333.44 1397.26 1335.84 1395.93 1338.21 1394.62 1340.59 1393.3 1342.99 1391.98 1345.44 1390.68Z" fill="#292934" fill-rule="evenodd"/><text fill="#000000" fill-opacity="0" font-family="Arial,Arial_MSFontService,sans-serif" font-size="37.7344" x="1331.02" y="1423.69">1</text><path d="M1410.48 1361.8 1416.24 1361.8 1416.24 1385.14 1438.32 1385.14 1438.32 1390.53 1416.24 1390.53 1416.24 1413.88 1410.48 1413.88 1410.48 1390.53 1388.39 1390.53 1388.39 1385.14 1410.48 1385.14Z" fill="#292934" fill-rule="evenodd"/><text fill="#000000" fill-opacity="0" font-family="Arial,Arial_MSFontService,sans-serif" font-size="52.0776" x="1388.39" y="1407.37">+</text><path d="M1488.46 1375.33C1485.71 1375.33 1483.23 1376.45 1481.04 1378.68 1478.86 1380.91 1477.13 1383.91 1475.88 1387.7 1474.62 1391.48 1473.99 1395.25 1473.99 1399 1473.99 1401.81 1474.38 1403.91 1475.15 1405.3 1475.92 1406.7 1477.21 1407.39 1479.02 1407.39 1479.86 1407.39 1480.71 1407.21 1481.57 1406.84 1482.44 1406.48 1483.33 1405.89 1484.27 1405.08 1485.2 1404.27 1486.12 1403.28 1487.02 1402.12 1487.93 1400.96 1488.76 1399.79 1489.52 1398.62 1490.27 1397.44 1490.97 1396.05 1491.62 1394.44 1492.27 1392.84 1492.82 1390.9 1493.28 1388.63L1493.65 1386.88C1494.05 1384.94 1494.26 1383.1 1494.26 1381.37 1494.26 1379.27 1493.81 1377.73 1492.92 1376.77 1492.03 1375.81 1490.54 1375.33 1488.46 1375.33ZM1487.73 1372.13C1489.41 1372.13 1491 1372.33 1492.51 1372.72 1494.03 1373.11 1495.59 1373.81 1497.22 1374.81L1500.94 1372.13 1503.54 1372.78 1493.16 1418.86C1492.7 1420.91 1492.47 1422.45 1492.47 1423.48 1492.47 1424.67 1492.78 1425.51 1493.39 1426.01 1493.99 1426.51 1495.19 1426.84 1496.97 1427.01L1496.61 1428.99 1483.96 1428.99 1490.93 1402.41 1490.37 1402.16C1488.04 1405.43 1485.67 1407.92 1483.25 1409.62 1480.84 1411.32 1478.48 1412.17 1476.18 1412.17 1473.21 1412.17 1470.91 1411.05 1469.27 1408.81 1467.64 1406.57 1466.82 1403.42 1466.82 1399.37 1466.82 1394.72 1467.73 1390.26 1469.56 1385.97 1471.38 1381.69 1473.89 1378.31 1477.07 1375.84 1480.26 1373.37 1483.81 1372.13 1487.73 1372.13Z" fill="#292934" fill-rule="evenodd"/><text fill="#000000" fill-opacity="0" font-family="Arial,Arial_MSFontService,sans-serif" font-size="56.8599" x="1466.82" y="1421.89">𝑞</text><path d="M1523.14 1390.47C1525.17 1390.47 1526.9 1390.7 1528.34 1391.16 1529.77 1391.62 1530.94 1392.24 1531.84 1393.02 1532.74 1393.8 1533.39 1394.74 1533.79 1395.83 1534.19 1396.93 1534.39 1398.11 1534.39 1399.38 1534.39 1400.14 1534.33 1400.85 1534.23 1401.5 1534.12 1402.15 1533.93 1402.8 1533.67 1403.43 1533.41 1404.07 1533.06 1404.71 1532.63 1405.35 1532.2 1406 1531.66 1406.68 1531.02 1407.4 1530.53 1408.03 1529.9 1408.75 1529.11 1409.57 1528.33 1410.39 1527.48 1411.27 1526.55 1412.21 1525.62 1413.15 1524.65 1414.12 1523.64 1415.14 1522.62 1416.15 1521.63 1417.16 1520.68 1418.16 1519.72 1419.15 1518.84 1420.12 1518.04 1421.06 1517.24 1421.99 1516.59 1422.85 1516.08 1423.63L1526.92 1423.63C1527.84 1423.63 1528.57 1423.6 1529.11 1423.53 1529.66 1423.46 1530.12 1423.31 1530.48 1423.08 1530.84 1422.84 1531.15 1422.49 1531.4 1422.01 1531.65 1421.53 1531.95 1420.87 1532.28 1420.03L1535 1420.03C1534.91 1421.42 1534.81 1422.81 1534.72 1424.22 1534.64 1425.63 1534.54 1427.02 1534.45 1428.41L1509.63 1428.41 1509.63 1426.89C1510.1 1425.83 1510.65 1424.79 1511.27 1423.77 1511.9 1422.74 1512.6 1421.7 1513.38 1420.65 1514.16 1419.59 1515.05 1418.5 1516.05 1417.38 1517.04 1416.26 1518.15 1415.09 1519.36 1413.88 1521.19 1412.04 1522.69 1410.47 1523.84 1409.18 1524.99 1407.88 1525.9 1406.72 1526.57 1405.7 1527.23 1404.69 1527.68 1403.75 1527.93 1402.89 1528.17 1402.03 1528.29 1401.11 1528.29 1400.14 1528.29 1399.14 1528.15 1398.22 1527.87 1397.38 1527.59 1396.54 1527.18 1395.83 1526.65 1395.25 1526.13 1394.66 1525.46 1394.2 1524.65 1393.87 1523.84 1393.54 1522.9 1393.37 1521.85 1393.37 1520.03 1393.37 1518.51 1393.86 1517.28 1394.85 1516.05 1395.84 1515.09 1397.27 1514.41 1399.14L1510.57 1399.14 1510.57 1393.43C1513.07 1392.39 1515.37 1391.64 1517.47 1391.17 1519.57 1390.7 1521.46 1390.47 1523.14 1390.47Z" fill="#292934" fill-rule="evenodd"/><text fill="#000000" fill-opacity="0" font-family="Arial,Arial_MSFontService,sans-serif" font-size="37.9395" x="1509.63" y="1423.67">2</text><path d="M1590.47 1361.8 1596.22 1361.8 1596.22 1385.14 1618.31 1385.14 1618.31 1390.53 1596.22 1390.53 1596.22 1413.88 1590.47 1413.88 1590.47 1390.53 1568.38 1390.53 1568.38 1385.14 1590.47 1385.14Z" fill="#292934" fill-rule="evenodd"/><text fill="#000000" fill-opacity="0" font-family="Arial,Arial_MSFontService,sans-serif" font-size="52.0776" x="1568.38" y="1407.37">+</text><path d="M1668.45 1375.33C1665.69 1375.33 1663.22 1376.45 1661.03 1378.68 1658.84 1380.91 1657.12 1383.91 1655.87 1387.7 1654.61 1391.48 1653.98 1395.25 1653.98 1399 1653.98 1401.81 1654.37 1403.91 1655.14 1405.3 1655.91 1406.7 1657.2 1407.39 1659.01 1407.39 1659.84 1407.39 1660.69 1407.21 1661.56 1406.84 1662.42 1406.48 1663.32 1405.89 1664.25 1405.08 1665.19 1404.27 1666.11 1403.28 1667.01 1402.12 1667.92 1400.96 1668.75 1399.79 1669.5 1398.62 1670.26 1397.44 1670.96 1396.05 1671.61 1394.44 1672.26 1392.84 1672.81 1390.9 1673.27 1388.63L1673.64 1386.88C1674.04 1384.94 1674.24 1383.1 1674.24 1381.37 1674.24 1379.27 1673.8 1377.73 1672.91 1376.77 1672.02 1375.81 1670.53 1375.33 1668.45 1375.33ZM1667.72 1372.13C1669.39 1372.13 1670.99 1372.33 1672.5 1372.72 1674.01 1373.11 1675.58 1373.81 1677.2 1374.81L1680.93 1372.13 1683.53 1372.78 1673.15 1418.86C1672.69 1420.91 1672.46 1422.45 1672.46 1423.48 1672.46 1424.67 1672.77 1425.51 1673.37 1426.01 1673.98 1426.51 1675.18 1426.84 1676.96 1427.01L1676.59 1428.99 1663.95 1428.99 1670.92 1402.41 1670.35 1402.16C1668.03 1405.43 1665.66 1407.92 1663.24 1409.62 1660.82 1411.32 1658.47 1412.17 1656.17 1412.17 1653.2 1412.17 1650.89 1411.05 1649.26 1408.81 1647.62 1406.57 1646.81 1403.42 1646.81 1399.37 1646.81 1394.72 1647.72 1390.26 1649.54 1385.97 1651.37 1381.69 1653.87 1378.31 1657.06 1375.84 1660.25 1373.37 1663.8 1372.13 1667.72 1372.13Z" fill="#292934" fill-rule="evenodd"/><text fill="#000000" fill-opacity="0" font-family="Arial,Arial_MSFontService,sans-serif" font-size="56.8599" x="1646.81" y="1421.89">𝑞</text><path d="M1703.07 1390.47C1704.63 1390.47 1706.09 1390.64 1707.45 1390.97 1708.8 1391.3 1709.98 1391.8 1710.98 1392.48 1711.97 1393.15 1712.75 1393.99 1713.31 1395 1713.86 1396 1714.14 1397.17 1714.14 1398.5 1714.14 1399.75 1713.97 1400.85 1713.61 1401.81 1713.26 1402.76 1712.72 1403.63 1711.99 1404.42 1711.26 1405.2 1710.36 1405.9 1709.29 1406.54 1708.23 1407.17 1707 1407.78 1705.62 1408.37L1705.62 1408.72C1706.92 1408.96 1708.15 1409.33 1709.28 1409.85 1710.41 1410.37 1711.4 1411.02 1712.25 1411.81 1713.1 1412.6 1713.77 1413.52 1714.26 1414.55 1714.75 1415.59 1714.99 1416.73 1714.99 1417.98 1714.99 1419.54 1714.7 1420.99 1714.11 1422.33 1713.53 1423.67 1712.65 1424.83 1711.48 1425.8 1710.3 1426.78 1708.86 1427.54 1707.14 1428.09 1705.42 1428.63 1703.41 1428.91 1701.1 1428.91 1699.29 1428.91 1697.44 1428.73 1695.57 1428.37 1693.69 1428 1691.91 1427.53 1690.23 1426.94L1690.23 1420.62 1694.01 1420.62C1694.33 1421.59 1694.7 1422.43 1695.13 1423.12 1695.56 1423.81 1696.06 1424.38 1696.64 1424.82 1697.21 1425.26 1697.88 1425.58 1698.63 1425.77 1699.38 1425.97 1700.23 1426.07 1701.19 1426.07 1703.71 1426.07 1705.62 1425.47 1706.92 1424.26 1708.22 1423.06 1708.87 1421.24 1708.87 1418.8 1708.87 1416.2 1708.01 1414.23 1706.3 1412.9 1704.6 1411.56 1702.06 1410.89 1698.7 1410.89L1696.12 1410.89 1696.12 1408.08C1698.17 1407.98 1699.95 1407.69 1701.44 1407.21 1702.94 1406.73 1704.18 1406.11 1705.18 1405.35 1706.17 1404.59 1706.91 1403.7 1707.4 1402.69 1707.89 1401.67 1708.14 1400.59 1708.14 1399.43 1708.14 1397.56 1707.58 1396.08 1706.47 1395 1705.35 1393.91 1703.74 1393.37 1701.63 1393.37 1699.85 1393.37 1698.36 1393.86 1697.16 1394.84 1695.96 1395.81 1695.04 1397.27 1694.4 1399.2L1690.67 1399.2 1690.67 1393.43C1692.98 1392.45 1695.15 1391.72 1697.19 1391.22 1699.23 1390.72 1701.19 1390.47 1703.07 1390.47Z" fill="#292934" fill-rule="evenodd"/><text fill="#000000" fill-opacity="0" font-family="Arial,Arial_MSFontService,sans-serif" font-size="38.4375" x="1690.23" y="1424.1">3</text><path d="M660.5 1664.5 660.5 2118.25" stroke="#93A299" stroke-width="3.4375" stroke-linejoin="round" stroke-miterlimit="10" stroke-dasharray="13.75 10.3125" fill="none" fill-rule="evenodd"/><path d="M880.5 1673.5 880.5 2127.25" stroke="#93A299" stroke-width="3.4375" stroke-linejoin="round" stroke-miterlimit="10" stroke-dasharray="13.75 10.3125" fill="none" fill-rule="evenodd"/><path d="M1128.5 1664.5 1128.5 2118.25" stroke="#93A299" stroke-width="3.4375" stroke-linejoin="round" stroke-miterlimit="10" stroke-dasharray="13.75 10.3125" fill="none" fill-rule="evenodd"/><text fill="#292934" font-family="Arial,Arial_MSFontService,sans-serif" font-weight="400" font-size="83" transform="matrix(1 0 0 1 638 2223)">5</text><text fill="#292934" font-family="Arial,Arial_MSFontService,sans-serif" font-weight="400" font-size="83" transform="matrix(1 0 0 1 856.537 2223)">10</text><text fill="#292934" font-family="Arial,Arial_MSFontService,sans-serif" font-weight="400" font-size="83" transform="matrix(1 0 0 1 1097.78 2223)">15</text><path d="M2420.5 1664.5 2420.5 2118.25" stroke="#93A299" stroke-width="3.4375" stroke-linejoin="round" stroke-miterlimit="10" stroke-dasharray="13.75 10.3125" fill="none" fill-rule="evenodd"/><text fill="#292934" font-family="Arial,Arial_MSFontService,sans-serif" font-weight="400" font-size="83" transform="matrix(1 0 0 1 2350.76 2225)">500</text></g></svg>