<svg width="2526" height="1637" xmlns="http://www.w3.org/2000/svg" xmlns:xlink="http://www.w3.org/1999/xlink" xml:space="preserve" overflow="hidden"><g transform="translate(-599 -660)"><path d="M975.5 775.5 977.5 2080.5" stroke="#292934" stroke-width="3.4375" stroke-linejoin="round" stroke-miterlimit="10" fill="none" fill-rule="evenodd"/><path d="M977.5 2080.5 2463.5 2080.5" stroke="#292934" stroke-width="3.4375" stroke-linejoin="round" stroke-miterlimit="10" fill="none" fill-rule="evenodd"/><text fill="#292934" font-family="Arial,Arial_MSFontService,sans-serif" font-weight="700" font-size="83" transform="matrix(1 0 0 1 648.6 898)">P</text><text fill="#292934" font-family="Arial,Arial_MSFontService,sans-serif" font-weight="700" font-size="83" transform="matrix(1 0 0 1 2083.97 2214)">Q</text><text fill="#292934" font-family="Arial,Arial_MSFontService,sans-serif" font-weight="700" font-size="83" text-decoration="underline" transform="matrix(1 0 0 1 1541.67 765)">Monopoly</text><path d="M985.5 884.5 2394.5 2067.5" stroke="#292934" stroke-width="3.4375" stroke-linejoin="round" stroke-miterlimit="10" fill="none" fill-rule="evenodd"/><path d="M0 0 1230 1015" stroke="#292934" stroke-width="3.4375" stroke-linejoin="round" stroke-miterlimit="10" fill="none" fill-rule="evenodd" transform="matrix(1 0 0 -1 979.5 2067.5)"/><path d="M2275.72 887.84 2290.19 887.84 2304.41 927.273 2320.06 887.84 2333.75 887.84 2333.75 889.826C2332.57 890.123 2331.71 890.42 2331.18 890.717 2330.65 891.014 2330.24 891.386 2329.92 891.832 2329.61 892.277 2329.38 892.946 2329.24 893.838 2329.09 894.729 2329.01 896.107 2329.01 897.972L2329.01 933.028C2329.01 934.838 2329.07 936.162 2329.2 936.999 2329.32 937.837 2329.52 938.499 2329.8 938.985 2330.09 939.472 2330.51 939.877 2331.06 940.201 2331.61 940.525 2332.51 940.849 2333.75 941.174L2333.75 943.16 2316.85 943.16 2316.85 941.174C2318.39 940.795 2319.46 940.363 2320.06 939.877 2320.65 939.391 2321.06 938.674 2321.27 937.729 2321.49 936.783 2321.6 935.216 2321.6 933.028L2321.6 917.506C2321.6 913.426 2321.66 909.299 2321.78 905.125 2321.9 900.95 2322.04 898.093 2322.2 896.553L2321.52 896.553 2305.47 936.716 2300.81 936.716 2285.89 895.905 2285.2 895.905C2285.34 897.553 2285.47 900.538 2285.59 904.861 2285.71 909.184 2285.77 913.629 2285.77 918.195L2285.77 933.028C2285.77 934.838 2285.83 936.162 2285.95 936.999 2286.07 937.837 2286.28 938.499 2286.56 938.985 2286.84 939.472 2287.26 939.877 2287.82 940.201 2288.37 940.525 2289.27 940.849 2290.51 941.174L2290.51 943.16 2275.72 943.16 2275.72 941.174C2277.39 940.741 2278.52 940.262 2279.08 939.735 2279.65 939.208 2280.02 938.458 2280.2 937.486 2280.37 936.513 2280.46 935.027 2280.46 933.028L2280.46 897.972C2280.46 896.107 2280.39 894.75 2280.26 893.899 2280.12 893.047 2279.9 892.386 2279.59 891.913 2279.28 891.44 2278.87 891.062 2278.35 890.778 2277.84 890.494 2276.96 890.177 2275.72 889.826ZM2366.27 887.191C2368.72 887.191 2370.99 887.32 2373.07 887.576 2375.15 887.833 2377.53 888.313 2380.21 889.015L2380.21 900.241 2376.2 900.241C2375.55 897.891 2374.72 896.019 2373.72 894.628 2372.72 893.237 2371.56 892.244 2370.24 891.649 2368.91 891.055 2367.32 890.758 2365.46 890.758 2362.67 890.758 2360.19 891.683 2358.02 893.534 2355.84 895.385 2354.13 898.167 2352.89 901.882 2351.65 905.597 2351.03 910.089 2351.03 915.358 2351.03 920.653 2351.54 925.172 2352.57 928.914 2353.59 932.656 2355.11 935.48 2357.11 937.384 2359.11 939.289 2361.56 940.242 2364.48 940.242 2366.7 940.242 2368.51 939.924 2369.91 939.289 2371.32 938.654 2372.5 937.648 2373.46 936.27 2374.42 934.892 2375.33 932.866 2376.2 930.191L2380.21 930.191 2380.21 941.782C2377.67 942.457 2375.07 942.964 2372.41 943.301 2369.74 943.639 2366.82 943.808 2363.63 943.808 2356.77 943.808 2351.58 941.484 2348.07 936.837 2344.56 932.19 2342.8 925.26 2342.8 916.047 2342.8 910.265 2343.71 905.199 2345.54 900.849 2347.36 896.499 2350.04 893.135 2353.58 890.758 2357.12 888.38 2361.35 887.191 2366.27 887.191Z" fill="#292934" fill-rule="evenodd"/><text fill="#000000" fill-opacity="0" font-family="Arial,Arial_MSFontService,sans-serif" font-size="56.6167" x="2275.72" y="936.731">MC</text><path d="M2413.37 925.165 2463.3 925.165 2463.3 930.556 2413.37 930.556ZM2413.37 908.347 2463.3 908.347 2463.3 913.737 2413.37 913.737Z" fill="#292934" fill-rule="evenodd"/><text fill="#000000" fill-opacity="0" font-family="Arial,Arial_MSFontService,sans-serif" font-size="22.209" x="2413.37" y="927.779">=</text><path d="M2541.22 824.743 2543.45 824.743C2543.29 827.337 2543.21 830.931 2543.21 835.524L2543.21 870.134C2543.21 871.701 2543.29 872.883 2543.47 873.68 2543.65 874.477 2543.96 875.126 2544.4 875.625 2544.85 876.125 2545.49 876.517 2546.33 876.801 2547.17 877.084 2548.22 877.301 2549.49 877.449 2550.76 877.598 2552.43 877.699 2554.51 877.753L2554.51 880.712 2524.56 880.712 2524.56 877.753C2527.56 877.618 2529.7 877.436 2530.99 877.206 2532.27 876.976 2533.25 876.632 2533.93 876.173 2534.6 875.713 2535.09 875.065 2535.41 874.227 2535.72 873.39 2535.87 872.025 2535.87 870.134L2535.87 837.266C2535.87 836.186 2535.68 835.395 2535.3 834.895 2534.93 834.396 2534.37 834.146 2533.64 834.146 2532.78 834.146 2531.55 834.591 2529.95 835.483 2528.36 836.375 2526.39 837.604 2524.04 839.171L2522.25 836.05Z" fill="#292934" fill-rule="evenodd"/><text fill="#000000" fill-opacity="0" font-family="Arial,Arial_MSFontService,sans-serif" font-size="55.9683" x="2522.25" y="873.716">1</text><path d="M2561.1 945.819C2559.24 945.819 2557.68 946.373 2556.42 947.481 2555.17 948.589 2554.15 950.183 2553.38 952.263 2552.61 954.344 2552.07 956.877 2551.74 959.862 2551.42 962.848 2551.25 966.218 2551.25 969.974 2551.25 978.782 2552.07 985.246 2553.71 989.366 2555.34 993.486 2557.87 995.547 2561.31 995.547 2564.57 995.547 2567 993.608 2568.58 989.731 2570.16 985.854 2570.95 979.849 2570.95 971.716 2570.95 965.502 2570.55 960.47 2569.74 956.62 2568.92 952.77 2567.8 950.007 2566.35 948.332 2564.91 946.657 2563.16 945.819 2561.1 945.819ZM2561.31 942.375C2567.22 942.375 2571.63 944.658 2574.52 949.224 2577.41 953.79 2578.85 960.693 2578.85 969.933 2578.85 979.498 2577.31 986.732 2574.21 991.636 2571.12 996.539 2566.6 998.991 2560.66 998.991 2554.82 998.991 2550.48 996.695 2547.63 992.102 2544.78 987.509 2543.35 980.538 2543.35 971.19 2543.35 966.218 2543.79 961.922 2544.67 958.302 2545.55 954.681 2546.78 951.689 2548.36 949.325 2549.94 946.961 2551.84 945.212 2554.05 944.077 2556.27 942.942 2558.68 942.375 2561.31 942.375ZM2526.77 940.348 2529.94 940.348 2529.33 949.751 2506.02 949.751 2506.02 967.542C2507.43 966.948 2508.96 966.502 2510.6 966.205 2512.25 965.908 2513.9 965.759 2515.55 965.759 2518.76 965.759 2521.61 966.414 2524.1 967.724 2526.59 969.035 2528.5 970.899 2529.85 973.317 2531.21 975.735 2531.88 978.539 2531.88 981.727 2531.88 985.347 2531.12 988.454 2529.61 991.048 2528.1 993.642 2525.91 995.614 2523.05 996.965 2520.18 998.316 2516.79 998.991 2512.87 998.991 2508.2 998.991 2503.31 998.032 2498.2 996.114L2498.2 987.522 2503.11 987.522C2503.92 990.278 2505.14 992.304 2506.77 993.601 2508.41 994.898 2510.52 995.547 2513.12 995.547 2516.71 995.547 2519.43 994.466 2521.26 992.304 2523.1 990.143 2524.02 986.914 2524.02 982.618 2524.02 979.754 2523.53 977.383 2522.56 975.506 2521.59 973.628 2520.28 972.27 2518.63 971.433 2516.98 970.595 2515.06 970.176 2512.87 970.176 2511.04 970.176 2509.46 970.291 2508.13 970.521 2506.81 970.751 2505.39 971.109 2503.88 971.595L2500.63 969.69 2500.63 943.023 2522.97 943.023C2523.88 943.023 2524.55 942.949 2524.95 942.8 2525.36 942.652 2525.68 942.422 2525.92 942.111 2526.17 941.8 2526.45 941.213 2526.77 940.348Z" fill="#292934" fill-rule="evenodd"/><text fill="#000000" fill-opacity="0" font-family="Arial,Arial_MSFontService,sans-serif" font-size="58.6431" x="2498.2" y="991.661">50</text><path d="M2492.3 917.153 2584.3 917.153 2584.3 922.153 2492.3 922.153Z" fill="#292934" fill-rule="evenodd"/><path d="M2631.46 890.758C2628.54 890.758 2625.82 891.798 2623.3 893.878 2620.77 895.959 2618.55 898.931 2616.65 902.794 2614.74 906.658 2613.26 910.9 2612.21 915.52 2611.16 920.14 2610.63 924.22 2610.63 927.759 2610.63 936.108 2613.67 940.282 2619.75 940.282 2623.5 940.282 2626.95 938.533 2630.08 935.034 2633.22 931.535 2635.74 926.692 2637.66 920.505 2639.58 914.318 2640.54 908.536 2640.54 903.159 2640.54 899.133 2639.8 896.06 2638.31 893.939 2636.82 891.818 2634.54 890.758 2631.46 890.758ZM2631.91 887.191C2637.12 887.191 2641.14 888.704 2643.96 891.73 2646.79 894.756 2648.2 899.133 2648.2 904.861 2648.2 908.644 2647.6 912.872 2646.42 917.546 2645.23 922.22 2643.59 926.347 2641.51 929.927 2639.43 933.507 2637.02 936.391 2634.28 938.58 2631.54 940.768 2628.56 942.281 2625.34 943.119 2625.96 945.091 2626.54 946.719 2627.08 948.003 2627.62 949.286 2628.15 950.326 2628.65 951.123 2629.14 951.92 2629.64 952.515 2630.12 952.906 2630.61 953.298 2631.1 953.562 2631.58 953.697 2632.07 953.832 2632.64 953.899 2633.29 953.899 2634.31 953.899 2635.35 953.602 2636.41 953.008 2637.46 952.413 2638.64 951.387 2639.93 949.928L2642.04 952.197C2639.88 954.548 2637.86 956.209 2636 957.182 2634.14 958.155 2632.22 958.641 2630.25 958.641 2628 958.641 2626.17 958.141 2624.75 957.141 2623.34 956.142 2622.11 954.548 2621.07 952.359 2620.03 950.171 2619.02 947.307 2618.05 943.767 2613.16 943.497 2609.43 941.876 2606.86 938.904 2604.29 935.932 2603.01 931.744 2603.01 926.341 2603.01 922.288 2603.69 917.708 2605.06 912.602 2606.42 907.495 2608.39 902.99 2610.98 899.086 2613.56 895.182 2616.64 892.223 2620.22 890.211 2623.8 888.198 2627.69 887.191 2631.91 887.191Z" fill="#292934" fill-rule="evenodd"/><text fill="#000000" fill-opacity="0" font-family="Arial,Arial_MSFontService,sans-serif" font-size="71.4497" x="2603.01" y="949.71">𝑄</text><text fill="#292934" font-family="Arial,Arial_MSFontService,sans-serif" font-weight="400" font-size="83" transform="matrix(1 0 0 1 2235.87 1755)">Inverse demand curve:</text><path d="M2412.61 1852.16C2409.93 1852.16 2407.92 1852.21 2406.57 1852.32L2406.57 1876.84 2411.27 1876.84C2414.32 1876.84 2416.84 1876.44 2418.83 1875.64 2420.81 1874.84 2422.33 1873.52 2423.39 1871.67 2424.44 1869.82 2424.97 1867.37 2424.97 1864.31 2424.97 1861.99 2424.66 1860.05 2424.03 1858.5 2423.41 1856.94 2422.55 1855.7 2421.46 1854.75 2420.37 1853.8 2419.06 1853.14 2417.55 1852.74 2416.04 1852.35 2414.39 1852.16 2412.61 1852.16ZM2394.25 1848.59 2414.35 1848.59C2420.67 1848.59 2425.38 1849.8 2428.47 1852.22 2431.57 1854.63 2433.11 1858.32 2433.11 1863.26 2433.11 1866.07 2432.63 1868.6 2431.65 1870.84 2430.68 1873.08 2429.3 1874.92 2427.52 1876.35 2425.74 1877.78 2423.63 1878.81 2421.2 1879.43 2418.77 1880.05 2416.21 1880.36 2413.54 1880.36 2410.54 1880.36 2408.21 1880.31 2406.57 1880.2L2406.57 1893.66C2406.57 1895.25 2406.65 1896.52 2406.83 1897.47 2407.01 1898.41 2407.28 1899.16 2407.64 1899.71 2408.01 1900.27 2408.5 1900.7 2409.12 1901.01 2409.74 1901.32 2410.71 1901.63 2412.04 1901.92L2412.04 1903.91 2394.25 1903.91 2394.25 1901.92C2395.92 1901.49 2397.04 1901.01 2397.61 1900.48 2398.18 1899.96 2398.55 1899.21 2398.72 1898.24 2398.9 1897.26 2398.99 1895.78 2398.99 1893.78L2398.99 1858.72C2398.99 1856.86 2398.92 1855.5 2398.79 1854.65 2398.65 1853.8 2398.43 1853.14 2398.12 1852.66 2397.81 1852.19 2397.39 1851.81 2396.88 1851.53 2396.37 1851.24 2395.49 1850.93 2394.25 1850.58Z" fill="#292934" fill-rule="evenodd"/><text fill="#000000" fill-opacity="0" font-family="Arial,Arial_MSFontService,sans-serif" font-size="55.3198" x="2394.25" y="1896.99">P</text><path d="M2465.28 1885.92 2515.21 1885.92 2515.21 1891.31 2465.28 1891.31ZM2465.28 1869.1 2515.21 1869.1 2515.21 1874.49 2465.28 1874.49Z" fill="#292934" fill-rule="evenodd"/><text fill="#000000" fill-opacity="0" font-family="Arial,Arial_MSFontService,sans-serif" font-size="22.209" x="2465.28" y="1888.53">=</text><path d="M2613.33 1847.94C2618.36 1847.94 2622.15 1849.04 2624.72 1851.24 2627.29 1853.45 2628.57 1856.64 2628.57 1860.83 2628.57 1862.26 2628.43 1863.58 2628.15 1864.78 2627.86 1865.98 2627.42 1867.17 2626.81 1868.35 2626.2 1869.52 2625.38 1870.78 2624.36 1872.14 2623.33 1873.49 2622.2 1874.86 2620.95 1876.25 2619.71 1877.64 2617.56 1879.96 2614.51 1883.2 2609.38 1888.63 2605.61 1893.37 2603.2 1897.42L2618.48 1897.42C2619.8 1897.42 2620.87 1897.34 2621.68 1897.18 2622.49 1897.02 2623.14 1896.75 2623.63 1896.37 2624.11 1895.99 2624.5 1895.5 2624.78 1894.89 2625.07 1894.28 2625.42 1893.35 2625.86 1892.08L2629.3 1892.08 2628.61 1903.91 2595.26 1903.91 2595.26 1901.96C2596.42 1899.13 2597.99 1896.22 2599.96 1893.25 2601.93 1890.28 2604.73 1886.78 2608.35 1882.75 2611.48 1879.3 2613.74 1876.67 2615.12 1874.89 2616.63 1872.95 2617.76 1871.26 2618.5 1869.85 2619.24 1868.43 2619.78 1867.09 2620.1 1865.83 2620.43 1864.58 2620.59 1863.31 2620.59 1862.04 2620.59 1860.02 2620.26 1858.23 2619.61 1856.67 2618.97 1855.12 2617.97 1853.9 2616.64 1853.01 2615.3 1852.12 2613.62 1851.67 2611.59 1851.67 2606.54 1851.67 2603.13 1854.48 2601.38 1860.1L2596.47 1860.1 2596.47 1852.32C2599.74 1850.78 2602.8 1849.66 2605.65 1848.97 2608.5 1848.29 2611.06 1847.94 2613.33 1847.94ZM2570.21 1847.94 2572.44 1847.94C2572.28 1850.53 2572.2 1854.13 2572.2 1858.72L2572.2 1893.33C2572.2 1894.9 2572.28 1896.08 2572.46 1896.88 2572.64 1897.67 2572.95 1898.32 2573.39 1898.82 2573.84 1899.32 2574.48 1899.71 2575.32 1900 2576.15 1900.28 2577.21 1900.5 2578.48 1900.65 2579.75 1900.8 2581.42 1900.9 2583.5 1900.95L2583.5 1903.91 2553.55 1903.91 2553.55 1900.95C2556.55 1900.82 2558.69 1900.63 2559.98 1900.4 2561.26 1900.17 2562.24 1899.83 2562.92 1899.37 2563.59 1898.91 2564.08 1898.26 2564.4 1897.42 2564.71 1896.59 2564.86 1895.22 2564.86 1893.33L2564.86 1860.46C2564.86 1859.38 2564.67 1858.59 2564.29 1858.09 2563.92 1857.59 2563.36 1857.34 2562.63 1857.34 2561.77 1857.34 2560.54 1857.79 2558.94 1858.68 2557.35 1859.57 2555.38 1860.8 2553.03 1862.37L2551.24 1859.25Z" fill="#292934" fill-rule="evenodd"/><text fill="#000000" fill-opacity="0" font-family="Arial,Arial_MSFontService,sans-serif" font-size="55.9683" x="2551.24" y="1896.91">12</text><path d="M2678.4 1877.49 2728.33 1877.49 2728.33 1882.88 2678.4 1882.88Z" fill="#292934" fill-rule="evenodd"/><text fill="#000000" fill-opacity="0" font-family="Arial,Arial_MSFontService,sans-serif" font-size="5.39014" x="2678.4" y="1882.2">−</text><path d="M2801.67 1785.49 2803.9 1785.49C2803.74 1788.09 2803.65 1791.68 2803.65 1796.27L2803.65 1830.88C2803.65 1832.45 2803.74 1833.63 2803.92 1834.43 2804.09 1835.23 2804.4 1835.88 2804.85 1836.38 2805.3 1836.88 2805.94 1837.27 2806.78 1837.55 2807.61 1837.83 2808.67 1838.05 2809.94 1838.2 2811.21 1838.35 2812.88 1838.45 2814.96 1838.5L2814.96 1841.46 2785.01 1841.46 2785.01 1838.5C2788.01 1838.37 2790.15 1838.19 2791.44 1837.96 2792.72 1837.73 2793.7 1837.38 2794.37 1836.92 2795.05 1836.46 2795.54 1835.81 2795.85 1834.98 2796.16 1834.14 2796.32 1832.77 2796.32 1830.88L2796.32 1798.02C2796.32 1796.94 2796.13 1796.15 2795.75 1795.65 2795.37 1795.15 2794.82 1794.9 2794.09 1794.9 2793.23 1794.9 2792 1795.34 2790.4 1796.23 2788.81 1797.12 2786.84 1798.35 2784.49 1799.92L2782.7 1796.8Z" fill="#292934" fill-rule="evenodd"/><text fill="#000000" fill-opacity="0" font-family="Arial,Arial_MSFontService,sans-serif" font-size="55.9683" x="2782.7" y="1834.47">1</text><path d="M2821.55 1906.57C2819.69 1906.57 2818.13 1907.12 2816.87 1908.23 2815.61 1909.34 2814.6 1910.93 2813.83 1913.01 2813.06 1915.09 2812.51 1917.63 2812.19 1920.61 2811.86 1923.6 2811.7 1926.97 2811.7 1930.72 2811.7 1939.53 2812.52 1946 2814.15 1950.12 2815.79 1954.24 2818.32 1956.3 2821.75 1956.3 2825.02 1956.3 2827.45 1954.36 2829.03 1950.48 2830.61 1946.6 2831.4 1940.6 2831.4 1932.47 2831.4 1926.25 2830.99 1921.22 2830.18 1917.37 2829.37 1913.52 2828.24 1910.76 2826.8 1909.08 2825.35 1907.41 2823.6 1906.57 2821.55 1906.57ZM2821.75 1903.12C2827.67 1903.12 2832.07 1905.41 2834.97 1909.97 2837.86 1914.54 2839.3 1921.44 2839.3 1930.68 2839.3 1940.25 2837.75 1947.48 2834.66 1952.39 2831.57 1957.29 2827.05 1959.74 2821.1 1959.74 2815.27 1959.74 2810.93 1957.44 2808.08 1952.85 2805.22 1948.26 2803.8 1941.29 2803.8 1931.94 2803.8 1926.97 2804.24 1922.67 2805.12 1919.05 2805.99 1915.43 2807.22 1912.44 2808.8 1910.07 2810.39 1907.71 2812.28 1905.96 2814.5 1904.83 2816.71 1903.69 2819.13 1903.12 2821.75 1903.12ZM2787.22 1901.1 2790.38 1901.1 2789.78 1910.5 2766.47 1910.5 2766.47 1928.29C2767.88 1927.7 2769.4 1927.25 2771.05 1926.95 2772.7 1926.66 2774.35 1926.51 2776 1926.51 2779.21 1926.51 2782.06 1927.16 2784.55 1928.47 2787.03 1929.78 2788.95 1931.65 2790.3 1934.07 2791.65 1936.48 2792.33 1939.29 2792.33 1942.48 2792.33 1946.1 2791.57 1949.2 2790.06 1951.8 2788.55 1954.39 2786.36 1956.36 2783.49 1957.71 2780.63 1959.07 2777.24 1959.74 2773.32 1959.74 2768.65 1959.74 2763.76 1958.78 2758.65 1956.86L2758.65 1948.27 2763.55 1948.27C2764.36 1951.03 2765.59 1953.05 2767.22 1954.35 2768.86 1955.65 2770.97 1956.3 2773.56 1956.3 2777.16 1956.3 2779.87 1955.22 2781.71 1953.05 2783.55 1950.89 2784.47 1947.66 2784.47 1943.37 2784.47 1940.5 2783.98 1938.13 2783.01 1936.26 2782.03 1934.38 2780.72 1933.02 2779.08 1932.18 2777.43 1931.34 2775.51 1930.93 2773.32 1930.93 2771.48 1930.93 2769.9 1931.04 2768.58 1931.27 2767.26 1931.5 2765.84 1931.86 2764.32 1932.34L2761.08 1930.44 2761.08 1903.77 2783.41 1903.77C2784.33 1903.77 2784.99 1903.7 2785.4 1903.55 2785.8 1903.4 2786.13 1903.17 2786.37 1902.86 2786.61 1902.55 2786.9 1901.96 2787.22 1901.1Z" fill="#292934" fill-rule="evenodd"/><text fill="#000000" fill-opacity="0" font-family="Arial,Arial_MSFontService,sans-serif" font-size="58.6431" x="2758.65" y="1952.41">50</text><path d="M2752.11 1877.9 2844.11 1877.9 2844.11 1882.9 2752.11 1882.9Z" fill="#292934" fill-rule="evenodd"/><path d="M2891.91 1851.51C2888.99 1851.51 2886.27 1852.55 2883.74 1854.63 2881.22 1856.71 2879 1859.68 2877.1 1863.54 2875.19 1867.41 2873.71 1871.65 2872.66 1876.27 2871.61 1880.89 2871.08 1884.97 2871.08 1888.51 2871.08 1896.86 2874.12 1901.03 2880.2 1901.03 2883.95 1901.03 2887.4 1899.28 2890.53 1895.78 2893.67 1892.28 2896.19 1887.44 2898.11 1881.25 2900.03 1875.07 2900.99 1869.29 2900.99 1863.91 2900.99 1859.88 2900.24 1856.81 2898.76 1854.69 2897.27 1852.57 2894.99 1851.51 2891.91 1851.51ZM2892.36 1847.94C2897.57 1847.94 2901.59 1849.45 2904.41 1852.48 2907.24 1855.51 2908.65 1859.88 2908.65 1865.61 2908.65 1869.39 2908.05 1873.62 2906.86 1878.3 2905.68 1882.97 2904.04 1887.1 2901.96 1890.68 2899.88 1894.26 2897.47 1897.14 2894.73 1899.33 2891.98 1901.52 2889.01 1903.03 2885.79 1903.87 2886.41 1905.84 2886.99 1907.47 2887.53 1908.75 2888.07 1910.04 2888.59 1911.08 2889.09 1911.87 2889.59 1912.67 2890.09 1913.26 2890.57 1913.66 2891.06 1914.05 2891.54 1914.31 2892.03 1914.45 2892.52 1914.58 2893.08 1914.65 2893.73 1914.65 2894.76 1914.65 2895.8 1914.35 2896.85 1913.76 2897.91 1913.16 2899.08 1912.14 2900.38 1910.68L2902.49 1912.95C2900.33 1915.3 2898.31 1916.96 2896.45 1917.93 2894.58 1918.9 2892.67 1919.39 2890.69 1919.39 2888.45 1919.39 2886.62 1918.89 2885.2 1917.89 2883.78 1916.89 2882.55 1915.3 2881.51 1913.11 2880.47 1910.92 2879.47 1908.06 2878.5 1904.52 2873.6 1904.25 2869.88 1902.63 2867.31 1899.65 2864.74 1896.68 2863.46 1892.49 2863.46 1887.09 2863.46 1883.04 2864.14 1878.46 2865.51 1873.35 2866.87 1868.25 2868.84 1863.74 2871.42 1859.84 2874 1855.93 2877.08 1852.97 2880.66 1850.96 2884.24 1848.95 2888.14 1847.94 2892.36 1847.94Z" fill="#292934" fill-rule="evenodd"/><text fill="#000000" fill-opacity="0" font-family="Arial,Arial_MSFontService,sans-serif" font-size="71.4497" x="2863.46" y="1910.46">𝑄</text><text fill="#292934" font-family="Arial,Arial_MSFontService,sans-serif" font-weight="400" font-size="83" transform="matrix(1 0 0 1 806.219 896)">12</text><text fill="#292934" font-family="Arial,Arial_MSFontService,sans-serif" font-weight="400" font-size="83" transform="matrix(1 0 0 1 831.227 2074)">0</text></g></svg>