<svg width="1899" height="1245" xmlns="http://www.w3.org/2000/svg" xmlns:xlink="http://www.w3.org/1999/xlink" xml:space="preserve" overflow="hidden"><g transform="translate(-1431 -850)"><path d="M1733.5 937.5 1735.5 1900.5" stroke="#292934" stroke-width="3.4375" stroke-linejoin="round" stroke-miterlimit="10" fill="none" fill-rule="evenodd"/><path d="M1735.5 1900.5 2915.5 1900.5" stroke="#292934" stroke-width="3.4375" stroke-linejoin="round" stroke-miterlimit="10" fill="none" fill-rule="evenodd"/><text fill="#292934" font-family="Arial,Arial_MSFontService,sans-serif" font-weight="700" font-size="83" transform="matrix(1 0 0 1 1481.17 1053)">P</text><text fill="#292934" font-family="Arial,Arial_MSFontService,sans-serif" font-weight="700" font-size="83" transform="matrix(1 0 0 1 2620.64 2024)">Q</text><text fill="#292934" font-family="Arial,Arial_MSFontService,sans-serif" font-weight="700" font-size="83" text-decoration="underline" transform="matrix(1 0 0 1 2190.14 955)">Market</text><path d="M1741.5 1018.5 2860.5 1891.5" stroke="#292934" stroke-width="3.4375" stroke-linejoin="round" stroke-miterlimit="10" fill="none" fill-rule="evenodd"/><path d="M0 0 976 750" stroke="#292934" stroke-width="3.4375" stroke-linejoin="round" stroke-miterlimit="10" fill="none" fill-rule="evenodd" transform="matrix(1 0 0 -1 1737.5 1891.5)"/><text fill="#292934" font-family="Arial,Arial_MSFontService,sans-serif" font-weight="400" font-size="64" transform="matrix(1 0 0 1 2587.55 967)">Inverse supply curve:</text><path d="M2766.84 1043.52C2764.78 1043.52 2763.23 1043.56 2762.19 1043.64L2762.19 1062.55 2765.81 1062.55C2768.17 1062.55 2770.11 1062.24 2771.64 1061.63 2773.17 1061.01 2774.34 1059.99 2775.16 1058.57 2775.97 1057.14 2776.37 1055.25 2776.37 1052.89 2776.37 1051.1 2776.13 1049.61 2775.66 1048.41 2775.18 1047.21 2774.51 1046.25 2773.67 1045.52 2772.83 1044.79 2771.82 1044.27 2770.66 1043.97 2769.49 1043.67 2768.22 1043.52 2766.84 1043.52ZM2752.69 1040.77 2768.19 1040.77C2773.06 1040.77 2776.69 1041.7 2779.08 1043.57 2781.46 1045.43 2782.66 1048.27 2782.66 1052.08 2782.66 1054.25 2782.28 1056.2 2781.53 1057.93 2780.78 1059.65 2779.72 1061.07 2778.34 1062.18 2776.97 1063.28 2775.34 1064.07 2773.47 1064.55 2771.59 1065.03 2769.62 1065.27 2767.56 1065.27 2765.25 1065.27 2763.46 1065.23 2762.19 1065.14L2762.19 1075.52C2762.19 1076.75 2762.25 1077.73 2762.39 1078.46 2762.53 1079.19 2762.73 1079.76 2763.01 1080.19 2763.3 1080.62 2763.68 1080.95 2764.16 1081.19 2764.63 1081.43 2765.38 1081.66 2766.41 1081.89L2766.41 1083.43 2752.69 1083.43 2752.69 1081.89C2753.98 1081.56 2754.84 1081.19 2755.28 1080.78 2755.72 1080.38 2756 1079.8 2756.14 1079.05 2756.28 1078.3 2756.34 1077.15 2756.34 1075.61L2756.34 1048.58C2756.34 1047.14 2756.29 1046.1 2756.19 1045.44 2756.08 1044.78 2755.91 1044.27 2755.67 1043.91 2755.43 1043.54 2755.11 1043.25 2754.72 1043.03 2754.32 1042.82 2753.65 1042.57 2752.69 1042.3Z" fill="#292934" fill-rule="evenodd"/><text fill="#000000" fill-opacity="0" font-family="Arial,Arial_MSFontService,sans-serif" font-size="42.6562" x="2752.69" y="1078.09">P</text><path d="M2808.06 1069.55 2846.56 1069.55 2846.56 1073.71 2808.06 1073.71ZM2808.06 1056.58 2846.56 1056.58 2846.56 1060.74 2808.06 1060.74Z" fill="#292934" fill-rule="evenodd"/><text fill="#000000" fill-opacity="0" font-family="Arial,Arial_MSFontService,sans-serif" font-size="17.125" x="2808.06" y="1071.57">=</text><path d="M2907.3 991.708 2909.02 991.708C2908.9 993.708 2908.83 996.479 2908.83 1000.02L2908.83 1026.71C2908.83 1027.92 2908.9 1028.83 2909.04 1029.44 2909.17 1030.06 2909.41 1030.56 2909.76 1030.94 2910.1 1031.33 2910.6 1031.63 2911.24 1031.85 2911.89 1032.07 2912.7 1032.23 2913.68 1032.35 2914.66 1032.46 2915.95 1032.54 2917.55 1032.58L2917.55 1034.86 2894.46 1034.86 2894.46 1032.58C2896.77 1032.48 2898.42 1032.34 2899.41 1032.16 2900.4 1031.98 2901.16 1031.72 2901.68 1031.36 2902.2 1031.01 2902.58 1030.51 2902.82 1029.86 2903.06 1029.22 2903.18 1028.17 2903.18 1026.71L2903.18 1001.36C2903.18 1000.53 2903.03 999.922 2902.74 999.536 2902.45 999.151 2902.02 998.958 2901.46 998.958 2900.79 998.958 2899.85 999.302 2898.62 999.99 2897.39 1000.68 2895.87 1001.63 2894.05 1002.83L2892.68 1000.43Z" fill="#292934" fill-rule="evenodd"/><text fill="#000000" fill-opacity="0" font-family="Arial,Arial_MSFontService,sans-serif" font-size="43.1562" x="2892.68" y="1029.47">1</text><path d="M2923.07 1085.85C2921.64 1085.85 2920.43 1086.28 2919.47 1087.13 2918.5 1087.98 2917.72 1089.21 2917.12 1090.82 2916.53 1092.42 2916.11 1094.37 2915.86 1096.68 2915.61 1098.98 2915.48 1101.58 2915.48 1104.47 2915.48 1111.26 2916.11 1116.25 2917.37 1119.43 2918.63 1122.6 2920.58 1124.19 2923.23 1124.19 2925.75 1124.19 2927.62 1122.7 2928.84 1119.71 2930.06 1116.72 2930.67 1112.09 2930.67 1105.82 2930.67 1101.03 2930.36 1097.14 2929.73 1094.18 2929.11 1091.21 2928.24 1089.08 2927.12 1087.79 2926.01 1086.49 2924.66 1085.85 2923.07 1085.85ZM2923.23 1083.19C2927.79 1083.19 2931.19 1084.95 2933.42 1088.47 2935.65 1091.99 2936.76 1097.32 2936.76 1104.44 2936.76 1111.82 2935.57 1117.39 2933.18 1121.18 2930.8 1124.96 2927.31 1126.85 2922.73 1126.85 2918.23 1126.85 2914.88 1125.08 2912.68 1121.54 2910.49 1117.99 2909.39 1112.62 2909.39 1105.41 2909.39 1101.58 2909.73 1098.26 2910.4 1095.47 2911.08 1092.68 2912.03 1090.37 2913.25 1088.55 2914.47 1086.73 2915.93 1085.38 2917.64 1084.5 2919.35 1083.63 2921.21 1083.19 2923.23 1083.19ZM2896.07 1081.63 2898.51 1081.63 2898.04 1088.88 2880.07 1088.88 2880.07 1102.6C2881.16 1102.14 2882.33 1101.8 2883.61 1101.57 2884.88 1101.34 2886.15 1101.22 2887.42 1101.22 2889.9 1101.22 2892.1 1101.73 2894.01 1102.74 2895.93 1103.75 2897.41 1105.19 2898.45 1107.05 2899.49 1108.92 2900.01 1111.08 2900.01 1113.54 2900.01 1116.33 2899.43 1118.72 2898.26 1120.72 2897.1 1122.72 2895.41 1124.24 2893.2 1125.29 2890.99 1126.33 2888.38 1126.85 2885.36 1126.85 2881.75 1126.85 2877.98 1126.11 2874.04 1124.63L2874.04 1118 2877.82 1118C2878.45 1120.13 2879.39 1121.69 2880.65 1122.69 2881.91 1123.69 2883.54 1124.19 2885.54 1124.19 2888.31 1124.19 2890.41 1123.36 2891.82 1121.69 2893.24 1120.03 2893.95 1117.54 2893.95 1114.22 2893.95 1112.01 2893.57 1110.19 2892.82 1108.74 2892.07 1107.29 2891.06 1106.24 2889.79 1105.6 2888.52 1104.95 2887.04 1104.63 2885.36 1104.63 2883.94 1104.63 2882.72 1104.72 2881.7 1104.89 2880.68 1105.07 2879.58 1105.35 2878.42 1105.72L2875.92 1104.25 2875.92 1083.69 2893.14 1083.69C2893.85 1083.69 2894.36 1083.63 2894.67 1083.52 2894.98 1083.41 2895.23 1083.23 2895.42 1082.99 2895.61 1082.75 2895.82 1082.3 2896.07 1081.63Z" fill="#292934" fill-rule="evenodd"/><text fill="#000000" fill-opacity="0" font-family="Arial,Arial_MSFontService,sans-serif" font-size="45.2188" x="2874.04" y="1121.2">50</text><path d="M2869.79 1063.43 2940.79 1063.43 2940.79 1067.43 2869.79 1067.43Z" fill="#292934" fill-rule="evenodd"/><path d="M2977.26 1043.02C2975.01 1043.02 2972.91 1043.82 2970.96 1045.43 2969.01 1047.03 2967.3 1049.32 2965.83 1052.3 2964.36 1055.28 2963.22 1058.55 2962.41 1062.11 2961.6 1065.68 2961.19 1068.82 2961.19 1071.55 2961.19 1077.99 2963.54 1081.21 2968.22 1081.21 2971.12 1081.21 2973.78 1079.86 2976.19 1077.16 2978.61 1074.46 2980.56 1070.73 2982.04 1065.96 2983.52 1061.19 2984.26 1056.73 2984.26 1052.58 2984.26 1049.48 2983.68 1047.11 2982.54 1045.47 2981.39 1043.84 2979.63 1043.02 2977.26 1043.02ZM2977.6 1040.27C2981.62 1040.27 2984.72 1041.44 2986.9 1043.77 2989.07 1046.1 2990.16 1049.48 2990.16 1053.89 2990.16 1056.81 2989.7 1060.07 2988.79 1063.68 2987.87 1067.28 2986.61 1070.46 2985.01 1073.22 2983.4 1075.98 2981.54 1078.21 2979.43 1079.89 2977.31 1081.58 2975.02 1082.75 2972.54 1083.39 2973.02 1084.91 2973.46 1086.17 2973.88 1087.16 2974.3 1088.15 2974.7 1088.95 2975.08 1089.57 2975.47 1090.18 2975.85 1090.64 2976.22 1090.94 2976.6 1091.24 2976.97 1091.45 2977.35 1091.55 2977.72 1091.65 2978.16 1091.71 2978.66 1091.71 2979.45 1091.71 2980.26 1091.48 2981.07 1091.02 2981.88 1090.56 2982.79 1089.77 2983.79 1088.64L2985.41 1090.39C2983.75 1092.21 2982.19 1093.49 2980.76 1094.24 2979.32 1094.99 2977.84 1095.36 2976.32 1095.36 2974.59 1095.36 2973.18 1094.98 2972.08 1094.21 2970.99 1093.44 2970.04 1092.21 2969.24 1090.52 2968.44 1088.83 2967.66 1086.62 2966.91 1083.89 2963.14 1083.69 2960.27 1082.44 2958.29 1080.14 2956.31 1077.85 2955.32 1074.62 2955.32 1070.46 2955.32 1067.33 2955.84 1063.8 2956.9 1059.86 2957.95 1055.93 2959.47 1052.45 2961.46 1049.44 2963.45 1046.43 2965.82 1044.15 2968.58 1042.6 2971.34 1041.04 2974.35 1040.27 2977.6 1040.27Z" fill="#292934" fill-rule="evenodd"/><text fill="#000000" fill-opacity="0" font-family="Arial,Arial_MSFontService,sans-serif" font-size="55.0938" x="2955.32" y="1088.48">𝑄</text><path d="M3006.23 1073.08C3007.72 1073.08 3009.08 1073.17 3010.33 1073.35 3011.58 1073.54 3012.79 1073.81 3013.97 1074.16L3012.87 1079.34 3010.82 1079.34C3010.66 1077.97 3010.2 1076.95 3009.46 1076.29 3008.72 1075.63 3007.56 1075.31 3006 1075.31 3005.38 1075.31 3004.8 1075.39 3004.26 1075.56 3003.72 1075.73 3003.27 1075.96 3002.88 1076.26 3002.5 1076.56 3002.2 1076.91 3001.99 1077.32 3001.77 1077.74 3001.67 1078.19 3001.67 1078.68 3001.67 1079.12 3001.72 1079.53 3001.83 1079.9 3001.93 1080.26 3002.14 1080.62 3002.46 1080.97 3002.77 1081.33 3003.22 1081.69 3003.79 1082.08 3004.36 1082.46 3005.12 1082.89 3006.05 1083.38 3007.03 1083.92 3007.84 1084.43 3008.49 1084.92 3009.14 1085.41 3009.66 1085.91 3010.04 1086.41 3010.43 1086.92 3010.69 1087.46 3010.85 1088.03 3011 1088.6 3011.08 1089.24 3011.08 1089.95 3011.08 1091.03 3010.85 1092.01 3010.41 1092.87 3009.97 1093.74 3009.35 1094.47 3008.55 1095.06 3007.76 1095.66 3006.82 1096.12 3005.74 1096.44 3004.66 1096.76 3003.48 1096.92 3002.19 1096.92 3000.79 1096.92 2999.4 1096.83 2998.04 1096.65 2996.68 1096.46 2995.24 1096.15 2993.73 1095.71L2994.92 1090.47 2996.92 1090.47C2996.99 1091.9 2997.44 1092.96 2998.26 1093.68 2999.08 1094.39 3000.34 1094.74 3002.06 1094.74 3003.59 1094.74 3004.79 1094.41 3005.67 1093.76 3006.55 1093.1 3006.99 1092.18 3006.99 1091 3006.99 1090.47 3006.94 1090 3006.83 1089.61 3006.72 1089.22 3006.51 1088.85 3006.2 1088.5 3005.89 1088.15 3005.46 1087.79 3004.91 1087.41 3004.37 1087.04 3003.66 1086.6 3002.79 1086.11 3001.89 1085.61 3001.11 1085.11 3000.46 1084.62 2999.81 1084.13 2999.28 1083.64 2998.86 1083.13 2998.43 1082.63 2998.12 1082.1 2997.93 1081.55 2997.73 1081 2997.63 1080.41 2997.63 1079.78 2997.63 1078.82 2997.83 1077.93 2998.24 1077.11 2998.64 1076.29 2999.22 1075.58 2999.97 1074.98 3000.72 1074.39 3001.62 1073.92 3002.68 1073.58 3003.73 1073.25 3004.92 1073.08 3006.23 1073.08Z" fill="#292934" fill-rule="evenodd"/><text fill="#000000" fill-opacity="0" font-family="Arial,Arial_MSFontService,sans-serif" font-size="23.8442" x="2993.73" y="1093.94">𝑠</text><path d="M0 0 586 0.000360892" stroke="#292934" stroke-width="3.4375" stroke-linejoin="round" stroke-miterlimit="10" stroke-dasharray="13.75 10.3125" fill="none" fill-rule="evenodd" transform="matrix(-1 0 0 1 2313.5 1460.5)"/><path d="M2306.5 1914.5 2306.5 1456.5" stroke="#292934" stroke-width="3.4375" stroke-linejoin="round" stroke-miterlimit="10" stroke-dasharray="13.75 10.3125" fill="none" fill-rule="evenodd"/><text fill="#292934" font-family="Arial,Arial_MSFontService,sans-serif" font-weight="400" font-size="83" transform="matrix(1 0 0 1 2199.48 2026)">Q=300</text><text fill="#292934" font-family="Arial,Arial_MSFontService,sans-serif" font-weight="400" font-size="64" transform="matrix(1 0 0 1 2638.4 1594)">Inverse demand curve:</text><path d="M2754.95 1670.52C2752.89 1670.52 2751.34 1670.57 2750.29 1670.65L2750.29 1689.56 2753.92 1689.56C2756.27 1689.56 2758.22 1689.25 2759.75 1688.63 2761.28 1688.02 2762.45 1687 2763.26 1685.57 2764.08 1684.14 2764.48 1682.25 2764.48 1679.9 2764.48 1678.11 2764.24 1676.61 2763.76 1675.42 2763.28 1674.22 2762.62 1673.25 2761.78 1672.52 2760.93 1671.8 2759.93 1671.28 2758.76 1670.98 2757.6 1670.68 2756.33 1670.52 2754.95 1670.52ZM2740.79 1667.77 2756.29 1667.77C2761.17 1667.77 2764.8 1668.71 2767.18 1670.57 2769.57 1672.44 2770.76 1675.27 2770.76 1679.09 2770.76 1681.25 2770.39 1683.2 2769.64 1684.93 2768.89 1686.66 2767.83 1688.08 2766.45 1689.18 2765.08 1690.28 2763.45 1691.08 2761.58 1691.56 2759.7 1692.03 2757.73 1692.27 2755.67 1692.27 2753.36 1692.27 2751.56 1692.23 2750.29 1692.15L2750.29 1702.52C2750.29 1703.75 2750.36 1704.73 2750.5 1705.46 2750.63 1706.19 2750.84 1706.77 2751.12 1707.2 2751.4 1707.62 2751.78 1707.96 2752.26 1708.2 2752.74 1708.44 2753.49 1708.67 2754.51 1708.9L2754.51 1710.43 2740.79 1710.43 2740.79 1708.9C2742.09 1708.57 2742.95 1708.2 2743.39 1707.79 2743.83 1707.38 2744.11 1706.81 2744.25 1706.06 2744.38 1705.31 2744.45 1704.16 2744.45 1702.62L2744.45 1675.59C2744.45 1674.15 2744.4 1673.1 2744.29 1672.45 2744.19 1671.79 2744.02 1671.28 2743.78 1670.92 2743.54 1670.55 2743.22 1670.26 2742.83 1670.04 2742.43 1669.82 2741.75 1669.58 2740.79 1669.31Z" fill="#292934" fill-rule="evenodd"/><text fill="#000000" fill-opacity="0" font-family="Arial,Arial_MSFontService,sans-serif" font-size="42.6562" x="2740.79" y="1705.1">P</text><path d="M2796.16 1696.56 2834.66 1696.56 2834.66 1700.71 2796.16 1700.71ZM2796.16 1683.59 2834.66 1683.59 2834.66 1687.74 2796.16 1687.74Z" fill="#292934" fill-rule="evenodd"/><text fill="#000000" fill-opacity="0" font-family="Arial,Arial_MSFontService,sans-serif" font-size="17.125" x="2796.16" y="1698.57">=</text><path d="M2911.43 1667.27C2915.31 1667.27 2918.23 1668.12 2920.21 1669.82 2922.19 1671.52 2923.18 1673.98 2923.18 1677.21 2923.18 1678.32 2923.07 1679.33 2922.85 1680.26 2922.63 1681.19 2922.29 1682.1 2921.82 1683.01 2921.35 1683.92 2920.72 1684.89 2919.93 1685.93 2919.14 1686.97 2918.26 1688.03 2917.31 1689.1 2916.35 1690.18 2914.69 1691.96 2912.34 1694.46 2908.38 1698.65 2905.47 1702.31 2903.62 1705.43L2915.4 1705.43C2916.42 1705.43 2917.24 1705.37 2917.87 1705.24 2918.49 1705.12 2918.99 1704.91 2919.37 1704.62 2919.74 1704.33 2920.04 1703.95 2920.26 1703.48 2920.48 1703.01 2920.75 1702.28 2921.09 1701.31L2923.74 1701.31 2923.21 1710.43 2897.49 1710.43 2897.49 1708.93C2898.39 1706.74 2899.6 1704.5 2901.12 1702.21 2902.64 1699.92 2904.8 1697.22 2907.59 1694.12 2910 1691.45 2911.74 1689.43 2912.81 1688.06 2913.97 1686.56 2914.84 1685.26 2915.42 1684.17 2915.99 1683.07 2916.4 1682.04 2916.65 1681.07 2916.9 1680.1 2917.03 1679.13 2917.03 1678.15 2917.03 1676.59 2916.78 1675.21 2916.28 1674.01 2915.78 1672.81 2915.01 1671.87 2913.98 1671.18 2912.95 1670.49 2911.65 1670.15 2910.09 1670.15 2906.19 1670.15 2903.57 1672.32 2902.21 1676.65L2898.43 1676.65 2898.43 1670.65C2900.95 1669.46 2903.31 1668.6 2905.51 1668.07 2907.71 1667.54 2909.68 1667.27 2911.43 1667.27ZM2877.65 1667.27 2879.37 1667.27C2879.24 1669.27 2879.18 1672.05 2879.18 1675.59L2879.18 1702.27C2879.18 1703.48 2879.25 1704.39 2879.38 1705.01 2879.52 1705.62 2879.76 1706.12 2880.1 1706.51 2880.45 1706.89 2880.94 1707.2 2881.59 1707.42 2882.23 1707.63 2883.05 1707.8 2884.03 1707.92 2885 1708.03 2886.3 1708.11 2887.9 1708.15L2887.9 1710.43 2864.81 1710.43 2864.81 1708.15C2867.12 1708.05 2868.77 1707.9 2869.76 1707.73 2870.75 1707.55 2871.5 1707.28 2872.03 1706.93 2872.55 1706.58 2872.93 1706.08 2873.17 1705.43 2873.41 1704.78 2873.53 1703.73 2873.53 1702.27L2873.53 1676.93C2873.53 1676.1 2873.38 1675.49 2873.09 1675.1 2872.8 1674.72 2872.37 1674.52 2871.81 1674.52 2871.14 1674.52 2870.19 1674.87 2868.96 1675.56 2867.73 1676.24 2866.21 1677.19 2864.4 1678.4L2863.03 1675.99Z" fill="#292934" fill-rule="evenodd"/><text fill="#000000" fill-opacity="0" font-family="Arial,Arial_MSFontService,sans-serif" font-size="43.1562" x="2863.03" y="1705.04">12</text><path d="M2961.74 1690.06 3000.24 1690.06 3000.24 1694.21 2961.74 1694.21Z" fill="#292934" fill-rule="evenodd"/><text fill="#000000" fill-opacity="0" font-family="Arial,Arial_MSFontService,sans-serif" font-size="4.15625" x="2961.74" y="1693.69">−</text><path d="M3057.41 1618.71 3059.13 1618.71C3059 1620.71 3058.94 1623.48 3058.94 1627.03L3058.94 1653.71C3058.94 1654.92 3059.01 1655.83 3059.14 1656.45 3059.28 1657.06 3059.52 1657.56 3059.86 1657.95 3060.21 1658.33 3060.7 1658.64 3061.35 1658.85 3061.99 1659.07 3062.8 1659.24 3063.78 1659.35 3064.76 1659.47 3066.05 1659.55 3067.66 1659.59L3067.66 1661.87 3044.56 1661.87 3044.56 1659.59C3046.88 1659.48 3048.53 1659.34 3049.52 1659.17 3050.51 1658.99 3051.26 1658.72 3051.78 1658.37 3052.3 1658.02 3052.68 1657.52 3052.92 1656.87 3053.16 1656.22 3053.28 1655.17 3053.28 1653.71L3053.28 1628.37C3053.28 1627.54 3053.14 1626.93 3052.85 1626.54 3052.55 1626.16 3052.13 1625.96 3051.56 1625.96 3050.9 1625.96 3049.95 1626.31 3048.72 1627 3047.49 1627.68 3045.97 1628.63 3044.16 1629.84L3042.78 1627.43Z" fill="#292934" fill-rule="evenodd"/><text fill="#000000" fill-opacity="0" font-family="Arial,Arial_MSFontService,sans-serif" font-size="43.1562" x="3042.78" y="1656.48">1</text><path d="M3073.18 1712.85C3071.74 1712.85 3070.54 1713.28 3069.57 1714.14 3068.6 1714.99 3067.82 1716.22 3067.23 1717.82 3066.63 1719.43 3066.21 1721.38 3065.96 1723.68 3065.71 1725.98 3065.59 1728.58 3065.59 1731.48 3065.59 1738.27 3066.22 1743.25 3067.48 1746.43 3068.74 1749.61 3070.69 1751.2 3073.34 1751.2 3075.86 1751.2 3077.73 1749.7 3078.95 1746.71 3080.16 1743.72 3080.77 1739.09 3080.77 1732.82 3080.77 1728.03 3080.46 1724.15 3079.84 1721.18 3079.21 1718.21 3078.34 1716.08 3077.23 1714.79 3076.11 1713.5 3074.76 1712.85 3073.18 1712.85ZM3073.34 1710.2C3077.9 1710.2 3081.29 1711.96 3083.52 1715.48 3085.75 1719 3086.87 1724.32 3086.87 1731.45 3086.87 1738.82 3085.67 1744.4 3083.29 1748.18 3080.9 1751.96 3077.42 1753.85 3072.84 1753.85 3068.34 1753.85 3064.99 1752.08 3062.79 1748.54 3060.59 1745 3059.49 1739.62 3059.49 1732.42 3059.49 1728.58 3059.83 1725.27 3060.51 1722.48 3061.18 1719.69 3062.13 1717.38 3063.35 1715.56 3064.57 1713.73 3066.03 1712.39 3067.74 1711.51 3069.45 1710.64 3071.31 1710.2 3073.34 1710.2ZM3046.18 1708.64 3048.62 1708.64 3048.15 1715.89 3030.18 1715.89 3030.18 1729.6C3031.26 1729.15 3032.44 1728.8 3033.71 1728.57 3034.98 1728.34 3036.25 1728.23 3037.52 1728.23 3040 1728.23 3042.2 1728.73 3044.12 1729.74 3046.03 1730.75 3047.51 1732.19 3048.55 1734.06 3049.6 1735.92 3050.12 1738.08 3050.12 1740.54 3050.12 1743.33 3049.53 1745.73 3048.37 1747.73 3047.2 1749.73 3045.51 1751.25 3043.3 1752.29 3041.1 1753.33 3038.48 1753.85 3035.46 1753.85 3031.86 1753.85 3028.09 1753.11 3024.15 1751.64L3024.15 1745.01 3027.93 1745.01C3028.55 1747.14 3029.5 1748.7 3030.76 1749.7 3032.02 1750.7 3033.65 1751.2 3035.65 1751.2 3038.42 1751.2 3040.51 1750.36 3041.93 1748.7 3043.35 1747.03 3044.05 1744.54 3044.05 1741.23 3044.05 1739.02 3043.68 1737.19 3042.93 1735.74 3042.18 1734.3 3041.17 1733.25 3039.9 1732.6 3038.63 1731.96 3037.15 1731.64 3035.46 1731.64 3034.04 1731.64 3032.83 1731.72 3031.8 1731.9 3030.78 1732.08 3029.69 1732.35 3028.52 1732.73L3026.02 1731.26 3026.02 1710.7 3043.24 1710.7C3043.95 1710.7 3044.46 1710.64 3044.77 1710.53 3045.09 1710.41 3045.34 1710.23 3045.52 1709.99 3045.71 1709.75 3045.93 1709.3 3046.18 1708.64Z" fill="#292934" fill-rule="evenodd"/><text fill="#000000" fill-opacity="0" font-family="Arial,Arial_MSFontService,sans-serif" font-size="45.2188" x="3024.15" y="1748.2">50</text><path d="M3019.64 1690.44 3090.64 1690.44 3090.64 1694.44 3019.64 1694.44Z" fill="#292934" fill-rule="evenodd"/><path d="M3127.36 1670.02C3125.11 1670.02 3123.01 1670.83 3121.06 1672.43 3119.12 1674.03 3117.41 1676.33 3115.94 1679.31 3114.47 1682.28 3113.33 1685.56 3112.52 1689.12 3111.7 1692.68 3111.3 1695.83 3111.3 1698.56 3111.3 1704.99 3113.64 1708.21 3118.33 1708.21 3121.23 1708.21 3123.88 1706.86 3126.3 1704.17 3128.71 1701.47 3130.66 1697.73 3132.14 1692.96 3133.62 1688.19 3134.36 1683.73 3134.36 1679.59 3134.36 1676.48 3133.79 1674.11 3132.64 1672.48 3131.5 1670.84 3129.74 1670.02 3127.36 1670.02ZM3127.7 1667.27C3131.73 1667.27 3134.82 1668.44 3137 1670.77 3139.18 1673.11 3140.27 1676.48 3140.27 1680.9 3140.27 1683.82 3139.81 1687.08 3138.89 1690.68 3137.98 1694.28 3136.71 1697.47 3135.11 1700.23 3133.51 1702.99 3131.65 1705.21 3129.53 1706.9 3127.42 1708.59 3125.12 1709.75 3122.64 1710.4 3123.12 1711.92 3123.57 1713.18 3123.99 1714.17 3124.4 1715.15 3124.8 1715.96 3125.19 1716.57 3125.57 1717.19 3125.95 1717.64 3126.33 1717.95 3126.7 1718.25 3127.08 1718.45 3127.45 1718.56 3127.83 1718.66 3128.27 1718.71 3128.77 1718.71 3129.56 1718.71 3130.36 1718.48 3131.17 1718.02 3131.99 1717.57 3132.89 1716.77 3133.89 1715.65L3135.52 1717.4C3133.85 1719.21 3132.3 1720.49 3130.86 1721.24 3129.42 1721.99 3127.94 1722.37 3126.42 1722.37 3124.69 1722.37 3123.28 1721.98 3122.19 1721.21 3121.09 1720.44 3120.15 1719.21 3119.34 1717.52 3118.54 1715.84 3117.77 1713.63 3117.02 1710.9 3113.25 1710.69 3110.37 1709.44 3108.39 1707.15 3106.41 1704.86 3105.42 1701.63 3105.42 1697.46 3105.42 1694.34 3105.95 1690.81 3107 1686.87 3108.05 1682.93 3109.57 1679.46 3111.56 1676.45 3113.55 1673.44 3115.93 1671.15 3118.69 1669.6 3121.45 1668.05 3124.45 1667.27 3127.7 1667.27Z" fill="#292934" fill-rule="evenodd"/><text fill="#000000" fill-opacity="0" font-family="Arial,Arial_MSFontService,sans-serif" font-size="55.0938" x="3105.42" y="1715.48">𝑄</text><path d="M3159.41 1696.14C3158.88 1696.14 3158.41 1696.15 3158 1696.16 3157.6 1696.18 3157.23 1696.2 3156.89 1696.23L3151.31 1721.08C3151.37 1721.08 3151.51 1721.09 3151.73 1721.1 3151.94 1721.1 3152.18 1721.11 3152.44 1721.12 3152.7 1721.13 3152.96 1721.13 3153.23 1721.14 3153.5 1721.15 3153.71 1721.15 3153.88 1721.15 3156.39 1721.15 3158.51 1720.77 3160.25 1719.99 3161.99 1719.22 3163.48 1718.02 3164.71 1716.38 3165.95 1714.68 3166.86 1712.9 3167.45 1711.04 3168.03 1709.18 3168.32 1707.17 3168.32 1705 3168.32 1703.59 3168.12 1702.33 3167.73 1701.23 3167.34 1700.13 3166.77 1699.2 3166.01 1698.44 3165.25 1697.69 3164.32 1697.11 3163.21 1696.72 3162.1 1696.33 3160.84 1696.14 3159.41 1696.14ZM3149.89 1693.75 3158.98 1693.75C3160.46 1693.75 3161.75 1693.82 3162.84 1693.96 3163.94 1694.1 3164.88 1694.3 3165.68 1694.58 3166.76 1694.88 3167.76 1695.33 3168.66 1695.91 3169.56 1696.49 3170.34 1697.21 3171 1698.08 3171.66 1698.94 3172.17 1699.95 3172.54 1701.11 3172.91 1702.26 3173.09 1703.56 3173.09 1705 3173.09 1707.73 3172.67 1710.24 3171.83 1712.5 3170.99 1714.76 3169.76 1716.71 3168.13 1718.34 3166.51 1719.97 3164.52 1721.24 3162.14 1722.15 3159.77 1723.06 3157.05 1723.52 3153.97 1723.52L3144.22 1723.52 3144.47 1722.12C3144.95 1722.04 3145.33 1721.95 3145.63 1721.85 3145.93 1721.75 3146.2 1721.54 3146.44 1721.21 3146.67 1720.88 3146.89 1720.39 3147.09 1719.73 3147.29 1719.07 3147.52 1718.14 3147.78 1716.93L3151.54 1700.2C3151.7 1699.53 3151.81 1698.93 3151.89 1698.41 3151.96 1697.89 3152 1697.45 3152 1697.08 3152 1696.41 3151.82 1695.93 3151.47 1695.64 3151.12 1695.36 3150.48 1695.21 3149.55 1695.2Z" fill="#292934" fill-rule="evenodd"/><text fill="#000000" fill-opacity="0" font-family="Arial,Arial_MSFontService,sans-serif" font-size="29.7651" x="3144.22" y="1719.8">𝐷</text><text fill="#292934" font-family="Arial,Arial_MSFontService,sans-serif" font-weight="400" font-size="83" transform="matrix(1 0 0 1 1622.07 1490)">6</text><text fill="#292934" font-family="Arial,Arial_MSFontService,sans-serif" font-weight="400" font-size="83" transform="matrix(1 0 0 1 1606.29 1051)">12</text><text fill="#292934" font-family="Arial,Arial_MSFontService,sans-serif" font-weight="400" font-size="83" transform="matrix(1 0 0 1 1626.15 1920)">0</text><path d="M1735 1020 1735 1463 2306 1459.11" fill="#92D050" fill-rule="evenodd" fill-opacity="0.301961"/><text fill="#292934" font-family="Arial,Arial_MSFontService,sans-serif" font-weight="400" font-size="83" transform="matrix(1 0 0 1 1882.99 1371)">CS</text><path d="M1739 1894 1739 1462.88 2294 1459" fill="#FF0000" fill-rule="evenodd" fill-opacity="0.309804"/><text fill="#292934" font-family="Arial,Arial_MSFontService,sans-serif" font-weight="400" font-size="83" transform="matrix(1 0 0 1 1886.88 1608)">PS</text></g></svg>